<svg width="167" height="73" viewBox="0 0 167 73" fill="none" xmlns="http://www.w3.org/2000/svg">
<g id="cropped-coloerd 1">
<path id="Vector" d="M30.2076 9.44602C32.0145 8.41677 33.9183 7.62753 36.0039 7.1406C36.5325 7.06612 37.0001 6.99404 37.4629 6.8987C37.8079 6.82765 38.1466 6.72651 38.4881 6.63877C39.0717 6.57459 39.6542 6.47106 40.2392 6.4543C41.5099 6.4179 42.782 6.43132 44.0534 6.41386C45.0729 6.39986 46.0921 6.35565 47.1115 6.35255C47.8774 6.35022 48.6433 6.39684 49.4093 6.41254C50.2248 6.42925 51.0405 6.44608 51.8561 6.44247C52.5212 6.43952 53.186 6.39551 53.8512 6.39028C54.3952 6.386 54.9394 6.41584 55.4836 6.42331C55.8175 6.42789 56.1517 6.4219 56.4856 6.41529C57.5617 6.394 58.6377 6.36276 59.7139 6.34967C60.6253 6.33859 61.5369 6.34737 62.4483 6.34743C63.3218 6.34747 64.1954 6.33669 65.0686 6.35055C66.0813 6.36662 67.0937 6.42618 68.1062 6.42648C69.0991 6.42678 70.092 6.3637 71.0851 6.3556C71.4005 6.35303 71.7166 6.43765 72.1489 6.60892C72.009 6.69329 71.8449 6.75346 71.7327 6.86553C67.2661 11.3239 62.8449 15.8288 58.315 20.2218C57.0916 21.4082 55.5814 22.321 54.1296 23.2442C52.4278 24.3263 50.5295 25.0138 48.5851 25.5233C47.5405 25.797 46.4523 25.9067 45.382 26.0793C44.8696 26.1619 44.353 26.2185 43.7491 26.2725C41.8138 26.2609 39.9677 26.2623 38.1215 26.267C36.0944 26.2721 34.0672 26.2802 31.993 26.2877C25.6344 26.2883 19.3228 26.2884 13.0112 26.2868C12.7971 26.2868 12.583 26.2695 12.3799 26.2228C12.3907 26.1155 12.3906 26.0456 12.3905 25.9757C12.3905 25.9757 12.3958 25.982 12.4249 26.0002C12.5628 25.8995 12.6715 25.7807 12.7802 25.6618C12.7802 25.6618 12.7831 25.6749 12.8156 25.6734C12.861 25.6078 12.8738 25.5437 12.8866 25.4796C12.8866 25.4796 12.8915 25.4861 12.9207 25.5043C13.0587 25.4036 13.1674 25.2848 13.2761 25.166C13.2761 25.166 13.278 25.1767 13.3082 25.1812C13.3822 25.1136 13.4261 25.0414 13.47 24.9691C13.47 24.9691 13.4755 24.981 13.5048 24.986C13.6783 24.818 13.8223 24.6451 13.9664 24.4722C13.9664 24.4722 13.9707 24.4823 14.0003 24.4883C14.142 24.3548 14.2541 24.2153 14.3663 24.0758C14.3663 24.0758 14.3693 24.0883 14.4021 24.0867C14.4477 24.021 14.4605 23.957 14.4733 23.8929C14.4733 23.8929 14.4782 23.8994 14.5074 23.9176C14.6454 23.8169 14.7541 23.6981 14.8629 23.5793C14.8629 23.5793 14.8658 23.5925 14.8981 23.5908C14.9434 23.5251 14.9563 23.4611 14.9692 23.397C14.9692 23.397 14.9741 23.4036 15.003 23.4224C15.2057 23.2558 15.3796 23.0704 15.5534 22.8851C15.5534 22.8851 15.5571 22.895 15.587 22.9016C15.7289 22.7684 15.8409 22.6288 15.9529 22.4891C15.9529 22.4891 15.956 22.5016 15.9887 22.4999C16.0342 22.4342 16.0472 22.3702 16.0601 22.3062C16.0601 22.3062 16.0649 22.3127 16.0942 22.3306C16.2323 22.2298 16.341 22.1112 16.4497 21.9926C16.4497 21.9926 16.4526 22.0059 16.4849 22.0042C16.5301 21.9385 16.543 21.8744 16.556 21.8103C16.556 21.8103 16.5607 21.8169 16.59 21.8347C16.793 21.6678 16.9667 21.4831 17.1403 21.2984C17.1403 21.2984 17.1427 21.3078 17.1736 21.3143C17.3519 21.1204 17.4993 20.92 17.6468 20.7196C17.6468 20.7196 17.6515 20.726 17.6811 20.7434C17.8192 20.6425 17.9279 20.5242 18.0366 20.4059C18.0366 20.4059 18.0394 20.4193 18.0716 20.4174C18.1167 20.3516 18.1297 20.2876 18.1427 20.2236C18.1427 20.2236 18.1474 20.2302 18.1768 20.2478C18.315 20.147 18.4237 20.0285 18.5325 19.9101C18.5325 19.9101 18.5343 19.9211 18.5642 19.9252C18.6382 19.8572 18.6823 19.7852 18.7264 19.7132C18.7264 19.7132 18.7307 19.7242 18.7604 19.7293C18.9344 19.5616 19.0785 19.3889 19.2227 19.2162C19.2227 19.2162 19.2261 19.226 19.2561 19.2321C19.3983 19.0988 19.5104 18.9594 19.6224 18.8199C19.6224 18.8199 19.6254 18.8326 19.6578 18.8307C19.7033 18.7649 19.7164 18.7009 19.7295 18.6369C19.7295 18.6369 19.734 18.6434 19.7636 18.6607C19.9019 18.5598 20.0106 18.4416 20.1193 18.3234C20.1193 18.3234 20.1221 18.3369 20.1541 18.335C20.1992 18.269 20.2123 18.205 20.2254 18.1411C20.2254 18.1411 20.2299 18.1476 20.2592 18.1657C20.4622 17.9989 20.636 17.814 20.8098 17.6292C20.8098 17.6292 20.8121 17.6388 20.8429 17.645C21.0212 17.4508 21.1687 17.2506 21.3161 17.0503C21.3161 17.0503 21.3207 17.0567 21.3504 17.0737C21.4888 16.9727 21.5975 16.8547 21.7062 16.7367C21.7062 16.7367 21.7089 16.7504 21.7408 16.7482C21.7858 16.6821 21.7989 16.6182 21.8121 16.5543C21.8121 16.5543 21.8165 16.5609 21.8462 16.5779C22.0495 16.4108 22.223 16.2267 22.3966 16.0425C22.3966 16.0425 22.3989 16.0519 22.4292 16.0582C22.6037 15.892 22.748 15.7195 22.8922 15.547C22.8922 15.547 22.895 15.5563 22.925 15.5621C23.0675 15.4288 23.1799 15.2898 23.2923 15.1508C23.2923 15.1508 23.2952 15.1638 23.3272 15.1616C23.3725 15.0954 23.3857 15.0315 23.3989 14.9676C23.3989 14.9676 23.4032 14.9741 23.433 14.9909C23.5714 14.8899 23.6802 14.7721 23.7889 14.6542C23.7889 14.6542 23.7916 14.668 23.8233 14.6657C23.8682 14.5995 23.8815 14.5356 23.8947 14.4718C23.8947 14.4718 23.8991 14.4783 23.9286 14.4957C24.1319 14.3287 24.3057 14.1443 24.4795 13.96C24.4795 13.96 24.4818 13.9695 24.512 13.9756C24.6545 13.8425 24.7667 13.7033 24.879 13.5641C24.879 13.5641 24.8819 13.5772 24.9138 13.5748C24.9591 13.5086 24.9723 13.4448 24.9856 13.3809C24.9856 13.3809 24.9899 13.3874 25.0199 13.4039C25.158 13.3027 25.2661 13.185 25.3741 13.0673C25.3741 13.0673 25.3758 13.0783 25.4054 13.0835C25.6155 12.8884 25.796 12.688 25.9764 12.4875C25.9764 12.4875 25.9813 12.4943 26.0127 12.5051C26.0559 12.4733 26.0676 12.4308 26.0793 12.3882C26.0793 12.3882 26.08 12.3951 26.1116 12.4009C26.2982 12.2748 26.453 12.1431 26.6078 12.0113C26.8215 11.8082 27.0323 11.6021 27.2502 11.4038C27.332 11.3292 27.4303 11.2727 27.5868 11.1921C27.7888 11.0515 27.925 10.9267 28.0612 10.8019C28.0612 10.8019 28.0634 10.8085 28.0962 10.8181C28.404 10.6207 28.6791 10.4136 28.9541 10.2066C28.9541 10.2066 28.9558 10.2133 28.9862 10.2218C29.0603 10.1845 29.1041 10.1387 29.1479 10.0929C29.1479 10.0929 29.1471 10.1057 29.1777 10.1096C29.5414 9.89097 29.8745 9.6685 30.2076 9.44602Z" fill="white"/>
<path id="Vector_2" d="M39.6842 46.0101C39.8435 46.0106 40.0028 46.0111 40.2277 46.0443C40.4722 46.0901 40.6509 46.1142 40.8297 46.1145C44.4707 46.1216 48.1116 46.1259 51.7549 46.1761C51.7581 49.6897 51.7576 53.158 51.7604 56.6263C51.7624 59.0042 51.7689 61.3821 51.7735 63.7601C50.6634 64.1682 49.5681 64.6248 48.4388 64.9703C47.3977 65.2889 46.329 65.5408 45.2556 65.7227C44.4858 65.8532 43.6883 65.8542 42.9031 65.8545C32.7413 65.8593 22.5795 65.8535 12.4177 65.8505C12.2266 65.8504 12.0355 65.8505 11.8444 65.8505C11.8228 65.8081 11.8012 65.7658 11.7795 65.7234C15.8083 61.6887 19.8371 57.654 23.9188 53.5964C24.0466 53.4646 24.1215 53.3557 24.1963 53.2468C24.1963 53.2468 24.1969 53.2535 24.2307 53.2608C24.3077 53.1948 24.3509 53.1215 24.3942 53.0482C24.3942 53.0482 24.3949 53.0549 24.4279 53.0625C24.5371 52.9633 24.6134 52.8567 24.6896 52.75C24.6896 52.75 24.692 52.7566 24.7265 52.7701C24.7703 52.7394 24.7797 52.6951 24.7891 52.6509C24.7891 52.6509 24.7909 52.6576 24.823 52.6666C24.8998 52.6011 24.9444 52.5266 24.989 52.4521C24.989 52.4521 24.9899 52.4589 25.0195 52.4758C25.3608 52.2195 25.6725 51.9464 26.016 51.664C26.2246 51.4902 26.4013 51.3256 26.578 51.1609C26.578 51.1609 26.5771 51.1712 26.6074 51.1664C26.7472 51.0305 26.8567 50.8995 26.9661 50.7684C26.9661 50.7684 26.9721 50.7727 26.9971 50.8C27.1048 50.7406 27.1873 50.6539 27.2699 50.5672C27.2699 50.5672 27.27 50.5744 27.3018 50.5848C27.5432 50.421 27.7526 50.2469 27.9621 50.0727C27.9621 50.0727 27.964 50.0794 27.9955 50.0935C28.3766 49.8656 28.7263 49.6235 29.0759 49.3814C29.7244 49.0201 30.3521 48.6131 31.026 48.3079C32.1378 47.8043 33.2571 47.2984 34.4152 46.9227C35.3389 46.623 36.325 46.5156 37.2836 46.3239C37.4912 46.2824 37.6997 46.2453 37.9805 46.2246C38.597 46.1653 39.1406 46.0877 39.6842 46.0101Z" fill="white"/>
<path id="Vector_3" d="M51.8079 63.7512C51.769 61.3821 51.7624 59.0042 51.7605 56.6263C51.7577 53.158 51.7582 49.6897 51.7576 46.1459C51.757 46.0502 51.7559 46.0301 51.7595 45.9638C51.7628 39.4013 51.7614 32.8851 51.7891 26.3473C51.9328 26.3088 52.0475 26.2919 52.2052 26.281C52.4505 26.2873 52.6528 26.2875 52.8892 26.3032C53.4992 26.3437 54.0749 26.3687 54.6507 26.3937C55.4337 26.5552 56.2168 26.7166 57.0481 26.9179C57.6365 27.1267 58.1765 27.2956 58.7166 27.4645C58.7166 27.4645 58.7094 27.4715 58.7295 27.4752C58.793 27.4963 58.8363 27.5136 58.8797 27.5309C58.8967 27.5387 58.9137 27.5465 58.9614 27.574C59.021 27.5951 59.0465 27.6043 59.0686 27.6214C59.0857 27.6307 59.1028 27.64 59.1365 27.6783C59.153 27.7074 59.1447 27.6971 59.1447 27.6971C59.5891 27.8632 60.0382 28.0179 60.4756 28.2007C60.6611 28.2782 60.8219 28.4144 61.045 28.5588C61.6576 28.9137 62.2193 29.2337 62.781 29.5537C62.781 29.5537 62.773 29.5518 62.7719 29.583C62.9728 29.7252 63.1748 29.8362 63.3767 29.9472C63.3767 29.9472 63.37 29.9482 63.3615 29.9795C63.5922 30.1538 63.8314 30.2968 64.0707 30.4398C64.0707 30.4398 64.0637 30.4436 64.054 30.4743C64.1566 30.5803 64.2689 30.6557 64.3812 30.7311C64.3812 30.7311 64.3693 30.7337 64.3727 30.7622C64.506 30.8726 64.6358 30.9544 64.7656 31.0362C64.7656 31.0362 64.7587 31.0383 64.7523 31.0694C64.8227 31.1421 64.8994 31.1837 64.9762 31.2253C64.9762 31.2253 64.965 31.2278 64.9664 31.2568C65.1978 31.4676 65.4278 31.6495 65.6577 31.8313C65.6577 31.8313 65.6509 31.8323 65.6442 31.8651C65.6773 31.9078 65.7171 31.9176 65.757 31.9274C65.757 31.9274 65.7499 31.9313 65.7394 31.9624C65.7713 32.0054 65.8137 32.0173 65.8561 32.0292C65.8561 32.0292 65.8493 32.0302 65.8424 32.0609C65.9121 32.1694 65.9887 32.2472 66.0654 32.325C66.0654 32.325 66.0499 32.3256 66.0577 32.3512C66.3593 32.6573 66.6531 32.9378 66.9469 33.2184C66.9469 33.2184 66.9402 33.2203 66.9315 33.2508C66.9686 33.3248 67.0144 33.3683 67.0601 33.4118C67.0601 33.4118 67.0462 33.4117 67.0469 33.4411C67.1461 33.5509 67.2447 33.6313 67.3432 33.7116C67.3432 33.7116 67.3365 33.7168 67.326 33.7494C67.3579 33.7922 67.4004 33.8022 67.4428 33.8123C67.4428 33.8123 67.435 33.8161 67.4152 33.8411C67.4373 33.921 67.4791 33.9758 67.5209 34.0306C68.5924 35.3187 69.4135 36.758 70.0192 38.3126C70.4045 39.3017 70.7379 40.3139 71.0365 41.3328C71.2168 41.9484 71.2858 42.5967 71.3865 43.3053C71.4066 43.8673 71.4593 44.3536 71.4797 44.8413C71.5021 45.3785 71.6687 45.9463 71.2194 46.4074C69.7332 47.9075 68.2513 49.4119 66.76 50.9069C63.9384 53.7355 61.1276 56.575 58.2805 59.3778C56.654 60.9789 54.8 62.2816 52.7408 63.2815C52.4381 63.4285 52.1416 63.5884 51.8079 63.7512Z" fill="white"/>
<path id="Vector_4" d="M12.369 26.2602C12.5831 26.2695 12.7973 26.2868 13.0114 26.2868C19.323 26.2884 25.6345 26.2883 31.9956 26.3182C32.0498 26.3883 32.0544 26.4288 32.048 26.5151C32.0351 31.9086 32.0341 37.2561 32.0309 42.6036C32.0302 43.7422 32.0212 44.8807 32.016 46.0193C31.45 46.0163 30.8837 46.0211 30.3179 46.0061C30.1281 46.0011 29.9396 45.9459 29.6838 45.9021C28.8433 45.7367 28.0695 45.5829 27.2958 45.4292C26.773 45.3216 26.2361 45.2579 25.7311 45.0951C25.1453 44.9061 24.5699 44.6648 24.0216 44.3844C22.9933 43.8584 21.9216 43.3803 20.9893 42.7128C19.799 41.8606 18.659 40.9103 17.626 39.8739C16.5355 38.7799 15.5796 37.5486 14.8811 36.1448C14.6653 35.7111 14.3631 35.3167 14.1791 34.8717C13.7844 33.917 13.4069 32.9522 13.0869 31.9705C12.812 31.1271 12.5422 30.2658 12.4243 29.3916C12.2904 28.398 12.3278 27.3813 12.3075 26.3177C12.3243 26.2607 12.369 26.2602 12.369 26.2602Z" fill="white"/>
<path id="Vector_5" d="M116.935 32.5473C116.683 32.0577 116.355 31.6638 115.711 31.5423C114.468 31.4832 113.272 31.4832 112.008 31.4832C112.045 30.8504 112.073 30.3614 112.146 29.8781C113.235 29.8938 114.282 29.9038 115.369 29.9263C115.549 29.9404 115.69 29.942 115.866 29.9546C116.076 29.9618 116.25 29.958 116.424 29.9542C116.513 29.9878 116.602 30.0214 116.75 30.0859C117.028 30.2266 117.249 30.3363 117.469 30.446C117.49 30.4367 117.506 30.4424 117.486 30.512C117.591 30.6554 117.727 30.7498 117.862 30.8441C117.884 30.8347 117.901 30.8407 117.885 30.9109C117.978 31.1176 118.098 31.2757 118.218 31.4339C118.218 31.4339 118.211 31.435 118.191 31.4725C118.219 31.5338 118.267 31.5575 118.314 31.5813C118.314 31.5813 118.312 31.5859 118.276 31.6035C118.285 31.7426 118.331 31.8642 118.377 31.9858C118.49 32.7409 118.613 33.4949 118.712 34.2518C118.744 34.495 118.716 34.7461 118.673 35.0574C118.736 35.1893 118.841 35.3165 118.946 35.3168C122.555 35.3271 126.164 35.3273 129.773 35.3161C129.885 35.3158 129.996 35.1791 130.12 35.0609C130.132 33.3263 130.132 31.6368 130.132 29.8628C130.698 29.8938 131.198 29.9211 131.693 29.9948C131.701 31.7327 131.713 33.4243 131.724 35.1569C131.884 35.2418 132.045 35.3224 132.206 35.3234C133.511 35.3315 134.816 35.3227 136.122 35.323C138.269 35.3235 140.417 35.3312 142.565 35.3197C142.709 35.319 142.853 35.1833 142.997 35.1104C143.001 33.1871 143.004 31.2637 143.058 29.2956C143.595 29.2538 144.082 29.2569 144.576 29.3041C144.59 29.5208 144.599 29.6932 144.607 29.857C144.718 29.8706 144.767 29.8813 144.816 29.8818C147.25 29.9064 149.685 29.9311 152.119 29.9493C152.197 29.9499 152.276 29.882 152.354 29.846C152.435 29.8797 152.515 29.9135 152.641 29.9879C153.131 30.2316 153.577 30.4347 154.022 30.6378C154.022 30.6378 154.012 30.6398 154.019 30.6713C154.204 30.8148 154.382 30.9269 154.56 31.0389C154.581 31.0295 154.597 31.0352 154.568 31.0967C154.711 31.4907 154.894 31.8439 155.077 32.1972C155.187 32.5767 155.296 32.9562 155.359 33.3923C155.312 34.5808 155.312 35.7126 155.312 36.8916C154.642 36.8916 154.05 36.8909 153.459 36.8917C149.577 36.8969 145.695 36.9025 141.767 36.9024C138.841 36.9008 135.962 36.9048 133.036 36.9022C125.492 36.8943 117.993 36.8931 110.495 36.8907C110.264 36.8907 110.033 36.8783 109.797 36.8268C109.793 36.3108 109.793 35.8396 109.793 35.3255C110.033 35.3255 110.211 35.3255 110.389 35.3255C112.479 35.3255 114.57 35.3298 116.66 35.3162C116.807 35.3153 116.953 35.1827 117.11 35.0657C117.123 34.7407 117.146 34.4595 117.122 34.1825C117.073 33.6362 116.999 33.0923 116.935 32.5473ZM144.591 31.63C144.591 32.848 144.591 34.066 144.591 35.3254C145.763 35.3254 146.883 35.3254 148.003 35.3254C149.738 35.3254 151.473 35.3294 153.208 35.3184C153.359 35.3174 153.654 35.466 153.6 34.998C153.603 34.5034 153.627 34.0079 153.604 33.5144C153.589 33.1903 153.577 32.8366 153.444 32.553C153.067 31.7553 152.306 31.5996 151.482 31.4498C149.249 31.4402 147.017 31.4296 144.785 31.4258C144.726 31.4257 144.667 31.4994 144.591 31.63Z" fill="white"/>
<path id="Vector_6" d="M120.497 45.3195C120.516 45.32 120.536 45.3205 120.584 45.3622C120.774 45.5071 120.934 45.6109 121.094 45.7147C121.094 45.7147 121.087 45.7161 121.067 45.7451C121.194 45.886 121.342 45.998 121.489 46.11C121.489 46.11 121.483 46.1119 121.466 46.1425C121.653 46.5078 121.855 46.8426 122.058 47.1773C122.166 47.5877 122.273 47.9981 122.339 48.4718C122.284 49.671 122.271 50.8068 122.214 51.9477C112.37 51.9528 102.571 51.9528 92.7246 51.9528C92.7246 52.5076 92.7246 52.9956 92.7246 53.549C91.0651 53.549 89.4528 53.549 87.8405 53.549C86.5502 53.5828 85.4825 53.1091 84.676 52.1038C84.2308 51.5488 84.1216 50.8574 84.0224 50.0903C84.02 48.5972 84.02 47.1867 84.02 45.7778C84.5701 45.7778 85.0566 45.7778 85.579 45.7778C85.579 46.8647 85.575 47.9184 85.5831 48.972C85.5844 49.1391 85.6406 49.3059 85.6713 49.4728C85.6615 50.5388 86.1397 51.2749 87.2065 51.6907C87.3679 51.7744 87.4675 51.8591 87.57 51.8627C88.712 51.9026 89.8543 51.9323 90.9968 51.9519C91.0421 51.9527 91.0896 51.8245 91.136 51.7564C91.136 51.7564 91.1328 51.7088 91.1657 51.6558C91.2084 49.7652 91.219 47.9277 91.2245 46.0901C91.2247 46.0334 91.1713 45.9764 91.1429 45.9196C91.1369 45.8765 91.1308 45.8335 91.1756 45.7703C91.7165 45.7502 92.2067 45.7502 92.7466 45.7502C92.7466 47.3254 92.7466 48.8375 92.7466 50.3845C92.945 50.3845 93.0914 50.3845 93.2378 50.3845C98.2285 50.3844 103.219 50.3844 108.21 50.3844C108.689 50.3844 109.169 50.398 109.647 50.3746C109.761 50.3691 109.868 50.24 109.979 50.1678C109.979 50.1678 109.973 50.1235 110.007 50.0722C110.052 49.8413 110.075 49.6617 110.076 49.4821C110.081 46.9431 110.084 44.4041 110.133 41.8592C110.635 41.8575 111.093 41.8617 111.555 41.9111C111.559 42.9256 111.559 43.8948 111.559 44.8847C111.717 44.9011 111.812 44.9194 111.907 44.9196C114.022 44.9228 116.137 44.9251 118.252 44.9217C118.335 44.9215 118.418 44.8631 118.501 44.8318C118.624 44.8323 118.746 44.8327 118.934 44.8673C119.498 45.0408 119.998 45.1802 120.497 45.3195ZM120.59 47.8656C120.49 47.7 120.407 47.5212 120.288 47.3712C119.808 46.7663 119.139 46.559 118.344 46.4448C116.205 46.4357 114.066 46.4258 111.926 46.4212C111.871 46.4211 111.815 46.478 111.72 46.5172C111.72 46.5172 111.68 46.5081 111.599 46.5418C111.599 47.805 111.599 49.0681 111.599 50.3564C114.653 50.3564 117.677 50.3564 120.822 50.3564C120.751 49.5247 120.683 48.731 120.59 47.8656Z" fill="white"/>
<path id="Vector_7" d="M125.88 54.6182C125.58 54.5681 125.279 54.5227 124.981 54.4645C124.907 54.45 124.791 54.406 124.778 54.3548C124.645 53.8159 124.528 53.2727 124.387 52.6453C124.684 52.7035 124.852 52.7365 125.093 52.788C125.711 52.8969 126.255 52.9874 126.8 53.0779C127.552 53.0664 128.306 53.0865 129.054 53.0318C129.512 52.9983 129.961 52.8497 130.464 52.7753C130.544 52.7801 130.574 52.7626 130.605 52.745C130.605 52.745 130.604 52.7566 130.637 52.7567C130.745 52.6231 130.82 52.4893 130.895 52.3555C130.895 52.3555 130.901 52.361 130.939 52.3708C130.983 52.3052 130.99 52.2299 130.997 52.1546C130.997 52.1546 130.999 52.1617 131.038 52.1592C131.002 52.0897 130.929 51.9654 130.853 51.9646C129.804 51.9539 128.755 51.9601 127.706 51.9622C126.302 51.9031 125.031 51.4942 124.343 50.1869C123.851 49.2523 123.761 48.1962 124.196 47.093C124.24 46.935 124.249 46.843 124.257 46.7511C124.257 46.7511 124.251 46.7493 124.293 46.7551C124.374 46.6417 124.413 46.5224 124.452 46.4031C124.452 46.4031 124.456 46.4101 124.484 46.4281C125 45.8894 125.55 45.4186 126.268 45.1833C126.604 45.0731 126.943 44.971 127.281 44.8653C127.401 44.8514 127.521 44.8375 127.725 44.84C127.967 44.8779 128.125 44.9172 128.284 44.9182C129.747 44.9274 131.211 44.9301 132.68 44.9801C132.686 46.5443 132.684 48.0632 132.693 49.5819C132.694 49.7517 132.755 49.9211 132.788 50.0907C132.788 50.0907 132.797 50.1196 132.779 50.1789C132.882 50.2869 133.003 50.3779 133.125 50.378C138.37 50.3851 143.616 50.3854 148.862 50.3758C148.987 50.3755 149.112 50.2523 149.25 50.1406C149.262 47.3638 149.262 44.6328 149.262 41.8807C149.817 41.8807 150.305 41.8807 150.797 41.925C150.8 45.2817 150.8 48.5942 150.8 51.9555C150.55 51.9555 150.356 51.9555 150.162 51.9555C144.518 51.9555 138.874 51.9545 133.229 51.9601C133.049 51.9603 132.869 52.0277 132.69 52.0638C132.666 53.5588 131.574 54.4334 130.33 54.6297C129.422 54.6523 128.585 54.7213 127.747 54.7281C127.125 54.7332 126.502 54.6578 125.88 54.6182ZM131.049 46.4519C130.116 46.4386 129.182 46.4195 128.248 46.4163C128.044 46.4156 127.84 46.472 127.556 46.514C127.142 46.642 126.694 46.7075 126.321 46.9113C125.618 47.2958 125.498 47.9918 125.554 48.7219C125.612 49.4682 126.079 49.8769 126.757 50.169C126.87 50.221 126.981 50.3158 127.094 50.3184C128.377 50.3479 129.66 50.3661 130.943 50.3729C130.996 50.3732 131.05 50.2306 131.093 50.1195C131.093 50.1195 131.103 50.0843 131.165 50.0277C131.175 48.9244 131.187 47.821 131.192 46.7177C131.192 46.6474 131.129 46.5769 131.103 46.5072C131.103 46.5072 131.104 46.5158 131.049 46.4519Z" fill="white"/>
<path id="Vector_8" d="M92.0246 36.4954C90.8365 36.4648 89.7734 36.1339 89.1429 35.0485C88.609 34.1292 88.6567 33.1302 88.8968 32.1111C89.1119 31.1979 89.7168 30.6364 90.461 30.1941C90.7135 30.0441 91.0538 30.042 91.4353 29.9683C93.4904 29.9643 95.4643 29.9643 97.4499 29.9643C97.4499 33.1743 97.4499 36.4109 97.4499 39.6701C94.2634 39.6701 91.1138 39.6701 87.9641 39.6701C86.8369 39.6842 85.7836 39.5002 84.9694 38.6139C84.4341 38.0313 84.1296 37.3594 84.0868 36.5681C84.0818 36.4739 84.046 36.3814 84.0216 36.2054C84.0191 35.1305 84.0195 34.1384 84.0643 33.1422C84.5928 33.1415 85.0768 33.1449 85.5655 33.1928C85.5716 33.7791 85.5498 34.322 85.5809 34.8619C85.6117 35.3957 85.696 35.9264 85.7567 36.4585C86.2732 37.5844 87.2101 37.9834 88.3821 37.982C90.6774 37.9793 92.9728 37.9791 95.2681 37.9779C95.448 37.9778 95.6279 37.9779 95.8932 37.9779C95.8932 37.5248 95.8932 37.1038 95.8709 36.6001C94.5739 36.5101 93.2993 36.5027 92.0246 36.4954ZM92.0595 31.4699C91.9429 31.5264 91.832 31.6091 91.7089 31.6355C90.4902 31.8962 89.9329 33.1606 90.5452 34.226C90.8637 34.7802 91.4393 34.8012 92.0082 35.0417C92.0494 35.0654 92.0905 35.1094 92.132 35.1099C93.3122 35.1246 94.4923 35.1391 95.6725 35.1357C95.7462 35.1355 95.8195 34.9888 95.8931 34.817C95.8932 33.7225 95.8934 32.6279 95.8606 31.4522C94.6157 31.4475 93.3707 31.4428 92.0595 31.4699Z" fill="white"/>
<path id="Vector_9" d="M103.525 36.8913C103.019 36.8535 102.491 36.8936 102.011 36.761C101.103 36.5103 100.304 36.0355 99.8065 35.1922C99.6473 34.9222 99.5069 34.6044 99.4824 34.2985C99.4087 33.3797 99.4425 32.4607 99.7819 31.583C99.8101 31.5103 99.8825 31.4548 99.9845 31.3469C100.042 31.2457 100.048 31.189 100.055 31.1323C100.055 31.1323 100.061 31.1385 100.089 31.1585C100.23 31.0306 100.342 30.8828 100.454 30.735C100.454 30.735 100.456 30.7416 100.489 30.7542C100.632 30.6571 100.741 30.5473 100.85 30.4375C100.85 30.4375 100.853 30.4443 100.884 30.4635C101.124 30.3406 101.333 30.1985 101.542 30.0565C101.719 30.0251 101.895 29.9937 102.148 29.9645C104.196 29.9668 106.168 29.9668 108.184 29.9668C108.184 30.1446 108.184 30.3389 108.184 30.5333C108.186 32.5605 108.189 34.5878 108.191 36.6151C108.201 38.2635 107.31 39.3369 105.604 39.6085C103.869 39.8847 102.184 39.6638 100.483 39.4599C100.363 39.4454 100.199 39.2662 100.167 39.136C100.047 38.6496 99.973 38.1517 99.8768 37.6314C100.809 37.7492 101.734 37.8659 102.711 38.0272C103.298 38.0897 103.832 38.1089 104.366 38.1201C104.382 38.1205 104.401 38.0373 104.418 37.993C104.918 37.9015 105.424 37.8344 105.914 37.7044C106.074 37.662 106.19 37.4557 106.392 37.305C106.5 37.1745 106.542 37.0632 106.606 36.8913C105.528 36.8913 104.526 36.8913 103.525 36.8913ZM106.602 35.0181C106.602 33.8373 106.602 32.6564 106.602 31.461C105.255 31.461 103.961 31.4603 102.667 31.4642C102.625 31.4643 102.583 31.5115 102.51 31.6049C101.513 31.815 101.217 32.1198 101.061 33.101C100.885 34.2046 101.37 35.0117 102.572 35.1983C102.608 35.2287 102.644 35.2852 102.68 35.2857C103.919 35.3029 105.157 35.3179 106.395 35.318C106.457 35.318 106.52 35.1823 106.602 35.0181Z" fill="white"/>
<path id="Vector_10" d="M130.496 59.7875C130.913 60.9406 131.33 62.0937 131.797 63.3838C131.921 63.1187 132.004 62.9886 132.046 62.8465C132.319 61.9211 132.586 60.9937 132.848 60.0648C132.867 59.996 132.825 59.9098 132.877 59.8067C133.276 59.4882 133.889 59.516 134.179 59.8378C134.575 60.9974 134.972 62.1569 135.416 63.4538C135.756 62.4013 136.056 61.4735 136.389 60.4792C136.466 60.1565 136.511 59.9001 136.556 59.6438C136.556 59.6438 136.544 59.6356 136.592 59.6394C136.814 59.628 136.989 59.6233 137.161 59.5953C137.418 59.5533 137.45 59.7013 137.439 59.8968C137.012 61.3087 136.569 62.7161 136.166 64.135C136.013 64.6765 135.617 64.5209 135.261 64.5636C134.876 64.6098 134.805 64.3659 134.714 64.0853C134.363 62.9952 133.998 61.9095 133.521 60.81C133.375 61.2138 133.209 61.6116 133.088 62.0228C132.906 62.6451 132.755 63.2765 132.592 63.9044C132.504 64.2424 132.439 64.567 131.96 64.5672C131.516 64.5674 131.212 64.5389 131.047 64.0014C130.661 62.7456 130.18 61.5189 129.733 60.2057C129.693 59.965 129.657 59.7991 129.592 59.4975C129.955 59.6142 130.226 59.7008 130.496 59.7875Z" fill="white"/>
<path id="Vector_11" d="M86.195 61.4858C87.0144 61.5106 87.7469 61.8047 88.4387 62.2181C88.9716 62.5366 88.9405 63.0949 88.8197 63.5421C88.7334 63.862 88.3823 64.2088 88.0636 64.3498C86.9505 64.8422 85.8012 64.7803 84.6657 64.3653C84.5278 64.3149 84.3839 64.2809 84.2458 64.2402C84.1844 63.5633 84.4583 63.3763 85.0878 63.5946C85.9068 63.8786 86.7517 63.8156 87.5789 63.6302C87.7387 63.5944 87.8874 63.3531 87.9613 63.1737C87.9876 63.1098 87.7985 62.8873 87.6706 62.8421C87.1515 62.6584 86.606 62.5465 86.0932 62.3487C85.5859 62.153 85.1062 61.8857 84.5978 61.5829C84.5158 61.4743 84.4503 61.4326 84.3849 61.391C84.3849 61.391 84.3914 61.3854 84.4101 61.3464C84.4148 60.9673 84.4008 60.6272 84.3869 60.2871C84.3869 60.2871 84.3913 60.294 84.4257 60.3048C84.5016 60.2074 84.5431 60.0991 84.5845 59.9909C84.5845 59.9909 84.5908 59.9969 84.6253 60.018C84.7007 59.957 84.7416 59.8749 84.7824 59.7927C84.7824 59.7927 84.7879 59.797 84.81 59.8301C85.0119 59.7467 85.1918 59.6302 85.3717 59.5138C85.8738 59.4804 86.3782 59.3999 86.8773 59.4255C87.5228 59.4585 88.1713 59.5534 88.7061 59.9689C88.7061 60.0186 88.7139 60.0499 88.705 60.0752C88.4713 60.7342 87.994 60.5753 87.5114 60.4395C86.788 60.2359 86.0673 60.1615 85.3073 60.5727C84.9764 60.828 85.1202 61.0501 85.3401 61.1737C85.6011 61.3203 85.908 61.3854 86.195 61.4858Z" fill="white"/>
<path id="Vector_12" d="M124.149 59.7887C124.345 60.1644 124.54 60.54 124.75 60.9845C124.796 61.0638 124.829 61.0743 124.862 61.0848C124.862 61.0848 124.855 61.0878 124.825 61.1119C124.918 61.3175 125.039 61.4991 125.16 61.6807C125.16 61.6807 125.153 61.6816 125.13 61.7132C125.158 61.7894 125.209 61.834 125.26 61.8786C125.26 61.8786 125.251 61.8809 125.221 61.9039C125.368 62.2704 125.544 62.614 125.72 62.9576C126.001 63.4373 126.281 63.9171 126.563 64.3997C125.971 64.692 125.705 64.6091 125.469 64.1359C125.318 63.8347 125.145 63.5449 124.944 63.1839C124.026 63.1049 123.147 63.0894 122.268 63.0843C122.203 63.084 122.138 63.1598 122.074 63.2002C121.895 63.5797 121.747 63.9772 121.53 64.3334C121.316 64.686 120.978 64.5874 120.56 64.4487C120.737 64.112 120.895 63.8116 121.059 63.4591C121.073 63.3921 121.081 63.3771 121.089 63.3621C121.089 63.3621 121.088 63.3718 121.117 63.3628C121.257 63.0914 121.368 62.8291 121.479 62.5668C121.479 62.5668 121.481 62.5752 121.519 62.5682C121.564 62.4809 121.572 62.4006 121.581 62.3203C121.581 62.3203 121.571 62.3143 121.612 62.3207C121.729 62.1384 121.804 61.9498 121.88 61.7611C122.124 61.2788 122.367 60.7965 122.671 60.2903C122.776 60.108 122.82 59.9496 122.864 59.7912C122.864 59.7912 122.868 59.7976 122.907 59.8019C122.952 59.7355 122.958 59.6646 122.963 59.5938C122.963 59.5938 122.968 59.6001 123.009 59.6129C123.391 59.6125 123.732 59.5993 124.073 59.5861C124.073 59.5861 124.075 59.5905 124.055 59.615C124.073 59.6893 124.111 59.739 124.149 59.7887ZM122.512 62.3029C122.515 62.3488 122.516 62.4349 122.52 62.435C123.183 62.4481 123.847 62.4552 124.511 62.4624C124.492 62.386 124.473 62.3096 124.442 62.1657C124.148 61.5883 123.855 61.011 123.548 60.409C123.203 61.0655 122.89 61.6609 122.512 62.3029Z" fill="white"/>
<path id="Vector_13" d="M103.224 59.5889C103.224 61.1866 103.224 62.7843 103.224 64.3969C102.241 64.7138 101.259 64.8063 100.279 64.5222C98.8958 64.1214 98.6955 62.9184 99.2915 61.7062C99.3839 61.5707 99.4209 61.476 99.4579 61.3813C99.4579 61.3813 99.4617 61.3813 99.4857 61.4144C99.6932 61.3251 99.8769 61.2027 100.061 61.0803C100.061 61.0803 100.06 61.0872 100.1 61.0967C100.837 61.0944 101.535 61.0849 102.233 61.0672C102.3 61.0655 102.367 61.0135 102.443 60.9397C102.452 60.4764 102.452 60.0581 102.452 59.5889C102.744 59.5889 102.984 59.5889 103.224 59.5889ZM99.8619 62.3759C99.8619 62.3759 99.8716 62.3731 99.7937 62.4049C99.6719 63.1267 99.7841 63.4095 100.308 63.6375C100.868 63.8667 101.438 63.9423 102.065 63.8302C102.19 63.7856 102.426 63.7393 102.425 63.6967C102.415 63.0586 102.373 62.4209 102.254 61.7851C102.109 61.7636 101.964 61.7433 101.819 61.7204C101.124 61.6105 100.487 61.7148 99.8841 62.2411C99.8775 62.2893 99.871 62.3375 99.8619 62.3759Z" fill="white"/>
<path id="Vector_14" d="M118.728 65.8303C118.516 65.8303 118.304 65.8303 118.037 65.8303C118.037 65.4277 118.037 65.0411 118.037 64.5927C117.538 64.6181 117.085 64.7051 116.652 64.6463C116.147 64.5777 115.632 64.4424 115.172 64.2271C114.37 63.8517 114.354 62.2359 114.817 61.7211C115.089 61.418 115.289 61.0619 115.797 61.0361C116.402 61.0011 116.956 60.9489 117.511 60.8967C117.783 60.9276 118.055 60.9585 118.38 61.0298C118.532 61.2459 118.716 61.4203 118.718 61.5975C118.741 63.0081 118.729 64.4193 118.728 65.8303ZM116.419 63.7639C116.946 63.7323 117.473 63.7008 118.012 63.6684C118.012 63.0935 118.038 62.6294 117.997 62.1712C117.985 62.0314 117.797 61.8033 117.677 61.7949C117.162 61.7591 116.613 61.6915 116.134 61.8315C115.818 61.9238 115.463 62.315 115.381 62.6375C115.316 62.8932 115.605 63.2721 115.805 63.5476C115.899 63.6785 116.151 63.6958 116.419 63.7639Z" fill="white"/>
<path id="Vector_15" d="M140.738 62.1031C140.188 61.5036 139.474 61.6744 138.802 61.7195C138.44 61.7439 138.085 61.8681 137.721 61.9485C137.686 61.2214 137.813 61.0354 138.49 60.9984C139.217 60.9585 139.951 60.9464 140.677 60.9974C141.218 61.0355 141.541 61.4433 141.618 62.0923C141.614 62.9439 141.613 63.71 141.611 64.476C140.841 64.5359 140.07 64.6407 139.3 64.639C138.827 64.638 138.334 64.5294 137.892 64.3589C137.684 64.2783 137.47 63.9512 137.443 63.7145C137.387 63.2309 137.419 62.7126 138.14 62.5716C139.071 62.5267 139.922 62.478 140.834 62.4259C140.805 62.3289 140.771 62.216 140.738 62.1031ZM138.479 63.1357C138.433 63.1843 138.386 63.233 138.348 63.3621C138.301 63.6778 138.456 63.798 138.763 63.8572C139.209 63.898 139.655 63.9731 140.101 63.9719C140.879 63.97 140.879 63.9503 140.799 63.0928C140.166 63.0591 139.533 63.0149 138.899 63.001C138.78 62.9984 138.658 63.1169 138.539 63.1725C138.539 63.1725 138.546 63.175 138.479 63.1357Z" fill="white"/>
<path id="Vector_16" d="M149.229 61.7804C148.32 61.562 147.428 61.7035 146.538 61.9677C146.536 61.1351 146.59 61.0312 147.328 60.9996C148.101 60.9665 148.884 60.9679 149.651 61.0551C150.2 61.1175 150.448 61.5375 150.441 62.1888C150.44 62.9902 150.44 63.7037 150.44 64.3978C150.215 64.4542 150.043 64.4974 149.871 64.5406C148.866 64.7136 147.849 64.8348 146.878 64.4541C146.148 64.1683 146.038 63.4157 146.605 62.7385C146.688 62.6706 146.718 62.6321 146.748 62.5936C146.764 62.5861 146.78 62.5786 146.866 62.5781C147.827 62.5321 148.719 62.4789 149.677 62.4219C149.631 62.3084 149.585 62.1922 149.538 62.076C149.538 62.076 149.547 62.0785 149.552 62.0486C149.517 62.0068 149.478 61.9948 149.438 61.9828C149.438 61.9828 149.445 61.982 149.453 61.9497C149.421 61.9064 149.38 61.8955 149.339 61.8845C149.339 61.8845 149.346 61.883 149.352 61.852C149.314 61.8075 149.272 61.7939 149.229 61.7804ZM147.586 63.8574C148.212 63.8872 148.839 63.9322 149.465 63.9253C149.535 63.9246 149.657 63.6286 149.655 63.471C149.653 63.3129 149.522 63.019 149.453 63.0207C148.725 63.0386 147.999 63.1037 147.255 63.2292C147.062 63.5889 147.209 63.7491 147.586 63.8574Z" fill="white"/>
<path id="Vector_17" d="M92.6231 62.269C92.477 61.8205 92.0965 61.6804 91.7017 61.6926C90.9781 61.7148 90.2567 61.8103 89.5387 61.8748C89.5522 61.2565 89.6827 61.0594 90.22 61.0152C91.1482 61.0936 92.0136 61.1406 92.879 61.1875C93.3297 61.398 93.5219 61.7636 93.5203 62.2484C93.5184 62.8269 93.512 63.4054 93.5217 63.9837C93.528 64.3599 93.4096 64.5751 92.9848 64.5702C92.0543 64.5594 91.1158 64.6491 90.1949 64.5557C89.3753 64.4726 89.0028 63.805 89.2971 63.058C89.3888 62.8252 89.7614 62.7032 90.0727 62.5145C90.8627 62.4943 91.5858 62.4989 92.3081 62.4762C92.4152 62.4729 92.5182 62.3413 92.6231 62.269ZM90.3439 63.7634C90.3439 63.7634 90.3437 63.7562 90.3421 63.8392C91.0722 63.8463 91.8024 63.8533 92.5962 63.8252C92.6047 63.6049 92.6133 63.3845 92.6131 63.0849C91.8239 62.8987 91.0388 62.8849 90.2329 63.2015C90.197 63.2273 90.1612 63.253 90.0754 63.3289C90.0368 63.5558 90.0037 63.7791 90.3439 63.7634Z" fill="white"/>
<path id="Vector_18" d="M112.901 61.1812C113.828 61.3837 114.326 62.5846 113.884 63.5007C113.496 64.3038 112.795 64.589 111.986 64.6537C111.125 64.7226 110.331 64.5881 109.601 64.0044C109.059 63.5711 109.085 62.0298 109.441 61.6954C109.682 61.4689 109.963 61.2855 110.306 61.0784C111.224 61.1097 112.063 61.1455 112.901 61.1812ZM110.022 62.9612C110.058 63.0524 110.073 63.1635 110.135 63.2316C111.004 64.1878 112.405 63.9863 113.062 63.0652C113.245 62.8093 113.255 62.4425 112.935 62.2368C112.612 62.0289 112.265 61.8103 111.899 61.7261C110.932 61.5042 110.074 62.059 110.022 62.9612Z" fill="white"/>
<path id="Vector_19" d="M104.228 61.5484C104.221 61.5224 104.229 61.5027 104.305 61.5054C104.51 61.38 104.662 61.2384 104.815 61.0969C104.815 61.0969 104.853 61.0819 104.89 61.1172C105.522 61.1026 106.117 61.0388 106.713 61.0096C106.975 60.9968 107.241 61.0546 107.505 61.0804C107.505 61.0804 107.499 61.0879 107.483 61.1183C107.743 61.2912 108.02 61.4335 108.297 61.5759C108.297 61.5759 108.296 61.5806 108.263 61.6024C108.283 61.678 108.336 61.7317 108.388 61.7855C109.344 63.3313 108.036 64.593 106.65 64.6576C105.963 64.6896 105.282 64.6884 104.659 64.2845C104.16 63.9608 103.751 63.2815 103.841 62.6741C103.918 62.3648 103.971 62.1192 104.024 61.8736C104.024 61.8736 104.026 61.8802 104.063 61.8759C104.107 61.807 104.113 61.7423 104.12 61.6777C104.12 61.6777 104.127 61.6822 104.161 61.6869C104.206 61.6438 104.217 61.5961 104.228 61.5484ZM105.683 61.7785C105.235 61.8789 104.836 62.0611 104.731 62.5562C104.626 63.0501 104.872 63.3984 105.287 63.6471C105.921 64.0276 107.098 63.8526 107.598 63.3003C107.9 62.9662 107.883 62.327 107.525 62.0993C106.99 61.7598 106.414 61.5471 105.683 61.7785Z" fill="white"/>
<path id="Vector_20" d="M143.523 64.4365C143.075 64.4202 143.012 64.0964 143.005 63.7565C142.993 63.1354 143.002 62.5139 143.002 61.8673C142.685 61.8673 142.43 61.8673 142.178 61.8673C141.99 61.1725 142.028 61.1667 142.715 60.9732C143.223 60.8302 142.974 60.4055 142.962 60.0437C143.216 60.0118 143.439 60.0118 143.675 60.0118C143.695 60.3481 143.711 60.6221 143.728 60.9359C143.874 61.0127 144.019 61.0767 144.166 61.0817C144.704 61.1001 145.243 61.0989 145.782 61.1051C145.769 61.8802 145.769 61.8803 145.003 61.8804C144.629 61.8805 144.254 61.8805 143.803 61.8805C143.906 62.5096 143.493 63.1651 144.19 63.7086C144.722 63.7897 145.197 63.8299 145.676 63.9133C145.672 64.1125 145.662 64.2687 145.651 64.4601C144.93 64.4601 144.259 64.4601 143.588 64.4601C143.588 64.4601 143.597 64.4581 143.589 64.4514C143.582 64.4448 143.557 64.4195 143.557 64.4195L143.523 64.4365Z" fill="white"/>
<path id="Vector_21" d="M154.085 61.7807C153.43 61.784 152.776 61.7873 152.039 61.8054C151.957 62.693 151.957 63.5657 151.957 64.4751C151.641 64.4751 151.431 64.4751 151.207 64.4292C151.191 63.5029 151.172 62.6221 151.196 61.7423C151.202 61.4953 151.333 61.2516 151.407 61.0064C152.22 60.9649 153.033 60.8879 153.845 60.8949C154.358 60.8992 154.863 61.0441 155.195 61.5766C155.238 62.583 155.288 63.51 155.339 64.4419C155.025 64.4419 154.836 64.4419 154.601 64.4419C154.601 64.1649 154.612 63.9204 154.599 63.6772C154.576 63.243 154.539 62.8095 154.508 62.3756C154.508 62.3756 154.495 62.3491 154.509 62.2929C154.481 62.2068 154.44 62.1767 154.399 62.1466C154.399 62.1466 154.397 62.138 154.41 62.0952C154.381 62.0296 154.34 62.0068 154.299 61.984C154.299 61.984 154.306 61.9817 154.315 61.9498C154.283 61.907 154.241 61.8961 154.2 61.8852C154.2 61.8852 154.206 61.8823 154.209 61.8512C154.17 61.807 154.127 61.7938 154.085 61.7807Z" fill="white"/>
<path id="Vector_22" d="M97.5739 64.4461C97.5769 63.9174 97.5478 63.3862 97.591 62.8608C97.6463 62.1895 97.3986 61.7411 96.4159 61.6914C95.9775 61.6692 95.5337 61.7538 95.0132 61.8105C94.9341 62.6965 94.9341 63.5621 94.9341 64.4392C94.64 64.4392 94.4513 64.4392 94.2126 64.4392C94.2126 63.5568 94.2216 62.704 94.208 61.8515C94.2028 61.5281 94.1958 61.222 94.4898 61.0065C95.1795 60.9659 95.8699 60.8875 96.5587 60.8997C96.9486 60.9066 97.3335 61.0751 97.7249 61.1478C98.2135 61.2386 98.2741 61.6341 98.3366 62.0696C98.2982 62.8946 98.2982 63.658 98.2982 64.4461C97.9949 64.4461 97.7844 64.4461 97.5739 64.4461Z" fill="white"/>
<path id="Vector_23" d="M109.932 50.173C109.868 50.24 109.761 50.3691 109.647 50.3746C109.169 50.398 108.689 50.3845 108.21 50.3845C103.219 50.3845 98.2285 50.3845 93.2377 50.3845C93.0914 50.3845 92.945 50.3845 92.7466 50.3845C92.7466 48.8375 92.7466 47.3254 92.7466 45.7502C92.2066 45.7502 91.7165 45.7502 91.1815 45.7382C91.6731 45.6711 92.2094 45.6161 92.807 45.5548C92.807 47.1272 92.807 48.6332 92.807 50.1783C98.5375 50.1783 104.212 50.1783 109.932 50.173Z" fill="white"/>
<path id="Vector_24" d="M87.8624 53.5882C89.4528 53.549 91.0651 53.549 92.7246 53.549C92.7246 52.9956 92.7246 52.5076 92.7246 51.9528C102.571 51.9528 112.37 51.9528 122.245 51.9517C122.344 51.9507 122.365 51.951 122.387 51.9513C122.379 51.9885 122.372 52.0575 122.362 52.0581C122.23 52.0655 122.098 52.0632 121.966 52.0632C112.438 52.0632 102.909 52.0632 93.3806 52.0632C93.2164 52.0632 93.0523 52.0632 92.8489 52.0632C92.8489 52.579 92.8489 53.082 92.8489 53.6274C91.1683 53.6274 89.5263 53.6274 87.8624 53.5882Z" fill="white"/>
<path id="Vector_25" d="M149.238 50.1864C149.112 50.2523 148.987 50.3755 148.862 50.3758C143.616 50.3854 138.37 50.3851 133.124 50.378C133.003 50.3779 132.882 50.2869 132.772 50.1926C132.931 50.1578 133.077 50.1781 133.224 50.1781C138.498 50.1794 143.772 50.1789 149.117 50.1811C149.204 50.1845 149.221 50.1854 149.238 50.1864Z" fill="white"/>
<path id="Vector_26" d="M87.9796 39.7111C91.1139 39.6701 94.2635 39.6701 97.4499 39.6701C97.4499 36.4109 97.4499 33.1743 97.4499 29.9643C95.4643 29.9643 93.4905 29.9643 91.4708 29.9565C91.9841 29.8494 92.5413 29.682 93.1031 29.6642C94.4399 29.622 95.7789 29.6575 97.1169 29.6456C97.4384 29.6428 97.5894 29.7072 97.5878 30.0807C97.5741 33.2524 97.58 36.4242 97.579 39.596C97.5789 39.6416 97.566 39.6873 97.5562 39.752C94.3614 39.752 91.1782 39.752 87.9796 39.7111Z" fill="white"/>
<path id="Vector_27" d="M132.736 52.0635C132.869 52.0278 133.049 51.9603 133.229 51.9602C138.873 51.9546 144.518 51.9556 150.162 51.9555C150.356 51.9555 150.55 51.9555 150.8 51.9555C150.8 48.5943 150.8 45.2818 150.804 41.8879C150.817 41.7575 150.827 41.7084 150.838 41.6593C150.87 41.7709 150.931 41.8824 150.931 41.9941C150.937 45.3282 150.936 48.6623 150.936 52.0632C144.881 52.0632 138.831 52.0632 132.736 52.0635Z" fill="white"/>
<path id="Vector_28" d="M130.661 28.4577C130.051 28.2407 129.932 27.7387 130.063 27.2372C130.151 26.8967 130.501 26.6519 130.944 26.6636C131.517 26.6788 131.89 27.0288 131.898 27.6071C131.905 28.1241 131.53 28.46 130.948 28.458C130.866 28.4577 130.784 28.4588 130.661 28.4577Z" fill="white"/>
<path id="Vector_29" d="M89.3028 43.7516C88.9308 44.3012 88.4886 44.4905 87.9833 44.2873C87.2179 43.9795 87.5127 43.3595 87.5854 42.7963C88.0468 42.6656 88.5435 42.3361 88.9602 42.8313C89.1568 43.065 89.2088 43.4204 89.3028 43.7516Z" fill="white"/>
<path id="Vector_30" d="M96.5678 26.8658C97.1908 27.2697 97.3228 27.5441 97.1308 27.9792C96.9341 28.4251 96.48 28.6575 96.0028 28.5567C95.5252 28.4557 95.2527 27.8923 95.3918 27.2932C95.4793 26.9158 96.0246 26.7038 96.5678 26.8658Z" fill="white"/>
<path id="Vector_31" d="M93.4444 28.5591C92.7721 28.3573 92.5846 28.0267 92.728 27.3687C92.7984 27.0457 93.2842 26.7265 93.6411 26.7688C94.1178 26.8252 94.5597 27.3408 94.5142 27.7875C94.4692 28.2285 94.0407 28.5496 93.4444 28.5591Z" fill="white"/>
<path id="Vector_32" d="M109.802 36.8716C110.033 36.8783 110.264 36.8907 110.495 36.8908C117.993 36.8931 125.492 36.8943 133.037 36.9183C133.083 36.9409 133.083 36.9731 133.083 36.9731C131.384 36.9789 129.685 36.989 127.986 36.9896C121.947 36.9919 115.908 36.9908 109.828 36.9577C109.792 36.9068 109.797 36.8892 109.802 36.8716Z" fill="white"/>
<path id="Vector_33" d="M32.059 26.4692C32.0543 26.4288 32.0496 26.3883 32.0425 26.3174C34.0672 26.2802 36.0944 26.2721 38.1215 26.267C39.9677 26.2623 41.8138 26.2609 43.7069 26.2679C43.5711 26.3449 43.3883 26.4701 43.2052 26.4706C39.547 26.4818 35.8887 26.4786 32.1655 26.472C32.1005 26.4656 32.059 26.4692 32.059 26.4692Z" fill="white"/>
<path id="Vector_34" d="M130.107 35.106C129.996 35.1792 129.885 35.3158 129.773 35.3162C126.164 35.3273 122.555 35.3271 118.946 35.3168C118.841 35.3165 118.736 35.1893 118.67 35.1023C120.409 35.0908 122.11 35.1017 123.812 35.1048C125.844 35.1084 127.876 35.1054 129.981 35.1057C130.071 35.1061 130.089 35.1061 130.107 35.106Z" fill="white"/>
<path id="Vector_35" d="M51.7548 46.01C51.7558 46.0301 51.7569 46.0502 51.7552 46.1006C48.1115 46.1259 44.4706 46.1216 40.8297 46.1145C40.6509 46.1142 40.4721 46.0901 40.2673 46.0414C40.3929 45.9743 40.5445 45.9155 40.6961 45.9153C44.3185 45.9109 47.9409 45.9129 51.6193 45.9334C51.7018 45.9721 51.7283 45.9911 51.7548 46.01Z" fill="white"/>
<path id="Vector_36" d="M142.951 35.1073C142.853 35.1833 142.709 35.319 142.565 35.3197C140.417 35.3312 138.269 35.3235 136.122 35.323C134.816 35.3227 133.511 35.3315 132.206 35.3234C132.045 35.3224 131.884 35.2418 131.745 35.1589C131.766 35.1197 131.803 35.101 131.803 35.101C135.504 35.102 139.205 35.1031 142.951 35.1073Z" fill="white"/>
<path id="Vector_37" d="M51.7595 45.9638C51.7284 45.991 51.7019 45.9721 51.6649 45.9296C51.6585 42.733 51.6643 39.56 51.6664 36.3869C51.6686 33.0483 51.6674 29.7097 51.6913 26.3352C51.7327 26.3208 51.7477 26.344 51.76 26.3689C51.7614 32.8851 51.7627 39.4013 51.7595 45.9638Z" fill="white"/>
<path id="Vector_38" d="M32.0479 26.5151C32.059 26.4692 32.1006 26.4656 32.1196 26.474C32.136 32.844 32.1339 39.2055 32.1278 45.5671C32.1276 45.7385 32.0848 45.9099 32.0389 46.0502C32.0211 44.8807 32.0302 43.7422 32.0309 42.6036C32.0341 37.2561 32.035 31.9086 32.0479 26.5151Z" fill="white"/>
<path id="Vector_39" d="M108.23 36.5935C108.189 34.5878 108.186 32.5606 108.184 30.5333C108.184 30.339 108.184 30.1447 108.184 29.9668C106.168 29.9668 104.196 29.9668 102.178 29.9581C102.625 29.8498 103.116 29.6781 103.612 29.6643C105.015 29.6251 106.421 29.6511 107.826 29.65C108.062 29.6498 108.297 29.6198 108.295 29.9817C108.282 32.1784 108.277 34.3752 108.23 36.5935Z" fill="white"/>
<path id="Vector_40" d="M141.813 36.908C145.695 36.9025 149.577 36.8969 153.459 36.8917C154.05 36.8909 154.641 36.8916 155.312 36.8916C155.312 35.7126 155.312 34.5808 155.354 33.4322C155.395 34.5857 155.395 35.7559 155.395 36.9881C150.893 36.9881 146.399 36.9881 141.858 36.9644C141.812 36.9408 141.813 36.908 141.813 36.908Z" fill="white"/>
<path id="Vector_41" d="M118.464 44.8111C118.418 44.8631 118.335 44.9215 118.252 44.9217C116.137 44.9251 114.022 44.9228 111.907 44.9196C111.812 44.9195 111.717 44.9011 111.559 44.8847C111.559 43.8948 111.559 42.9256 111.555 41.8766C111.557 41.7511 111.562 41.7054 111.567 41.6596C111.6 41.7866 111.661 41.9133 111.663 42.0405C111.671 42.9138 111.667 43.7872 111.667 44.7261C111.862 44.7261 112.036 44.7261 112.21 44.7261C114.125 44.726 116.04 44.7245 117.956 44.7287C118.113 44.7291 118.27 44.7689 118.464 44.8111Z" fill="white"/>
<path id="Vector_42" d="M109.797 36.8268C109.797 36.8892 109.792 36.9068 109.782 36.9511C109.745 36.4198 109.697 35.8616 109.706 35.3043C109.708 35.2355 110.015 35.1151 110.181 35.1142C112.427 35.1013 114.672 35.1053 116.985 35.1091C117.053 35.113 117.099 35.1114 117.099 35.1114C116.953 35.1827 116.807 35.3153 116.66 35.3163C114.57 35.3298 112.479 35.3255 110.389 35.3255C110.211 35.3255 110.034 35.3255 109.793 35.3255C109.793 35.8396 109.793 36.3108 109.797 36.8268Z" fill="white"/>
<path id="Vector_43" d="M153.313 41.6583C153.822 41.6583 154.331 41.6583 154.874 41.6583C154.874 45.1088 154.874 48.5555 154.874 52.045C154.378 52.045 153.889 52.045 153.353 52.0139C153.311 51.9419 153.316 51.9009 153.366 51.8686C153.691 51.8796 153.974 51.8589 154.251 51.8895C154.674 51.9364 154.817 51.8014 154.814 51.3505C154.794 48.3507 154.804 45.3506 154.802 42.3507C154.802 42.1941 154.783 42.0375 154.771 41.8632C154.253 41.8632 153.792 41.8632 153.332 41.8288C153.326 41.749 153.319 41.7037 153.313 41.6583Z" fill="white"/>
<path id="Vector_44" d="M152.329 29.8106C152.276 29.882 152.197 29.9499 152.119 29.9493C149.685 29.9312 147.25 29.9064 144.816 29.8818C144.767 29.8813 144.718 29.8706 144.607 29.857C144.599 29.6932 144.59 29.5208 144.581 29.272C144.585 29.1525 144.59 29.1094 144.594 29.0663C144.642 29.2407 144.689 29.4151 144.737 29.5903C147.236 29.6514 149.769 29.7133 152.329 29.8106Z" fill="white"/>
<path id="Vector_45" d="M118.77 65.8377C118.729 64.4193 118.741 63.0081 118.718 61.5975C118.716 61.4203 118.532 61.2459 118.422 61.0328C118.828 60.9792 119.024 61.1395 119.016 61.5962C118.992 62.8823 119.013 64.1691 118.999 65.4554C118.997 65.586 118.877 65.7153 118.77 65.8377Z" fill="white"/>
<path id="Vector_46" d="M150.791 41.6541C150.827 41.7084 150.817 41.7575 150.801 41.8436C150.305 41.8807 149.817 41.8807 149.262 41.8807C149.262 44.6328 149.262 47.3639 149.25 50.1407C149.221 50.1855 149.204 50.1845 149.162 50.1769C149.138 47.3425 149.138 44.5148 149.138 41.649C149.701 41.649 150.223 41.649 150.791 41.6541Z" fill="white"/>
<path id="Vector_47" d="M153.32 51.8599C153.316 51.9009 153.311 51.9419 153.306 52.0139C153.276 51.9812 153.219 51.9176 153.219 51.854C153.219 48.4645 153.225 45.0751 153.272 41.672C153.319 41.7037 153.326 41.749 153.325 41.8738C153.319 45.2554 153.32 48.5576 153.32 51.8599Z" fill="white"/>
<path id="Vector_48" d="M132.675 44.9347C131.211 44.9301 129.747 44.9275 128.284 44.9182C128.125 44.9172 127.967 44.878 127.771 44.8388C127.83 44.789 127.928 44.7292 128.025 44.7288C129.504 44.7233 130.982 44.7233 132.46 44.7307C132.569 44.7312 132.679 44.7981 132.757 44.8812C132.709 44.9305 132.692 44.9326 132.675 44.9347Z" fill="white"/>
<path id="Vector_49" d="M85.6748 49.4272C85.6406 49.3059 85.5844 49.1391 85.5831 48.972C85.575 47.9184 85.579 46.8647 85.579 45.7778C85.0566 45.7778 84.5701 45.7778 84.02 45.7778C84.02 47.1867 84.02 48.5972 84.0088 50.0545C83.9629 50.0522 83.8983 50.0033 83.8981 49.9542C83.8927 48.5244 83.8938 47.0946 83.8938 45.6397C84.4938 45.6397 85.0614 45.6397 85.6783 45.6397C85.6783 46.8898 85.6783 48.1357 85.6748 49.4272Z" fill="white"/>
<path id="Vector_50" d="M130.12 35.0609C130.089 35.106 130.071 35.1061 130.027 35.1037C130.003 33.4572 130.021 31.8129 130 30.1691C129.995 29.7497 130.12 29.607 130.532 29.6442C130.874 29.6752 131.223 29.6378 131.566 29.6599C131.646 29.665 131.718 29.7887 131.765 29.9001C131.736 29.9423 131.697 29.9484 131.697 29.9484C131.198 29.9211 130.698 29.8938 130.132 29.8628C130.132 31.6367 130.132 33.3263 130.12 35.0609Z" fill="white"/>
<path id="Vector_51" d="M141.767 36.9025C141.813 36.9081 141.812 36.9408 141.812 36.9572C138.933 36.9779 136.054 36.9823 133.129 36.9799C133.083 36.9731 133.083 36.9409 133.083 36.9249C135.962 36.9048 138.841 36.9009 141.767 36.9025Z" fill="white"/>
<path id="Vector_52" d="M110.088 41.8651C110.084 44.4041 110.081 46.9431 110.076 49.4821C110.075 49.6618 110.052 49.8413 110.011 50.0503C109.981 47.3665 109.98 44.6533 110.008 41.8983C110.054 41.8594 110.071 41.8622 110.088 41.8651Z" fill="white"/>
<path id="Vector_53" d="M91.0898 51.7609C91.0896 51.8245 91.0421 51.9527 90.9969 51.9519C89.8544 51.9323 88.712 51.9026 87.5701 51.8627C87.4676 51.8591 87.3679 51.7744 87.239 51.7112C88.4886 51.7185 89.7661 51.742 91.0898 51.7609Z" fill="white"/>
<path id="Vector_54" d="M94.4488 61.0013C94.1959 61.2219 94.2029 61.528 94.208 61.8514C94.2217 62.7039 94.2127 63.5568 94.2127 64.4391C94.4514 64.4391 94.6401 64.4391 94.9342 64.4391C94.9342 63.562 94.9342 62.6965 94.9693 61.8072C95.0044 62.687 95.0044 63.5906 95.0044 64.5232C94.719 64.5232 94.4473 64.5232 94.1068 64.5232C94.1068 63.457 94.0996 62.3624 94.1199 61.2683C94.1216 61.1759 94.3074 61.0868 94.4488 61.0013Z" fill="white"/>
<path id="Vector_55" d="M127.024 64.5308C126.961 64.4732 126.844 64.4159 126.844 64.3579C126.834 62.8138 126.83 61.2696 126.85 59.7257C126.851 59.6174 127.05 59.4227 127.157 59.4227C127.407 59.4227 127.657 59.5167 127.843 59.5968C127.757 59.6193 127.735 59.6176 127.67 59.6082C127.421 59.6004 127.215 59.6004 126.972 59.6004C126.972 60.4317 126.965 61.2026 126.974 61.9733C126.983 62.8094 127.007 63.6454 127.018 64.4937C127.012 64.506 127.024 64.5308 127.024 64.5308Z" fill="white"/>
<path id="Vector_56" d="M151.367 61.0051C151.333 61.2516 151.202 61.4953 151.196 61.7423C151.172 62.6221 151.191 63.5029 151.201 64.4435C151.209 64.5037 151.22 64.5323 151.22 64.5323C151.158 64.4899 151.042 64.448 151.042 64.405C151.031 63.366 151.026 62.3268 151.046 61.2882C151.048 61.1916 151.229 61.0984 151.367 61.0051Z" fill="white"/>
<path id="Vector_57" d="M115.328 29.9138C114.282 29.9038 113.235 29.8939 112.114 29.8708C112.018 29.8546 111.997 29.8515 111.976 29.8483C112 29.7845 112.026 29.6646 112.05 29.6649C113.119 29.6776 114.188 29.701 115.295 29.7689C115.33 29.8478 115.329 29.8808 115.328 29.9138Z" fill="white"/>
<path id="Vector_58" d="M127.241 44.8656C126.943 44.9711 126.604 45.0731 126.268 45.1834C125.55 45.4187 125 45.8894 124.48 46.426C124.762 46.0768 125.033 45.6858 125.399 45.4332C125.926 45.0697 126.497 44.723 127.241 44.8656Z" fill="white"/>
<path id="Vector_59" d="M154.508 62.4224C154.539 62.8094 154.576 63.243 154.599 63.6772C154.612 63.9204 154.601 64.1648 154.601 64.4419C154.836 64.4419 155.025 64.4419 155.338 64.4419C155.288 63.5099 155.238 62.583 155.193 61.6126C155.421 61.7331 155.423 61.9447 155.412 62.2084C155.379 62.9758 155.4 63.7454 155.4 64.5317C155.091 64.5317 154.82 64.5317 154.508 64.5317C154.508 63.8398 154.508 63.1545 154.508 62.4224Z" fill="white"/>
<path id="Vector_60" d="M125.92 54.6194C126.502 54.6578 127.125 54.7333 127.747 54.7282C128.585 54.7213 129.422 54.6524 130.29 54.628C129.972 54.7119 129.624 54.8202 129.272 54.8349C128.552 54.865 127.829 54.8696 127.11 54.8352C126.724 54.8167 126.344 54.6955 125.92 54.6194Z" fill="white"/>
<path id="Vector_61" d="M91.1409 45.9657C91.1712 45.9765 91.2245 46.0334 91.2244 46.0902C91.2189 47.9277 91.2082 49.7652 91.1705 51.6325C91.1414 49.7788 91.1402 47.8953 91.1409 45.9657Z" fill="white"/>
<path id="Vector_62" d="M127.069 64.5389C127.024 64.5308 127.012 64.506 127.063 64.4895C127.303 64.4634 127.493 64.4539 127.713 64.4428C127.713 62.7996 127.713 61.2077 127.713 59.6159C127.735 59.6176 127.757 59.6194 127.812 59.6177C127.845 61.2528 127.845 62.8913 127.845 64.547C127.567 64.547 127.341 64.547 127.069 64.5389Z" fill="white"/>
<path id="Vector_63" d="M149.541 62.1194C149.585 62.1922 149.631 62.3084 149.677 62.4219C148.719 62.479 147.828 62.5321 146.892 62.5809C147.102 62.4763 147.35 62.3112 147.609 62.2891C148.142 62.2439 148.681 62.2816 149.217 62.2703C149.326 62.2679 149.434 62.2004 149.541 62.1194Z" fill="white"/>
<path id="Vector_64" d="M140.731 62.1448C140.771 62.216 140.805 62.3289 140.834 62.4259C139.922 62.478 139.071 62.5267 138.177 62.5751C138.355 62.4753 138.57 62.3115 138.799 62.2883C139.437 62.2232 140.082 62.2163 140.731 62.1448Z" fill="white"/>
<path id="Vector_65" d="M111.972 29.8947C111.997 29.8515 112.018 29.8546 112.071 29.8651C112.073 30.3614 112.045 30.8504 112.008 31.4832C113.272 31.4832 114.468 31.4832 115.696 31.5089C114.497 31.5346 113.267 31.5346 111.969 31.5346C111.969 31.0046 111.969 30.4729 111.972 29.8947Z" fill="white"/>
<path id="Vector_66" d="M38.4676 6.60436C38.1466 6.7265 37.8078 6.82764 37.4629 6.89869C37.0001 6.99403 36.5324 7.06611 36.043 7.12823C36.8284 6.92884 37.6377 6.7494 38.4676 6.60436Z" fill="white"/>
<path id="Vector_67" d="M112.89 61.1428C112.063 61.1455 111.224 61.1097 110.344 61.0765C110.914 60.6623 112.316 60.6761 112.89 61.1428Z" fill="white"/>
<path id="Vector_68" d="M131.693 29.9948C131.697 29.9484 131.736 29.9423 131.756 29.9434C131.782 31.6327 131.789 33.3208 131.799 35.055C131.803 35.101 131.766 35.1197 131.745 35.1178C131.713 33.4243 131.701 31.7328 131.693 29.9948Z" fill="white"/>
<path id="Vector_69" d="M132.68 44.9801C132.692 44.9326 132.708 44.9305 132.751 44.9246C132.78 46.6124 132.783 48.304 132.787 50.0431C132.755 49.9212 132.694 49.7517 132.693 49.582C132.684 48.0632 132.686 46.5444 132.68 44.9801Z" fill="white"/>
<path id="Vector_70" d="M92.866 61.1486C92.0136 61.1405 91.1482 61.0936 90.2588 61.0154C91.0133 60.675 91.8063 60.778 92.5968 60.9145C92.6906 60.9307 92.768 61.0423 92.866 61.1486Z" fill="white"/>
<path id="Vector_71" d="M149.913 64.5392C150.043 64.4974 150.215 64.4542 150.44 64.3978C150.44 63.7038 150.44 62.9902 150.441 62.2305C150.458 62.1889 150.488 62.1931 150.488 62.1981C150.506 62.952 150.529 63.7061 150.514 64.4595C150.513 64.4893 150.15 64.5118 149.913 64.5392Z" fill="white"/>
<path id="Vector_72" d="M107.488 61.0458C107.241 61.0547 106.975 60.9968 106.713 61.0097C106.117 61.0388 105.522 61.1027 104.91 61.1175C105.742 60.66 106.603 60.6995 107.488 61.0458Z" fill="white"/>
<path id="Vector_73" d="M71.2512 46.4235C71.6688 45.9462 71.5021 45.3785 71.4797 44.8413C71.4593 44.3536 71.4066 43.8672 71.3838 43.3462C71.4674 43.6788 71.5725 44.0433 71.5945 44.4127C71.6266 44.9515 71.62 45.4954 71.5823 46.0338C71.5724 46.1753 71.3876 46.3047 71.2512 46.4235Z" fill="white"/>
<path id="Vector_74" d="M92.5767 62.271C92.5182 62.3413 92.4151 62.4729 92.308 62.4763C91.5858 62.4989 90.8627 62.4944 90.0947 62.488C90.2606 62.4113 90.4695 62.2975 90.683 62.2879C91.2978 62.2604 91.9144 62.275 92.5767 62.271Z" fill="white"/>
<path id="Vector_75" d="M141.655 64.4678C141.613 63.71 141.614 62.9439 141.616 62.1317C141.681 62.166 141.8 62.2456 141.802 62.3271C141.813 63.0114 141.805 63.6961 141.796 64.3806C141.795 64.4074 141.732 64.4333 141.655 64.4678Z" fill="white"/>
<path id="Vector_76" d="M102.433 60.9849C102.366 61.0135 102.3 61.0655 102.233 61.0672C101.535 61.0849 100.837 61.0945 100.096 61.0961C100.753 60.645 101.501 60.7591 102.304 60.9077C102.383 60.943 102.408 60.9639 102.433 60.9849Z" fill="white"/>
<path id="Vector_77" d="M145.815 61.086C145.243 61.0989 144.704 61.1001 144.166 61.0817C144.019 61.0767 143.874 61.0127 143.746 60.9374C143.765 60.899 143.8 60.8873 143.8 60.8873C144.353 60.8882 144.906 60.8781 145.458 60.8981C145.59 60.9028 145.718 61.008 145.815 61.086Z" fill="white"/>
<path id="Vector_78" d="M27.3129 45.459C28.0694 45.5829 28.8431 45.7367 29.6501 45.8827C28.8512 46.0366 28.0814 45.8191 27.3129 45.459Z" fill="white"/>
<path id="Vector_79" d="M39.6617 45.9754C39.1406 46.0876 38.597 46.1653 38.0206 46.2268C38.5383 46.1208 39.0888 46.0308 39.6617 45.9754Z" fill="white"/>
<path id="Vector_80" d="M54.6123 26.3764C54.0748 26.3687 53.499 26.3437 52.8905 26.2796C52.8577 26.2403 52.8585 26.193 52.8585 26.193C53.4304 26.2483 54.0022 26.3037 54.6123 26.3764Z" fill="white"/>
<path id="Vector_81" d="M92.0397 36.537C93.2992 36.5027 94.5739 36.5101 95.8708 36.5537C94.6136 36.5861 93.3342 36.5824 92.0397 36.537Z" fill="white"/>
<path id="Vector_82" d="M62.7625 29.5243C62.2192 29.2337 61.6576 28.9137 61.0667 28.5912C61.7608 28.5999 62.218 29.1122 62.7625 29.5243Z" fill="white"/>
<path id="Vector_83" d="M126.766 53.0625C126.255 52.9874 125.711 52.897 125.135 52.8001C125.665 52.7611 126.228 52.7151 126.766 53.0625Z" fill="white"/>
<path id="Vector_84" d="M85.7616 36.4169C85.6961 35.9265 85.6119 35.3957 85.5811 34.8619C85.5499 34.322 85.5717 33.7791 85.5705 33.1573C85.5754 33.0536 85.58 33.0301 85.5847 33.0066C85.6151 33.0398 85.6712 33.0723 85.6723 33.1065C85.7069 34.196 85.7362 35.2856 85.7616 36.4169Z" fill="white"/>
<path id="Vector_85" d="M58.6964 27.4339C58.1765 27.2956 57.6364 27.1267 57.0909 26.9282C57.6158 27.0669 58.146 27.2351 58.6964 27.4339Z" fill="white"/>
<path id="Vector_86" d="M127.728 52.0016C128.755 51.9602 129.804 51.9539 130.853 51.9646C130.928 51.9654 131.002 52.0898 131.034 52.1602C130.847 52.1302 130.703 52.07 130.559 52.0676C129.622 52.0517 128.686 52.0484 127.728 52.0016Z" fill="white"/>
<path id="Vector_87" d="M103.545 36.9309C104.526 36.8913 105.528 36.8913 106.606 36.8913C106.542 37.0632 106.5 37.1745 106.42 37.2878C106.47 36.9801 106.275 36.9883 106.061 36.9881C105.228 36.9871 104.396 36.9771 103.545 36.9309Z" fill="white"/>
<path id="Vector_88" d="M120.479 45.2875C119.998 45.1802 119.498 45.0409 118.977 44.8828C119.512 44.7829 120.011 44.9261 120.479 45.2875Z" fill="white"/>
<path id="Vector_89" d="M151.266 64.5398C151.22 64.5322 151.209 64.5036 151.214 64.4893C151.431 64.475 151.641 64.475 151.956 64.475C151.956 63.5657 151.956 62.6929 151.995 61.8008C152.034 62.6968 152.034 63.612 152.034 64.5474C151.763 64.5474 151.537 64.5474 151.266 64.5398Z" fill="white"/>
<path id="Vector_90" d="M122.381 51.906C122.365 51.9511 122.344 51.9508 122.291 51.9466C122.271 50.8068 122.284 49.671 122.334 48.5134C122.372 49.6147 122.374 50.7377 122.381 51.906Z" fill="white"/>
<path id="Vector_91" d="M104.372 37.9896C104.401 38.0373 104.382 38.1205 104.366 38.1202C103.832 38.109 103.298 38.0897 102.756 38.0338C103.274 37.9927 103.8 37.9894 104.372 37.9896Z" fill="white"/>
<path id="Vector_92" d="M117.473 60.8787C116.956 60.9489 116.401 61.0011 115.827 61.0179C116.329 60.6659 116.883 60.7821 117.473 60.8787Z" fill="white"/>
<path id="Vector_93" d="M97.5482 64.4718C97.7843 64.446 97.9948 64.446 98.2982 64.446C98.2982 63.658 98.2982 62.8946 98.3331 62.1079C98.368 62.8877 98.368 63.6908 98.368 64.5716C98.0781 64.5462 97.8003 64.5219 97.5482 64.4718Z" fill="white"/>
<path id="Vector_94" d="M84.0199 33.1463C84.0195 34.1384 84.0192 35.1305 84.0081 36.1694C83.9628 36.1505 83.8979 36.0849 83.8979 36.0193C83.8991 35.0298 83.9087 34.0403 83.9623 33.064C84.0121 33.1002 84.016 33.1233 84.0199 33.1463Z" fill="white"/>
<path id="Vector_95" d="M84.0643 33.1422C84.0159 33.1232 84.012 33.1002 84.0011 33.0428C84.5081 32.9845 85.0221 32.9605 85.5604 32.9716C85.5799 33.03 85.5752 33.0535 85.5657 33.1126C85.0768 33.1449 84.5928 33.1415 84.0643 33.1422Z" fill="white"/>
<path id="Vector_96" d="M110.133 41.8592C110.071 41.8622 110.054 41.8594 110.012 41.8518C110.063 41.7815 110.137 41.6626 110.216 41.6591C110.635 41.6406 111.055 41.6512 111.52 41.6556C111.562 41.7053 111.557 41.7511 111.551 41.8314C111.093 41.8617 110.635 41.8575 110.133 41.8592Z" fill="white"/>
<path id="Vector_97" d="M144.548 29.063C144.59 29.1094 144.585 29.1525 144.575 29.2278C144.082 29.2569 143.595 29.2538 143.062 29.2488C143.12 29.1839 143.219 29.0721 143.325 29.0664C143.716 29.0453 144.109 29.0591 144.548 29.063Z" fill="white"/>
<path id="Vector_98" d="M102.443 60.9398C102.408 60.9639 102.383 60.943 102.346 60.8999C102.337 60.5978 102.34 60.3179 102.34 60.0381C102.341 59.338 102.535 59.2216 103.226 59.5475C102.984 59.5889 102.744 59.5889 102.452 59.5889C102.452 60.0582 102.452 60.4764 102.443 60.9398Z" fill="white"/>
<path id="Vector_99" d="M154.047 30.6052C153.576 30.4347 153.131 30.2317 152.67 30.0023C153.23 29.9316 153.673 30.1986 154.047 30.6052Z" fill="white"/>
<path id="Vector_100" d="M130.511 59.7563C130.225 59.7008 129.955 59.6142 129.592 59.4975C129.657 59.7991 129.693 59.965 129.721 60.1726C129.626 59.9664 129.539 59.7185 129.428 59.4022C129.768 59.4022 130 59.365 130.21 59.4164C130.333 59.4465 130.422 59.6175 130.511 59.7563Z" fill="white"/>
<path id="Vector_101" d="M143.617 64.4924C144.259 64.46 144.93 64.46 145.651 64.46C145.662 64.2686 145.672 64.1125 145.679 63.8818C145.68 63.7651 145.682 63.7231 145.685 63.681C145.726 63.9556 145.768 64.2301 145.813 64.5247C145.049 64.5247 144.347 64.5247 143.617 64.4924Z" fill="white"/>
<path id="Vector_102" d="M122.119 63.1881C122.138 63.1598 122.203 63.084 122.268 63.0844C123.147 63.0894 124.026 63.105 124.93 63.153C124.024 63.184 123.094 63.1799 122.119 63.1881Z" fill="white"/>
<path id="Vector_103" d="M134.208 59.8146C133.889 59.516 133.276 59.4882 132.903 59.7918C132.861 59.4943 133.005 59.3443 133.317 59.4054C133.648 59.4705 134.14 59.1655 134.208 59.8146Z" fill="white"/>
<path id="Vector_104" d="M145.638 63.6771C145.682 63.7231 145.68 63.7651 145.675 63.8387C145.197 63.8299 144.722 63.7897 144.228 63.7181C144.669 63.6822 145.131 63.6777 145.638 63.6771Z" fill="white"/>
<path id="Vector_105" d="M143.796 60.8432C143.8 60.8873 143.765 60.899 143.746 60.8975C143.711 60.6221 143.695 60.3481 143.675 60.0117C143.438 60.0117 143.216 60.0117 142.95 60.0053C143.188 59.5748 143.534 59.8743 143.792 59.8431C143.792 60.2101 143.792 60.5046 143.796 60.8432Z" fill="white"/>
<path id="Vector_106" d="M86.1869 61.4477C85.908 61.3854 85.6011 61.3203 85.3401 61.1737C85.1202 61.0501 84.9764 60.8281 85.2741 60.5844C85.3094 60.9522 85.4576 61.172 85.8467 61.215C85.9632 61.2278 86.0685 61.3419 86.1869 61.4477Z" fill="white"/>
<path id="Vector_107" d="M117.11 35.0657C117.099 35.1114 117.053 35.113 117.031 35.1065C116.982 34.2775 116.955 33.4548 116.931 32.5898C116.999 33.0923 117.073 33.6362 117.122 34.1825C117.146 34.4595 117.123 34.7407 117.11 35.0657Z" fill="white"/>
<path id="Vector_108" d="M25.9842 51.6732C25.6725 51.9464 25.3608 52.2195 25.0162 52.4746C25.2941 52.1668 25.6048 51.877 25.9485 51.6009C25.9824 51.6341 25.9833 51.6537 25.9842 51.6732Z" fill="white"/>
<path id="Vector_109" d="M29.0603 49.3515C28.7261 49.6235 28.3765 49.8655 27.9921 50.0924C28.3198 49.8254 28.6823 49.5735 29.0603 49.3515Z" fill="white"/>
<path id="Vector_110" d="M66.9449 33.1832C66.6531 32.9379 66.3593 32.6574 66.058 32.3435C66.348 32.5895 66.6454 32.8688 66.9449 33.1832Z" fill="white"/>
<path id="Vector_111" d="M30.1834 9.46912C29.8745 9.66847 29.5414 9.89094 29.1716 10.1077C29.4763 9.89871 29.8178 9.69548 30.1834 9.46912Z" fill="white"/>
<path id="Vector_112" d="M137.477 59.8916C137.449 59.7013 137.418 59.5533 137.161 59.5953C136.989 59.6233 136.814 59.628 136.595 59.6334C136.849 59.1725 137.239 59.4863 137.63 59.4121C137.578 59.6299 137.546 59.7582 137.477 59.8916Z" fill="white"/>
<path id="Vector_113" d="M122.062 47.1396C121.855 46.8426 121.653 46.5078 121.468 46.1391C121.835 46.3465 122.061 46.6599 122.062 47.1396Z" fill="white"/>
<path id="Vector_114" d="M124.088 59.5444C123.732 59.5993 123.391 59.6125 123.005 59.6118C123.314 59.2377 123.709 59.3816 124.088 59.5444Z" fill="white"/>
<path id="Vector_115" d="M125.724 62.9229C125.544 62.614 125.368 62.2704 125.224 61.901C125.495 62.1754 125.786 62.4507 125.724 62.9229Z" fill="white"/>
<path id="Vector_116" d="M28.9179 10.2084C28.6791 10.4136 28.4041 10.6206 28.0929 10.8172C28.3317 10.6078 28.6066 10.409 28.9179 10.2084Z" fill="white"/>
<path id="Vector_117" d="M155.082 32.1597C154.894 31.8439 154.711 31.4907 154.567 31.1107C154.765 31.43 154.926 31.7761 155.082 32.1597Z" fill="white"/>
<path id="Vector_118" d="M25.9415 12.4895C25.796 12.6879 25.6155 12.8884 25.4 13.0824C25.5455 12.8811 25.726 12.6863 25.9415 12.4895Z" fill="white"/>
<path id="Vector_119" d="M65.6427 31.8013C65.4277 31.6495 65.1978 31.4677 64.9668 31.2511C65.1864 31.4013 65.4071 31.5863 65.6427 31.8013Z" fill="white"/>
<path id="Vector_120" d="M108.286 61.5436C108.02 61.4335 107.743 61.2912 107.486 61.1145C107.894 60.9873 108.052 61.3075 108.286 61.5436Z" fill="white"/>
<path id="Vector_121" d="M64.0611 30.407C63.8314 30.2968 63.5921 30.1538 63.3621 29.9762C63.598 30.0857 63.8249 30.2299 64.0611 30.407Z" fill="white"/>
<path id="Vector_122" d="M27.9269 50.0736C27.7527 50.2469 27.5432 50.421 27.2983 50.5844C27.4725 50.4072 27.6821 50.2408 27.9269 50.0736Z" fill="white"/>
<path id="Vector_123" d="M121.445 62.5785C121.368 62.8291 121.257 63.0914 121.112 63.3628C121.189 63.1114 121.3 62.8507 121.445 62.5785Z" fill="white"/>
<path id="Vector_124" d="M17.6152 20.7304C17.4994 20.9199 17.352 21.1203 17.1689 21.3131C17.2834 21.1175 17.4335 20.9294 17.6152 20.7304Z" fill="white"/>
<path id="Vector_125" d="M26.0161 51.664C25.9834 51.6537 25.9825 51.6341 25.9797 51.5853C26.1577 51.4071 26.3375 51.2582 26.5477 51.1351C26.4014 51.3256 26.2247 51.4902 26.0161 51.664Z" fill="white"/>
<path id="Vector_126" d="M103.988 61.8822C103.971 62.1193 103.918 62.3649 103.846 62.6415C103.869 62.412 103.91 62.1514 103.988 61.8822Z" fill="white"/>
<path id="Vector_127" d="M24.4478 13.9399C24.3058 14.1443 24.132 14.3287 23.9254 14.4935C24.067 14.2893 24.2415 14.1046 24.4478 13.9399Z" fill="white"/>
<path id="Vector_128" d="M15.5216 22.8653C15.3796 23.0704 15.2058 23.2557 14.9998 23.4199C15.1416 23.2144 15.3156 23.0299 15.5216 22.8653Z" fill="white"/>
<path id="Vector_129" d="M20.778 17.6092C20.636 17.814 20.4622 17.9989 20.2559 18.1634C20.3976 17.9585 20.5718 17.7739 20.778 17.6092Z" fill="white"/>
<path id="Vector_130" d="M21.2846 17.0612C21.1688 17.2505 21.0213 17.4508 20.8383 17.6438C20.9528 17.4484 21.1029 17.2602 21.2846 17.0612Z" fill="white"/>
<path id="Vector_131" d="M19.19 19.197C19.0785 19.3889 18.9344 19.5616 18.7552 19.7264C18.866 19.5383 19.0116 19.3581 19.19 19.197Z" fill="white"/>
<path id="Vector_132" d="M101.507 30.0655C101.333 30.1986 101.124 30.3406 100.881 30.4616C101.055 30.3185 101.264 30.1965 101.507 30.0655Z" fill="white"/>
<path id="Vector_133" d="M117.441 30.4225C117.249 30.3363 117.028 30.2266 116.783 30.0994C116.976 30.1875 117.194 30.2932 117.441 30.4225Z" fill="white"/>
<path id="Vector_134" d="M52.8215 26.1772C52.8586 26.193 52.8577 26.2403 52.8563 26.264C52.6526 26.2875 52.4503 26.2873 52.2047 26.2513C52.162 26.1759 52.1627 26.1363 52.1634 26.0967C52.3704 26.1183 52.5774 26.1398 52.8215 26.1772Z" fill="white"/>
<path id="Vector_135" d="M22.8596 15.5277C22.748 15.7195 22.6038 15.892 22.4246 16.0571C22.5353 15.8692 22.6811 15.6888 22.8596 15.5277Z" fill="white"/>
<path id="Vector_136" d="M52.1265 26.0884C52.1628 26.1363 52.1621 26.1759 52.1618 26.2453C52.0475 26.2919 51.9328 26.3088 51.7891 26.3473C51.7477 26.344 51.7327 26.3208 51.697 26.289C51.8158 26.2125 51.9527 26.1463 52.1265 26.0884Z" fill="white"/>
<path id="Vector_137" d="M17.1085 21.2785C16.9667 21.4831 16.793 21.6678 16.5867 21.8324C16.7282 21.6278 16.9024 21.4432 17.1085 21.2785Z" fill="white"/>
<path id="Vector_138" d="M22.3648 16.0225C22.2231 16.2266 22.0495 16.4108 21.8429 16.5758C21.9842 16.372 22.1586 16.1873 22.3648 16.0225Z" fill="white"/>
<path id="Vector_139" d="M13.9337 24.453C13.8224 24.645 13.6783 24.818 13.4994 24.9824C13.61 24.794 13.7555 24.614 13.9337 24.453Z" fill="white"/>
<path id="Vector_140" d="M63.3608 29.9165C63.1747 29.8362 62.9727 29.7252 62.7727 29.579C62.9648 29.6578 63.1549 29.7718 63.3608 29.9165Z" fill="white"/>
<path id="Vector_141" d="M28.0255 10.8042C27.925 10.9267 27.7888 11.0515 27.6193 11.1759C27.7205 11.0525 27.8551 10.9295 28.0255 10.8042Z" fill="white"/>
<path id="Vector_142" d="M85.3358 59.5102C85.1919 59.6302 85.012 59.7467 84.8083 59.827C84.9564 59.6962 85.1281 59.6014 85.3358 59.5102Z" fill="white"/>
<path id="Vector_143" d="M84.347 60.3037C84.4009 60.6272 84.4148 60.9673 84.4081 61.3502C84.3606 61.0354 84.3338 60.6779 84.347 60.3037Z" fill="white"/>
<path id="Vector_144" d="M104.778 61.0919C104.662 61.2385 104.51 61.38 104.322 61.5038C104.438 61.353 104.59 61.2199 104.778 61.0919Z" fill="white"/>
<path id="Vector_145" d="M116.389 29.9427C116.25 29.958 116.076 29.9618 115.865 29.9247C115.829 29.8439 115.83 29.8041 115.831 29.7642C116.005 29.8199 116.179 29.8755 116.389 29.9427Z" fill="white"/>
<path id="Vector_146" d="M154.538 31.0072C154.382 30.9269 154.204 30.8148 154.019 30.6663C154.18 30.7451 154.348 30.8603 154.538 31.0072Z" fill="white"/>
<path id="Vector_147" d="M121.077 45.686C120.934 45.6109 120.774 45.5071 120.612 45.3701C120.761 45.4437 120.911 45.5505 121.077 45.686Z" fill="white"/>
<path id="Vector_148" d="M100.024 61.0824C99.8769 61.2027 99.6933 61.3251 99.4857 61.4125C99.637 61.2798 99.8121 61.1822 100.024 61.0824Z" fill="white"/>
<path id="Vector_149" d="M121.488 46.0744C121.342 45.998 121.194 45.886 121.068 45.7417C121.221 45.8192 121.354 45.929 121.488 46.0744Z" fill="white"/>
<path id="Vector_150" d="M136.526 59.6721C136.511 59.9002 136.466 60.1566 136.398 60.4399C136.415 60.2114 136.456 59.9559 136.526 59.6721Z" fill="white"/>
<path id="Vector_151" d="M125.156 61.6441C125.039 61.4991 124.918 61.3175 124.828 61.1087C124.957 61.2568 125.055 61.4321 125.156 61.6441Z" fill="white"/>
<path id="Vector_152" d="M100.418 30.7349C100.342 30.8828 100.23 31.0306 100.086 31.1563C100.164 31.0011 100.273 30.8679 100.418 30.7349Z" fill="white"/>
<path id="Vector_153" d="M15.9197 22.4699C15.8409 22.6288 15.7289 22.7684 15.582 22.8998C15.6603 22.7446 15.7734 22.5976 15.9197 22.4699Z" fill="white"/>
<path id="Vector_154" d="M24.8456 13.5449C24.7667 13.7033 24.6544 13.8425 24.5072 13.9745C24.5856 13.8201 24.699 13.6728 24.8456 13.5449Z" fill="white"/>
<path id="Vector_155" d="M26.93 50.7679C26.8567 50.8995 26.7472 51.0305 26.6023 51.1659C26.6758 51.0359 26.7849 50.9016 26.93 50.7679Z" fill="white"/>
<path id="Vector_156" d="M115.789 29.7575C115.83 29.8041 115.829 29.844 115.829 29.9137C115.69 29.942 115.549 29.9405 115.369 29.9263C115.329 29.8807 115.33 29.8478 115.332 29.79C115.47 29.7603 115.609 29.7555 115.789 29.7575Z" fill="white"/>
<path id="Vector_157" d="M26.571 12.0049C26.453 12.143 26.2981 12.2748 26.1082 12.4004C26.2268 12.2623 26.3805 12.1305 26.571 12.0049Z" fill="white"/>
<path id="Vector_158" d="M19.5893 18.8008C19.5105 18.9594 19.3984 19.0988 19.2513 19.2305C19.3296 19.0757 19.4428 18.9287 19.5893 18.8008Z" fill="white"/>
<path id="Vector_159" d="M121.847 61.776C121.804 61.9497 121.729 62.1384 121.615 62.3156C121.655 62.1331 121.734 61.962 121.847 61.776Z" fill="white"/>
<path id="Vector_160" d="M118.216 31.3968C118.098 31.2757 117.978 31.1176 117.884 30.9255C118.011 31.0475 118.112 31.2036 118.216 31.3968Z" fill="white"/>
<path id="Vector_161" d="M14.3331 24.0565C14.2541 24.2152 14.142 24.3547 13.9951 24.4863C14.0735 24.3314 14.1867 24.1843 14.3331 24.0565Z" fill="white"/>
<path id="Vector_162" d="M23.2591 15.1314C23.1799 15.2898 23.0675 15.4288 22.9203 15.5609C22.9989 15.4066 23.1124 15.2593 23.2591 15.1314Z" fill="white"/>
<path id="Vector_163" d="M130.862 52.3679C130.82 52.4894 130.744 52.6231 130.631 52.7565C130.672 52.6308 130.751 52.5055 130.862 52.3679Z" fill="white"/>
<path id="Vector_164" d="M64.7629 30.999C64.6357 30.9544 64.5059 30.8726 64.3728 30.7561C64.4997 30.8016 64.63 30.8816 64.7629 30.999Z" fill="white"/>
<path id="Vector_165" d="M21.6753 16.716C21.5975 16.8547 21.4888 16.9727 21.347 17.0716C21.4241 16.9334 21.5343 16.8143 21.6753 16.716Z" fill="white"/>
<path id="Vector_166" d="M117.84 30.8127C117.727 30.7498 117.591 30.6554 117.484 30.5258C117.615 30.5875 117.717 30.6844 117.84 30.8127Z" fill="white"/>
<path id="Vector_167" d="M20.0884 18.3027C20.0106 18.4416 19.9019 18.5598 19.7603 18.6585C19.8374 18.5201 19.9475 18.401 20.0884 18.3027Z" fill="white"/>
<path id="Vector_168" d="M14.8321 23.5586C14.7542 23.6981 14.6455 23.8169 14.5042 23.9152C14.5814 23.7758 14.6913 23.6568 14.8321 23.5586Z" fill="white"/>
<path id="Vector_169" d="M64.4003 30.6981C64.2688 30.6558 64.1564 30.5804 64.0557 30.4708C64.1846 30.5127 64.302 30.5889 64.4003 30.6981Z" fill="white"/>
<path id="Vector_170" d="M13.2452 25.1452C13.1674 25.2848 13.0587 25.4036 12.9174 25.502C12.9946 25.3625 13.1045 25.2435 13.2452 25.1452Z" fill="white"/>
<path id="Vector_171" d="M122.83 59.8037C122.82 59.9496 122.776 60.108 122.697 60.2808C122.707 60.1355 122.751 59.9759 122.83 59.8037Z" fill="white"/>
<path id="Vector_172" d="M18.5016 19.8893C18.4237 20.0285 18.315 20.1469 18.1735 20.2455C18.2507 20.1066 18.3607 19.9876 18.5016 19.8893Z" fill="white"/>
<path id="Vector_173" d="M23.7581 14.6335C23.6802 14.7721 23.5715 14.8899 23.4297 14.9889C23.5068 14.8509 23.617 14.7318 23.7581 14.6335Z" fill="white"/>
<path id="Vector_174" d="M18.0057 20.3852C17.928 20.5242 17.8193 20.6425 17.6777 20.7412C17.7549 20.6026 17.8648 20.4835 18.0057 20.3852Z" fill="white"/>
<path id="Vector_175" d="M100.816 30.4371C100.741 30.5473 100.632 30.6571 100.486 30.7532C100.561 30.6387 100.672 30.5377 100.816 30.4371Z" fill="white"/>
<path id="Vector_176" d="M16.4188 21.9719C16.341 22.1112 16.2322 22.2298 16.0908 22.3283C16.1681 22.1892 16.278 22.0702 16.4188 21.9719Z" fill="white"/>
<path id="Vector_177" d="M67.3412 33.675C67.2445 33.6313 67.1459 33.551 67.0481 33.4343C67.1457 33.4781 67.2426 33.5582 67.3412 33.675Z" fill="white"/>
<path id="Vector_178" d="M25.3433 13.0467C25.2661 13.185 25.158 13.3027 25.0166 13.4019C25.093 13.2643 25.2027 13.1452 25.3433 13.0467Z" fill="white"/>
<path id="Vector_179" d="M12.7493 25.6411C12.6715 25.7806 12.5628 25.8995 12.4215 25.9978C12.4988 25.8583 12.6086 25.7394 12.7493 25.6411Z" fill="white"/>
<path id="Vector_180" d="M24.1663 53.26C24.1214 53.3557 24.0465 53.4646 23.9354 53.5687C23.9783 53.4669 24.0573 53.37 24.1663 53.26Z" fill="white"/>
<path id="Vector_181" d="M24.6611 52.7632C24.6133 52.8567 24.5371 52.9633 24.4244 53.0622C24.4696 52.9617 24.5511 52.869 24.6611 52.7632Z" fill="white"/>
<path id="Vector_182" d="M124.418 46.4147C124.413 46.5224 124.373 46.6417 124.293 46.7519C124.296 46.6373 124.34 46.5317 124.418 46.4147Z" fill="white"/>
<path id="Vector_183" d="M27.2368 50.5688C27.1873 50.6539 27.1047 50.7406 26.9952 50.7968C27.0468 50.701 27.1253 50.6357 27.2368 50.5688Z" fill="white"/>
<path id="Vector_184" d="M84.5528 59.9999C84.5431 60.0991 84.5016 60.2074 84.4221 60.3028C84.4297 60.1964 84.4754 60.1027 84.5528 59.9999Z" fill="white"/>
<path id="Vector_185" d="M13.4344 24.9528C13.4262 25.0414 13.3823 25.1136 13.3029 25.1803C13.3111 25.0954 13.3549 25.0159 13.4344 24.9528Z" fill="white"/>
<path id="Vector_186" d="M146.723 62.5975C146.718 62.6322 146.688 62.6707 146.645 62.7257C146.655 62.6953 146.676 62.6483 146.723 62.5975Z" fill="white"/>
<path id="Vector_187" d="M118.383 31.9492C118.331 31.8642 118.285 31.7426 118.276 31.6008C118.337 31.6913 118.363 31.8019 118.383 31.9492Z" fill="white"/>
<path id="Vector_188" d="M66.0877 32.2952C65.9886 32.2472 65.912 32.1694 65.843 32.0575C65.9372 32.1041 66.0237 32.1848 66.0877 32.2952Z" fill="white"/>
<path id="Vector_189" d="M99.4261 61.3894C99.4209 61.476 99.3839 61.5707 99.3101 61.6737C99.3136 61.5871 99.3539 61.4923 99.4261 61.3894Z" fill="white"/>
<path id="Vector_190" d="M84.385 61.4277C84.4505 61.4326 84.516 61.4743 84.5854 61.551C84.5213 61.5456 84.4531 61.505 84.385 61.4277Z" fill="white"/>
<path id="Vector_191" d="M18.6907 19.6968C18.6823 19.7852 18.6382 19.8572 18.5587 19.9242C18.5672 19.8396 18.611 19.7601 18.6907 19.6968Z" fill="white"/>
<path id="Vector_192" d="M64.9945 31.1915C64.8994 31.1837 64.8226 31.1421 64.7531 31.0659C64.8445 31.0734 64.9287 31.1156 64.9945 31.1915Z" fill="white"/>
<path id="Vector_193" d="M12.3799 26.2228C12.3689 26.2602 12.3241 26.2607 12.3045 26.2717C12.3017 26.1855 12.3186 26.0883 12.363 25.9834C12.3906 26.0456 12.3907 26.1155 12.3799 26.2228Z" fill="white"/>
<path id="Vector_194" d="M84.7542 59.8009C84.7416 59.8749 84.7008 59.957 84.6218 60.0156C84.6311 59.931 84.6785 59.8701 84.7542 59.8009Z" fill="white"/>
<path id="Vector_195" d="M124.232 46.7775C124.248 46.8431 124.239 46.935 124.204 47.052C124.187 46.986 124.197 46.895 124.232 46.7775Z" fill="white"/>
<path id="Vector_196" d="M124.162 59.7586C124.111 59.739 124.073 59.6893 124.055 59.6122C124.125 59.5944 124.175 59.604 124.225 59.6136C124.208 59.6519 124.192 59.6901 124.162 59.7586Z" fill="white"/>
<path id="Vector_197" d="M24.3655 53.0573C24.3509 53.1215 24.3077 53.1948 24.2273 53.2606C24.2391 53.1908 24.288 53.1286 24.3655 53.0573Z" fill="white"/>
<path id="Vector_198" d="M24.9619 52.4645C24.9443 52.5266 24.8997 52.6011 24.8196 52.6657C24.8344 52.5962 24.8847 52.5365 24.9619 52.4645Z" fill="white"/>
<path id="Vector_199" d="M16.5228 21.8228C16.5431 21.8744 16.5302 21.9384 16.4782 22.004C16.4559 21.9488 16.4727 21.892 16.5228 21.8228Z" fill="white"/>
<path id="Vector_200" d="M67.0824 33.3826C67.0149 33.3691 66.9689 33.3253 66.9325 33.2475C66.9961 33.2597 67.05 33.306 67.0824 33.3826Z" fill="white"/>
<path id="Vector_201" d="M121.556 62.3472C121.572 62.4006 121.564 62.4809 121.514 62.5692C121.492 62.5096 121.511 62.4419 121.556 62.3472Z" fill="white"/>
<path id="Vector_202" d="M20.1921 18.1536C20.2123 18.205 20.1992 18.269 20.1472 18.3348C20.1251 18.2798 20.142 18.2229 20.1921 18.1536Z" fill="white"/>
<path id="Vector_203" d="M130.966 52.1639C130.99 52.2299 130.983 52.3052 130.935 52.3699C130.907 52.2972 130.921 52.2352 130.966 52.1639Z" fill="white"/>
<path id="Vector_204" d="M16.0268 22.3186C16.0472 22.3702 16.0342 22.4342 15.9822 22.4998C15.9599 22.4446 15.9767 22.3879 16.0268 22.3186Z" fill="white"/>
<path id="Vector_205" d="M12.8534 25.492C12.8739 25.5437 12.861 25.6077 12.809 25.6732C12.7865 25.6178 12.8033 25.5611 12.8534 25.492Z" fill="white"/>
<path id="Vector_206" d="M14.936 23.4095C14.9563 23.461 14.9434 23.5251 14.8914 23.5906C14.8691 23.5354 14.8859 23.4787 14.936 23.4095Z" fill="white"/>
<path id="Vector_207" d="M14.4401 23.9053C14.4605 23.9569 14.4477 24.021 14.3956 24.0865C14.3732 24.0312 14.39 23.9745 14.4401 23.9053Z" fill="white"/>
<path id="Vector_208" d="M29.1187 10.073C29.105 10.1391 29.061 10.1852 28.9829 10.2219C28.9954 10.1593 29.0418 10.1061 29.1187 10.073Z" fill="white"/>
<path id="Vector_209" d="M100.028 31.144C100.048 31.1891 100.042 31.2458 100.003 31.315C99.9808 31.2702 99.9905 31.213 100.028 31.144Z" fill="white"/>
<path id="Vector_210" d="M125.258 61.846C125.209 61.834 125.158 61.7894 125.132 61.7099C125.189 61.7211 125.223 61.7672 125.258 61.846Z" fill="white"/>
<path id="Vector_211" d="M21.7789 16.5669C21.7991 16.6182 21.7859 16.6821 21.7339 16.748C21.712 16.6932 21.7288 16.6364 21.7789 16.5669Z" fill="white"/>
<path id="Vector_212" d="M19.6963 18.6494C19.7165 18.7008 19.7034 18.7648 19.6514 18.8306C19.6293 18.7755 19.6461 18.7187 19.6963 18.6494Z" fill="white"/>
<path id="Vector_213" d="M108.392 61.7543C108.336 61.7327 108.283 61.6785 108.266 61.6017C108.332 61.6267 108.364 61.6742 108.392 61.7543Z" fill="white"/>
<path id="Vector_214" d="M23.3655 14.9802C23.3856 15.0315 23.3724 15.0954 23.3205 15.1614C23.2985 15.1066 23.3153 15.0497 23.3655 14.9802Z" fill="white"/>
<path id="Vector_215" d="M18.1095 20.2361C18.1298 20.2876 18.1168 20.3516 18.0648 20.4173C18.0426 20.3622 18.0594 20.3054 18.1095 20.2361Z" fill="white"/>
<path id="Vector_216" d="M104.09 61.6874C104.113 61.7424 104.107 61.807 104.06 61.8762C104.033 61.8195 104.046 61.7583 104.09 61.6874Z" fill="white"/>
<path id="Vector_217" d="M23.8615 14.4844C23.8816 14.5356 23.8683 14.5995 23.8164 14.6655C23.7945 14.6108 23.8114 14.5539 23.8615 14.4844Z" fill="white"/>
<path id="Vector_218" d="M122.932 59.6027C122.958 59.6647 122.952 59.7355 122.904 59.8019C122.874 59.7355 122.887 59.6735 122.932 59.6027Z" fill="white"/>
<path id="Vector_219" d="M24.9523 13.3935C24.9724 13.4447 24.9591 13.5085 24.9072 13.5746C24.8854 13.52 24.9022 13.463 24.9523 13.3935Z" fill="white"/>
<path id="Vector_220" d="M67.5279 33.9983C67.4795 33.9768 67.4374 33.9216 67.4185 33.8382C67.4725 33.8616 67.5034 33.9131 67.5279 33.9983Z" fill="white"/>
<path id="Vector_221" d="M59.0582 27.6118C59.0464 27.6044 59.0209 27.5952 58.9795 27.5954C58.9942 27.5956 59.0212 27.5974 59.0582 27.6118Z" fill="white"/>
<path id="Vector_222" d="M58.8624 27.5143C58.8362 27.5136 58.7929 27.4963 58.7257 27.4718C58.7497 27.4756 58.7974 27.4866 58.8624 27.5143Z" fill="white"/>
<path id="Vector_223" d="M154.303 62.0163C154.34 62.0069 154.38 62.0295 154.413 62.0933C154.373 62.1057 154.34 62.077 154.303 62.0163Z" fill="white"/>
<path id="Vector_224" d="M149.238 61.8083C149.272 61.794 149.314 61.8075 149.351 61.8553C149.312 61.8718 149.28 61.8539 149.238 61.8083Z" fill="white"/>
<path id="Vector_225" d="M143.542 64.4434C143.523 64.4368 143.557 64.4195 143.557 64.4195C143.557 64.4195 143.582 64.4452 143.591 64.4563C143.6 64.4675 143.562 64.45 143.542 64.4434Z" fill="white"/>
<path id="Vector_226" d="M124.852 61.0603C124.829 61.074 124.796 61.0635 124.759 61.0187C124.784 61.0016 124.813 61.0189 124.852 61.0603Z" fill="white"/>
<path id="Vector_227" d="M154.203 61.9132C154.241 61.8961 154.282 61.907 154.312 61.9525C154.269 61.9718 154.237 61.9564 154.203 61.9132Z" fill="white"/>
<path id="Vector_228" d="M59.1467 27.6959C59.1446 27.6971 59.1533 27.708 59.1527 27.7033C59.1521 27.6986 59.1489 27.6946 59.1467 27.6959Z" fill="white"/>
<path id="Vector_229" d="M104.204 61.5658C104.217 61.5961 104.206 61.6438 104.157 61.6861C104.139 61.6482 104.159 61.6158 104.204 61.5658Z" fill="white"/>
<path id="Vector_230" d="M121.077 63.3738C121.081 63.3772 121.073 63.3924 121.073 63.4322C121.081 63.4568 121.047 63.4215 121.047 63.4215C121.047 63.4215 121.065 63.3856 121.077 63.3738Z" fill="white"/>
<path id="Vector_231" d="M149.343 61.9128C149.38 61.8955 149.42 61.9064 149.452 61.9529C149.412 61.9727 149.379 61.9568 149.343 61.9128Z" fill="white"/>
<path id="Vector_232" d="M118.313 31.5459C118.267 31.5575 118.219 31.5338 118.193 31.4691C118.246 31.4556 118.279 31.4831 118.313 31.5459Z" fill="white"/>
<path id="Vector_233" d="M130.575 52.7232C130.575 52.7632 130.544 52.781 130.501 52.7757C130.508 52.7354 130.526 52.7182 130.575 52.7232Z" fill="white"/>
<path id="Vector_234" d="M154.094 61.8088C154.127 61.7939 154.169 61.807 154.207 61.8543C154.17 61.8713 154.137 61.854 154.094 61.8088Z" fill="white"/>
<path id="Vector_235" d="M154.399 62.184C154.44 62.1767 154.481 62.2066 154.514 62.2786C154.47 62.2876 154.435 62.2544 154.399 62.184Z" fill="white"/>
<path id="Vector_236" d="M65.8505 32.0017C65.8132 32.0169 65.771 32.005 65.7412 31.9588C65.7842 31.9412 65.8149 31.9579 65.8505 32.0017Z" fill="white"/>
<path id="Vector_237" d="M26.0519 12.3932C26.0673 12.4305 26.0556 12.4728 26.0089 12.5027C25.9909 12.4596 26.0079 12.429 26.0519 12.3932Z" fill="white"/>
<path id="Vector_238" d="M149.444 62.0105C149.477 61.9949 149.517 62.0068 149.55 62.0531C149.513 62.0709 149.481 62.0545 149.444 62.0105Z" fill="white"/>
<path id="Vector_239" d="M67.437 33.7851C67.3999 33.8019 67.3576 33.7919 67.3278 33.7456C67.3707 33.7257 67.4013 33.742 67.437 33.7851Z" fill="white"/>
<path id="Vector_240" d="M65.7506 31.9002C65.7166 31.9173 65.677 31.9075 65.6445 31.8617C65.6828 31.8415 65.714 31.8574 65.7506 31.9002Z" fill="white"/>
<path id="Vector_241" d="M24.7598 52.6533C24.7792 52.6949 24.7699 52.7389 24.723 52.7684C24.7006 52.7212 24.7158 52.6884 24.7598 52.6533Z" fill="white"/>
<path id="Vector_242" d="M144.696 31.5383C144.696 32.7061 144.696 33.8739 144.696 35.1042C147.643 35.1042 150.582 35.1042 153.568 35.0959C153.654 35.466 153.359 35.3175 153.208 35.3184C151.473 35.3294 149.738 35.3254 148.003 35.3254C146.883 35.3254 145.763 35.3254 144.591 35.3254C144.591 34.066 144.591 32.8481 144.622 31.5859C144.652 31.5417 144.696 31.5383 144.696 31.5383Z" fill="white"/>
<path id="Vector_243" d="M144.742 31.537C144.696 31.5383 144.651 31.5417 144.629 31.5402C144.667 31.4995 144.726 31.4258 144.785 31.4259C147.017 31.4297 149.249 31.4402 151.5 31.4881C149.275 31.5295 147.031 31.5326 144.742 31.537Z" fill="white"/>
<path id="Vector_244" d="M111.639 46.525C111.68 47.7096 111.68 48.9112 111.68 50.1455C114.633 50.1455 117.588 50.1455 120.605 50.1455C120.605 49.433 120.605 48.7287 120.61 47.9808C120.683 48.731 120.751 49.5247 120.822 50.3564C117.677 50.3564 114.653 50.3564 111.599 50.3564C111.599 49.0681 111.599 47.805 111.639 46.525Z" fill="white"/>
<path id="Vector_245" d="M118.373 46.4738C116.219 46.5052 114.036 46.5076 111.807 46.5092C111.815 46.478 111.871 46.4211 111.926 46.4212C114.065 46.4258 116.205 46.4357 118.373 46.4738Z" fill="white"/>
<path id="Vector_246" d="M126.755 50.1317C128.173 50.1215 129.593 50.1487 131.058 50.1652C131.05 50.2306 130.996 50.3732 130.943 50.3729C129.66 50.3662 128.377 50.348 127.094 50.3184C126.981 50.3158 126.869 50.221 126.755 50.1317Z" fill="white"/>
<path id="Vector_247" d="M131.134 50.0561C131.102 48.9229 131.101 47.7615 131.098 46.5533C131.129 46.5769 131.192 46.6474 131.192 46.7177C131.187 47.8211 131.175 48.9244 131.134 50.0561Z" fill="white"/>
<path id="Vector_248" d="M131.076 46.4839C129.978 46.5132 128.853 46.5105 127.682 46.5049C127.84 46.472 128.044 46.4157 128.248 46.4164C129.182 46.4195 130.115 46.4386 131.076 46.4839Z" fill="white"/>
<path id="Vector_249" d="M91.9705 35.0224C92.4069 34.9711 92.881 34.9177 93.3555 34.9121C94.177 34.9023 94.9989 34.9221 95.8569 34.9199C95.8196 34.9888 95.7463 35.1354 95.6726 35.1357C94.4924 35.1391 93.3122 35.1245 92.1321 35.1099C92.0905 35.1094 92.0495 35.0654 91.9705 35.0224Z" fill="white"/>
<path id="Vector_250" d="M95.877 31.4928C94.6511 31.5271 93.4087 31.5209 92.146 31.4763C93.3706 31.4428 94.6156 31.4475 95.877 31.4928Z" fill="white"/>
<path id="Vector_251" d="M106.592 35.064C106.582 35.1098 106.539 35.111 106.518 35.106C106.497 33.9314 106.497 32.7617 106.497 31.5204C105.198 31.5204 103.915 31.5204 102.587 31.5286C102.583 31.5116 102.625 31.4643 102.667 31.4642C103.961 31.4603 105.255 31.461 106.602 31.461C106.602 32.6564 106.602 33.8373 106.592 35.064Z" fill="white"/>
<path id="Vector_252" d="M122.545 62.2796C123.174 62.2617 123.771 62.2671 124.411 62.2528C124.473 62.3096 124.492 62.386 124.511 62.4624C123.847 62.4552 123.183 62.4481 122.52 62.435C122.516 62.4349 122.515 62.3488 122.545 62.2796Z" fill="white"/>
<path id="Vector_253" d="M99.8326 62.389C99.9734 62.7605 99.8732 63.2156 100.256 63.5459C99.7841 63.4095 99.6719 63.1267 99.8326 62.389Z" fill="white"/>
<path id="Vector_254" d="M99.9243 62.2356C99.9539 62.2809 99.9432 62.3317 99.8985 62.3846C99.871 62.3382 99.8775 62.2897 99.9243 62.2356Z" fill="white"/>
<path id="Vector_255" d="M140.809 63.1317C140.799 63.1716 140.779 63.1726 140.731 63.1757C140.01 63.176 139.317 63.1744 138.581 63.1761C138.658 63.1169 138.78 62.9984 138.899 63.001C139.533 63.0149 140.166 63.0591 140.809 63.1317Z" fill="white"/>
<path id="Vector_256" d="M138.513 63.1553C138.5 63.2095 138.453 63.2441 138.373 63.2801C138.386 63.233 138.433 63.1843 138.513 63.1553Z" fill="white"/>
<path id="Vector_257" d="M147.582 63.8183C148.217 63.7793 148.857 63.7793 149.49 63.7793C149.574 63.1105 149.54 63.0599 148.912 63.0751C148.394 63.0876 147.877 63.1315 147.316 63.1586C147.999 63.1037 148.725 63.0386 149.453 63.0207C149.522 63.019 149.653 63.3129 149.655 63.471C149.657 63.6287 149.535 63.9246 149.465 63.9254C148.839 63.9323 148.212 63.8872 147.582 63.8183Z" fill="white"/>
<path id="Vector_258" d="M92.6175 63.1246C91.8628 63.1613 91.1037 63.1584 90.3022 63.1477C91.0388 62.8849 91.824 62.8987 92.6175 63.1246Z" fill="white"/>
<path id="Vector_259" d="M90.1003 63.3038C90.1937 63.4174 90.262 63.556 90.3404 63.7275C90.0037 63.7791 90.0367 63.5558 90.1003 63.3038Z" fill="white"/>
<path id="Vector_260" d="M153.366 51.8686C153.32 48.5576 153.319 45.2554 153.325 41.9082C153.792 41.8632 154.253 41.8632 154.771 41.8632C154.783 42.0375 154.802 42.1941 154.802 42.3506C154.804 45.3506 154.794 48.3507 154.814 51.3505C154.817 51.8014 154.674 51.9364 154.251 51.8895C153.974 51.8589 153.691 51.8796 153.366 51.8686Z" fill="white"/>
<path id="Vector_261" d="M127.67 59.6082C127.713 61.2077 127.713 62.7996 127.713 64.4428C127.493 64.4539 127.303 64.4634 127.069 64.4772C127.006 63.6454 126.983 62.8094 126.973 61.9733C126.965 61.2026 126.972 60.4318 126.972 59.6004C127.214 59.6004 127.421 59.6004 127.67 59.6082Z" fill="white"/>
</g>
</svg>
