<svg width="32" height="32" viewBox="0 0 32 32" fill="none" xmlns="http://www.w3.org/2000/svg">
<path d="M16 25.3333C20.4133 25.3333 24 21.7467 24 17.3333V10.6667C24 6.25332 20.4133 2.66666 16 2.66666C11.5867 2.66666 8 6.25332 8 10.6667V17.3333C8 21.7467 11.5867 25.3333 16 25.3333Z" stroke="white" stroke-width="2" stroke-linecap="round" stroke-linejoin="round"/>
<path d="M4 14.6667V17.3333C4 23.96 9.37333 29.3333 16 29.3333C22.6267 29.3333 28 23.96 28 17.3333V14.6667" stroke="white" stroke-width="2" stroke-linecap="round" stroke-linejoin="round"/>
<path d="M12.1467 9.97333C14.52 9.10667 17.1067 9.10667 19.48 9.97333" stroke="white" stroke-width="2" stroke-linecap="round" stroke-linejoin="round"/>
<path d="M13.3733 13.9733C14.9733 13.5333 16.6667 13.5333 18.2667 13.9733" stroke="white" stroke-width="2" stroke-linecap="round" stroke-linejoin="round"/>
</svg>
