<svg width="32" height="32" viewBox="0 0 32 32" fill="none" xmlns="http://www.w3.org/2000/svg">
<g id="vuesax/linear/microphone">
<g id="microphone">
<path id="Vector" d="M16 25.3334C20.4133 25.3334 24 21.7467 24 17.3334V10.6667C24 6.25341 20.4133 2.66675 16 2.66675C11.5867 2.66675 8 6.25341 8 10.6667V17.3334C8 21.7467 11.5867 25.3334 16 25.3334Z" stroke="white" stroke-width="2" stroke-linecap="round" stroke-linejoin="round"/>
<path id="Vector_2" d="M4 14.6667V17.3334C4 23.9601 9.37333 29.3334 16 29.3334C22.6267 29.3334 28 23.9601 28 17.3334V14.6667" stroke="white" stroke-width="2" stroke-linecap="round" stroke-linejoin="round"/>
<path id="Vector_3" d="M12.1466 9.97324C14.5199 9.10658 17.1066 9.10658 19.4799 9.97324" stroke="white" stroke-width="2" stroke-linecap="round" stroke-linejoin="round"/>
<path id="Vector_4" d="M13.3734 13.9733C14.9734 13.5333 16.6667 13.5333 18.2667 13.9733" stroke="white" stroke-width="2" stroke-linecap="round" stroke-linejoin="round"/>
</g>
</g>
</svg>
