<svg width="20" height="20" viewBox="0 0 20 20" fill="none" xmlns="http://www.w3.org/2000/svg">
<path d="M5.83334 2.11629C5.83334 1.51324 6.45405 1.10986 7.00513 1.35478L9.01024 2.24594C9.61212 2.51344 10 3.11031 10 3.76896V7.88501C10 8.48806 9.3793 8.89145 8.82823 8.64653L6.82311 7.75536C6.22123 7.48786 5.83334 6.89099 5.83334 6.23234V2.11629Z" stroke="#858D98" stroke-width="1.25" stroke-linejoin="round"/>
<path d="M14.1667 2.11629C14.1667 1.51324 13.5459 1.10986 12.9949 1.35478L10.9898 2.24594C10.3879 2.51344 9.99999 3.11031 9.99999 3.76896V7.88501C9.99999 8.48806 10.6207 8.89145 11.1718 8.64653L13.1769 7.75536C13.7788 7.48786 14.1667 6.89099 14.1667 6.23234V2.11629Z" stroke="#858D98" stroke-width="1.25" stroke-linejoin="round"/>
<path d="M14.1667 5.00098H15.8333C16.7538 5.00098 17.5 5.74717 17.5 6.66764V13.3343C17.5 14.2548 16.7538 15.001 15.8333 15.001H4.16667C3.24619 15.001 2.5 14.2548 2.5 13.3343V6.66764C2.5 5.74717 3.24619 5.00098 4.16667 5.00098H5.83333" stroke="#858D98" stroke-width="1.25"/>
<path d="M7.5 18.3343C9.0625 17.2232 10.9375 17.2232 12.5 18.3343" stroke="#858D98" stroke-width="1.25" stroke-linecap="round" stroke-linejoin="round"/>
</svg>
