<svg width="20" height="20" viewBox="0 0 20 20" fill="none" xmlns="http://www.w3.org/2000/svg">
<path fill-rule="evenodd" clip-rule="evenodd" d="M6.39878 3.33329C6.39878 2.06764 7.4248 1.04163 8.69045 1.04163H10.3571C11.6228 1.04163 12.6488 2.06764 12.6488 3.33329C12.6488 3.89063 13.2521 4.23897 13.7348 3.9603C14.8309 3.32748 16.2324 3.70302 16.8653 4.79911L17.6986 6.24249C18.3314 7.33857 17.9559 8.74013 16.8598 9.37296C16.3771 9.65163 16.3771 10.3483 16.8598 10.627C17.9559 11.2598 18.3314 12.6613 17.6986 13.7574L16.8653 15.2008C16.2324 16.2969 14.8309 16.6724 13.7348 16.0396C13.2521 15.7609 12.6488 16.1093 12.6488 16.6666C12.6488 17.9323 11.6228 18.9583 10.3571 18.9583H8.69045C7.4248 18.9583 6.39878 17.9323 6.39878 16.6666C6.39878 16.1093 5.79545 15.761 5.31278 16.0396C4.21669 16.6725 2.81513 16.2969 2.18231 15.2008L1.34897 13.7574C0.716146 12.6614 1.09169 11.2598 2.18778 10.627C2.67045 10.3483 2.67045 9.65162 2.18778 9.37295C1.0917 8.74012 0.716147 7.33856 1.34897 6.24247L2.18231 4.7991C2.81513 3.70301 4.21669 3.32746 5.31278 3.96029C5.79545 4.23896 6.39878 3.89062 6.39878 3.33329ZM8.69045 2.29163C8.11515 2.29163 7.64878 2.758 7.64878 3.33329C7.64878 4.85288 6.00378 5.80261 4.68778 5.04282C4.18956 4.75517 3.55249 4.92588 3.26484 5.4241L2.43151 6.86747C2.14386 7.3657 2.31456 8.00277 2.81278 8.29042C4.12879 9.05021 4.12879 10.9497 2.81278 11.7095C2.31456 11.9971 2.14386 12.6342 2.4315 13.1324L3.26484 14.5758C3.55249 15.074 4.18956 15.2447 4.68778 14.9571C6.00378 14.1973 7.64878 15.147 7.64878 16.6666C7.64878 17.2419 8.11515 17.7083 8.69045 17.7083H10.3571C10.9324 17.7083 11.3988 17.2419 11.3988 16.6666C11.3988 15.147 13.0438 14.1973 14.3598 14.9571C14.858 15.2447 15.4951 15.074 15.7827 14.5758L16.6161 13.1324C16.9037 12.6342 16.733 11.9971 16.2348 11.7095C14.9188 10.9497 14.9188 9.05022 16.2348 8.29043C16.733 8.00278 16.9037 7.36571 16.6161 6.86749L15.7827 5.42411C15.4951 4.92589 14.858 4.75519 14.3598 5.04283C13.0438 5.80263 11.3988 4.85288 11.3988 3.33329C11.3988 2.758 10.9324 2.29163 10.3571 2.29163H8.69045Z" fill="#858D98"/>
<path fill-rule="evenodd" clip-rule="evenodd" d="M9.52377 8.125C8.48824 8.125 7.64877 8.96447 7.64877 10C7.64877 11.0355 8.48824 11.875 9.52377 11.875C10.5593 11.875 11.3988 11.0355 11.3988 10C11.3988 8.96447 10.5593 8.125 9.52377 8.125ZM6.39877 10C6.39877 8.27411 7.79788 6.875 9.52377 6.875C11.2497 6.875 12.6488 8.27411 12.6488 10C12.6488 11.7259 11.2497 13.125 9.52377 13.125C7.79788 13.125 6.39877 11.7259 6.39877 10Z" fill="#858D98"/>
</svg>
