<svg width="48" height="48" viewBox="0 0 48 48" fill="none" xmlns="http://www.w3.org/2000/svg">
<g id="vuesax/bold/happyemoji">
<g id="happyemoji">
<path id="Vector" d="M23.9399 4C12.8999 4 3.93994 12.96 3.93994 24C3.93994 35.04 12.8999 44 23.9399 44C34.9799 44 43.9399 35.04 43.9399 24C43.9399 12.96 34.9999 4 23.9399 4ZM34.7999 32.86C32.3399 36.4 28.2999 38.5 23.9999 38.5C19.6999 38.5 15.6599 36.4 13.1999 32.86C12.7199 32.18 12.8999 31.24 13.5799 30.78C14.2599 30.3 15.1999 30.48 15.6599 31.16C17.5599 33.88 20.6799 35.52 23.9999 35.52C27.3199 35.52 30.4399 33.9 32.3399 31.16C32.8199 30.48 33.7399 30.32 34.4199 30.78C35.1199 31.24 35.2799 32.18 34.7999 32.86Z" fill="white"/>
</g>
</g>
</svg>
