<svg width="20" height="20" viewBox="0 0 20 20" fill="none" xmlns="http://www.w3.org/2000/svg">
<g id="vuesax/bold/messages">
<g id="messages">
<path id="Vector" d="M10.9917 5H5.65833C5.44167 5 5.23333 5.00833 5.03333 5.03333C2.79167 5.225 1.66667 6.55 1.66667 8.99167V12.325C1.66667 15.6583 3 16.3167 5.65833 16.3167H5.99167C6.175 16.3167 6.41667 16.4417 6.525 16.5833L7.525 17.9167C7.96667 18.5083 8.68333 18.5083 9.125 17.9167L10.125 16.5833C10.25 16.4167 10.45 16.3167 10.6583 16.3167H10.9917C13.4333 16.3167 14.7583 15.2 14.95 12.95C14.975 12.75 14.9833 12.5417 14.9833 12.325V8.99167C14.9833 6.33333 13.65 5 10.9917 5ZM5.41667 11.6667C4.95 11.6667 4.58333 11.2917 4.58333 10.8333C4.58333 10.375 4.95833 10 5.41667 10C5.875 10 6.25 10.375 6.25 10.8333C6.25 11.2917 5.875 11.6667 5.41667 11.6667ZM8.325 11.6667C7.85833 11.6667 7.49167 11.2917 7.49167 10.8333C7.49167 10.375 7.86667 10 8.325 10C8.78333 10 9.15833 10.375 9.15833 10.8333C9.15833 11.2917 8.79167 11.6667 8.325 11.6667ZM11.2417 11.6667C10.775 11.6667 10.4083 11.2917 10.4083 10.8333C10.4083 10.375 10.7833 10 11.2417 10C11.7 10 12.075 10.375 12.075 10.8333C12.075 11.2917 11.7 11.6667 11.2417 11.6667Z" fill="#5FCFAC"/>
<path id="Vector_2" d="M18.3167 5.65841V8.99175C18.3167 10.6584 17.8 11.7917 16.7667 12.4167C16.5167 12.5667 16.225 12.3667 16.225 12.0751L16.2333 8.99175C16.2333 5.65841 14.325 3.75008 10.9917 3.75008L5.91667 3.75841C5.625 3.75841 5.425 3.46675 5.575 3.21675C6.2 2.18341 7.33334 1.66675 8.99167 1.66675H14.325C16.9833 1.66675 18.3167 3.00008 18.3167 5.65841Z" fill="#5FCFAC"/>
</g>
</g>
</svg>
