<svg width="148" height="38" viewBox="0 0 148 38" fill="none" xmlns="http://www.w3.org/2000/svg">
<g clip-path="url(#clip0_132_1909)">
<path d="M100.765 11.0093C100.969 11.0093 101.137 10.8552 101.137 10.6648C101.137 10.5923 101.114 10.5243 101.073 10.4699L101.499 10.0756H105.025C105.048 10.2433 105.207 10.3747 105.393 10.3747C105.597 10.3747 105.764 10.2206 105.764 10.0302C105.764 9.83988 105.597 9.68578 105.393 9.68578C105.211 9.68578 105.062 9.80362 105.025 9.96226H101.449L100.983 10.3928C100.983 10.3928 100.96 10.3792 100.951 10.3702L101.359 9.42743H104.296C104.337 9.577 104.482 9.68578 104.654 9.68578C104.858 9.68578 105.025 9.53168 105.025 9.34132C105.025 9.15095 104.858 8.99685 104.654 8.99685C104.459 8.99685 104.3 9.13736 104.282 9.31412H103.126L103.593 8.88354C103.661 8.94246 103.752 8.97872 103.847 8.97872C104.051 8.97872 104.219 8.82462 104.219 8.63425C104.219 8.44389 104.051 8.28979 103.847 8.28979C103.643 8.28979 103.475 8.44389 103.475 8.63425C103.475 8.69318 103.494 8.74303 103.521 8.79289L102.954 9.31412H102.039L102.796 8.61613C102.85 8.64785 102.918 8.66598 102.986 8.66598C103.19 8.66598 103.358 8.51188 103.358 8.32152C103.358 8.13115 103.19 7.97705 102.986 7.97705C102.782 7.97705 102.614 8.13115 102.614 8.32152C102.614 8.40763 102.65 8.48468 102.705 8.54361L101.871 9.31865H101.282L100.842 10.3339C100.815 10.3294 100.788 10.3249 100.76 10.3249C100.556 10.3249 100.389 10.479 100.389 10.6693C100.389 10.8597 100.556 11.0138 100.76 11.0138L100.765 11.0093Z" fill="white"/>
<path d="M104.042 31.9534L104.504 31.5229V29.7915L106.965 27.5162C107.02 27.5434 107.079 27.5615 107.147 27.5615C107.351 27.5615 107.518 27.4074 107.518 27.217C107.518 27.0267 107.351 26.8726 107.147 26.8726C106.943 26.8726 106.775 27.0267 106.775 27.217C106.775 27.3077 106.811 27.3847 106.87 27.4482L104.409 29.728L104.391 29.7461V31.4775L104.046 31.7993L103.675 31.4549V29.8594C103.874 29.8504 104.033 29.7008 104.033 29.515C104.033 29.4289 103.997 29.3518 103.942 29.2929L106.521 26.9043L105.506 26.7729L104.527 27.6793V26.4148L104.137 26.3649C104.096 26.2154 103.951 26.1021 103.774 26.1021C103.57 26.1021 103.403 26.2562 103.403 26.4465C103.403 26.6006 103.512 26.7275 103.657 26.7729V28.6402L105.542 26.8952L106.254 26.9904L103.842 29.2204C103.788 29.1886 103.725 29.1705 103.652 29.1705C103.448 29.1705 103.28 29.3246 103.28 29.515C103.28 29.6736 103.394 29.8051 103.552 29.8458V31.5047L104.042 31.958V31.9534ZM103.774 28.3683V26.7864C103.965 26.7864 104.123 26.6505 104.142 26.4782L104.4 26.51V27.7791L103.77 28.3637L103.774 28.3683Z" fill="white"/>
<path d="M65.3806 13.1259C65.3806 13.3163 65.5347 13.4704 65.725 13.4704C65.9018 13.4704 66.0468 13.3344 66.065 13.1622H66.1239L66.763 13.8013V16.8199L65.6888 17.8941V16.4301L66.2145 15.9043V14.6307C66.3777 14.608 66.5046 14.463 66.5046 14.2953C66.5046 14.1049 66.3505 13.9508 66.1601 13.9508C65.9698 13.9508 65.8157 14.1049 65.8157 14.2953C65.8157 14.463 65.9381 14.6035 66.0967 14.6307V15.859L65.5709 16.3848V18.166L66.8672 16.8697V13.7605L66.1647 13.0579H66.0559C66.0196 12.9038 65.8837 12.7905 65.7205 12.7905C65.5301 12.7905 65.376 12.9446 65.376 13.135L65.3806 13.1259Z" fill="white"/>
<path d="M118.401 27.5982V24.7745L119.008 24.2125V22.8709C119.167 22.8301 119.285 22.6986 119.285 22.54C119.285 22.3496 119.117 22.1955 118.913 22.1955C118.872 22.1955 118.832 22.2046 118.791 22.2137L118.65 22.0686C118.705 22.0097 118.736 21.9326 118.736 21.8511C118.736 21.6607 118.569 21.5066 118.365 21.5066C118.161 21.5066 117.993 21.6607 117.993 21.8511C117.993 21.9372 118.029 22.0142 118.084 22.0777L117.88 22.268C117.816 22.2273 117.744 22.2001 117.658 22.2001C117.454 22.2001 117.286 22.3542 117.286 22.5445C117.286 22.6986 117.395 22.8255 117.544 22.8709V26.8096L118.401 27.6027V27.5982ZM117.658 22.8845C117.862 22.8845 118.029 22.7304 118.029 22.54C118.029 22.4675 118.007 22.3995 117.961 22.3451L118.174 22.1502C118.229 22.1819 118.292 22.2001 118.36 22.2001C118.433 22.2001 118.496 22.1819 118.555 22.1502L118.678 22.2771C118.591 22.3406 118.537 22.4357 118.537 22.5445C118.537 22.7304 118.696 22.8799 118.891 22.889V24.1671L118.283 24.7292V27.3353L117.658 26.7552V22.889V22.8845Z" fill="white"/>
<path d="M76.5762 13.7151L76.1456 14.1457V17.5495L75.1757 18.5195L78.2441 21.5789L78.6203 21.2027V16.4889L78.2985 16.1671V15.4419L76.5762 13.7196V13.7151ZM78.5115 16.5343V21.1528L78.2441 21.4202L75.3343 18.5195L76.2544 17.5994V14.1955L76.5717 13.8783L78.1852 15.4918V16.217L78.507 16.5388L78.5115 16.5343Z" fill="white"/>
<path d="M103.761 7.73235C103.829 7.73235 103.897 7.71422 103.952 7.6825L106.92 10.4292L106.938 10.4428H107.287C107.301 10.6241 107.46 10.7691 107.659 10.7691C107.859 10.7691 108.031 10.615 108.031 10.4246C108.031 10.2569 107.899 10.1164 107.723 10.0847V9.72663L108.339 9.16007V8.31251H108.62V9.11022L109.381 9.63145V10.0802C109.209 10.1074 109.073 10.2479 109.073 10.4201C109.073 10.6105 109.241 10.7646 109.445 10.7646C109.649 10.7646 109.817 10.6105 109.817 10.4201C109.817 10.411 109.817 10.4065 109.817 10.3974H110.138L110.542 10.0258V6.39528L111.235 5.75168C111.299 5.80153 111.38 5.82873 111.466 5.82873C111.67 5.82873 111.838 5.67462 111.838 5.48426C111.838 5.2939 111.67 5.1398 111.466 5.1398C111.262 5.1398 111.095 5.2939 111.095 5.48426C111.095 5.55225 111.117 5.6157 111.154 5.66556L110.424 6.34089V9.97138L110.093 10.2796H109.785C109.735 10.1708 109.626 10.0938 109.495 10.0756V9.56799L108.733 9.04676V8.30797H109.078C109.109 8.47114 109.259 8.59352 109.445 8.59352C109.649 8.59352 109.817 8.43941 109.817 8.24905C109.817 8.05869 109.649 7.90459 109.445 7.90459C109.259 7.90459 109.105 8.03149 109.078 8.19466H108.733V7.1658H109.078C109.109 7.32897 109.259 7.45134 109.445 7.45134C109.649 7.45134 109.817 7.29724 109.817 7.10688C109.817 6.91651 109.649 6.76241 109.445 6.76241C109.259 6.76241 109.109 6.88479 109.078 7.04795H108.733V6.42248L109.472 5.73808V5.46613H110.061C110.093 5.6293 110.243 5.75168 110.428 5.75168C110.632 5.75168 110.8 5.59757 110.8 5.40721C110.8 5.21685 110.632 5.06274 110.428 5.06274C110.243 5.06274 110.093 5.18512 110.061 5.34829H109.354V5.68822L108.615 6.37262V7.04795H108.334V6.3273L107.94 5.9647C107.994 5.90578 108.031 5.82873 108.031 5.74261C108.031 5.55225 107.863 5.39814 107.659 5.39814C107.455 5.39814 107.287 5.55225 107.287 5.74261C107.287 5.74261 107.287 5.74714 107.287 5.75168L106.086 6.09161L106.472 6.44514V8.90172L104.314 6.90292L104.758 6.54939L105.828 7.53746V6.56298L105.692 6.44061C105.737 6.38168 105.765 6.3137 105.765 6.23665C105.765 6.04628 105.597 5.89218 105.393 5.89218C105.189 5.89218 105.021 6.04628 105.021 6.23665C105.021 6.42701 105.189 6.58111 105.393 6.58111C105.47 6.58111 105.547 6.55845 105.606 6.51766L105.71 6.61284V7.26551L104.763 6.39075L104.133 6.89385L106.589 9.1646V6.39075L106.322 6.14147L107.315 5.86045C107.369 5.9919 107.505 6.08254 107.664 6.08254C107.732 6.08254 107.795 6.06441 107.854 6.03269L108.226 6.37715V7.04795H107.963C107.931 6.88479 107.781 6.76241 107.596 6.76241C107.392 6.76241 107.224 6.91651 107.224 7.10688C107.224 7.29724 107.392 7.45134 107.596 7.45134C107.781 7.45134 107.931 7.32897 107.963 7.1658H108.226V8.19466H107.963C107.936 8.03149 107.781 7.90459 107.596 7.90459C107.392 7.90459 107.224 8.05869 107.224 8.24905C107.224 8.43941 107.392 8.59352 107.596 8.59352C107.777 8.59352 107.931 8.47114 107.963 8.30797H108.226V9.10115L107.609 9.66771V10.0756C107.464 10.0938 107.342 10.1889 107.301 10.3204H106.984L104.047 7.60091C104.101 7.54199 104.137 7.46494 104.137 7.37882C104.137 7.18846 103.97 7.03436 103.766 7.03436C103.562 7.03436 103.394 7.18846 103.394 7.37882C103.394 7.56919 103.562 7.72329 103.766 7.72329L103.761 7.73235ZM108.334 7.17033H108.615V8.19919H108.334V7.17033Z" fill="white"/>
<path d="M67.4016 12.5642C67.5919 12.5642 67.746 12.4101 67.746 12.2197C67.746 12.0294 67.5919 11.8753 67.4016 11.8753C67.2973 11.8753 67.2067 11.9206 67.1432 11.9976L66.8441 11.6985H65.6248V12.5642H66.4769L67.4151 13.5024V16.802C67.2565 16.8292 67.1341 16.9697 67.1341 17.1374C67.1341 17.2099 67.1568 17.2779 67.1976 17.3323L65.933 18.5969C65.8786 18.5561 65.8107 18.5334 65.7381 18.5334C65.5478 18.5334 65.3937 18.6875 65.3937 18.8779C65.3937 19.0682 65.5478 19.2223 65.7381 19.2223C65.9285 19.2223 66.0826 19.0682 66.0826 18.8779C66.0826 18.8008 66.0554 18.7328 66.0146 18.6784L67.2792 17.4139C67.3381 17.4547 67.4061 17.4819 67.4786 17.4819C67.669 17.4819 67.8231 17.3278 67.8231 17.1374C67.8231 16.9652 67.6962 16.8247 67.5285 16.802V13.4571L66.5223 12.4509H65.7336V11.8073H66.7942L67.0797 12.0928C67.0661 12.1291 67.0571 12.1744 67.0571 12.2152C67.0571 12.4055 67.2112 12.5597 67.4016 12.5597V12.5642Z" fill="white"/>
<path d="M119.847 25.4906L120.495 24.8923V23.46C120.699 23.46 120.867 23.3059 120.867 23.1156C120.867 22.9252 120.699 22.7711 120.495 22.7711C120.291 22.7711 120.124 22.9252 120.124 23.1156C120.124 23.2697 120.232 23.3966 120.382 23.4419V24.8424L119.734 25.4407V27.444H119.013V25.1325L119.698 24.498V22.1683L119.022 21.5428V20.0924L119.58 20.9445C119.475 21.0034 119.403 21.1122 119.403 21.2391C119.403 21.4295 119.571 21.5836 119.775 21.5836C119.979 21.5836 120.146 21.4295 120.146 21.2391C120.146 21.0488 119.979 20.8947 119.775 20.8947C119.747 20.8947 119.716 20.8947 119.693 20.9037L118.909 19.7026V21.5972L119.584 22.2227V24.4526L118.9 25.0872V27.5664H119.852V25.4951L119.847 25.4906Z" fill="white"/>
<path d="M103.439 19.7251V15.9269L102.007 14.5989H100.285V15.3739H101.513L102.519 16.3076L101.926 16.856H101.037L100.969 16.6521C101.092 16.5977 101.178 16.4798 101.178 16.3439C101.178 16.1535 101.01 15.9994 100.806 15.9994C100.602 15.9994 100.434 16.1535 100.434 16.3439C100.434 16.5342 100.602 16.6883 100.806 16.6883C100.824 16.6883 100.842 16.6883 100.86 16.6838L100.96 16.9739H101.98L102.701 16.3076L101.567 15.2606H100.407V14.7213H101.966L103.326 15.9813V19.4622L101.98 18.2158V17.5268H101.713C101.658 17.3999 101.522 17.3047 101.364 17.3047C101.16 17.3047 100.992 17.4588 100.992 17.6492C100.992 17.8396 101.16 17.9937 101.364 17.9937C101.567 17.9937 101.735 17.8396 101.735 17.6492C101.735 17.6492 101.735 17.6447 101.735 17.6401H101.862V18.2611L103.444 19.7251H103.439Z" fill="white"/>
<path d="M72.9676 5.75168C73.0083 5.75168 73.0491 5.74261 73.0854 5.72901L75.4921 8.13574V16.8154L74.5539 17.7536L73.6338 16.8335V12.8948C73.8015 12.8721 73.9375 12.7316 73.9375 12.5549C73.9375 12.3645 73.7834 12.2104 73.593 12.2104C73.4027 12.2104 73.2486 12.3645 73.2486 12.5549C73.2486 12.718 73.3664 12.8585 73.5205 12.8903V16.8788L74.5539 17.9122L75.6054 16.8607V8.08588L73.1896 5.67009C73.2667 5.60664 73.3166 5.51146 73.3166 5.40721C73.3166 5.21685 73.1625 5.06274 72.9721 5.06274C72.7817 5.06274 72.6276 5.21685 72.6276 5.40721C72.6276 5.59757 72.7817 5.75168 72.9721 5.75168H72.9676Z" fill="white"/>
<path d="M77.609 15.7233L77.2102 15.3244C77.2374 15.2746 77.2555 15.2202 77.2555 15.1567C77.2555 14.9664 77.1014 14.8123 76.911 14.8123C76.7207 14.8123 76.5666 14.9664 76.5666 15.1567C76.5666 15.3471 76.7207 15.5012 76.911 15.5012C76.9971 15.5012 77.0787 15.4649 77.1376 15.4105L77.4957 15.7686V16.4757L77.8583 16.8383V17.7221L76.9654 16.8292V16.4167C77.1286 16.3895 77.251 16.249 77.251 16.0813C77.251 15.891 77.0969 15.7369 76.9065 15.7369C76.7161 15.7369 76.562 15.891 76.562 16.0813C76.562 16.2536 76.6844 16.3895 76.8476 16.4167V16.8745L77.8266 17.8535L77.8492 17.8309V18.7464L77.1784 18.0756C77.2192 18.0212 77.2419 17.9532 77.2419 17.8762C77.2419 17.6858 77.0878 17.5317 76.8974 17.5317C76.7071 17.5317 76.553 17.6858 76.553 17.8762C76.553 18.0665 76.7071 18.2207 76.8974 18.2207C76.9699 18.2207 77.0425 18.198 77.0969 18.1572L77.7903 18.8507L77.8447 18.7963V20.02L76.4986 18.6739C76.5303 18.6195 76.5484 18.5606 76.5484 18.4971C76.5484 18.3068 76.3943 18.1527 76.204 18.1527C76.0136 18.1527 75.8595 18.3068 75.8595 18.4971C75.8595 18.6875 76.0136 18.8416 76.204 18.8416C76.2856 18.8416 76.3626 18.8099 76.4215 18.76L77.9535 20.292V16.7884L77.5909 16.4258V15.7187L77.609 15.7233Z" fill="white"/>
<path d="M75.8912 7.78674C75.8912 7.93631 75.9909 8.06322 76.1224 8.10855V13.203L77.1286 12.1968C77.192 12.2557 77.2736 12.2965 77.3688 12.2965C77.5592 12.2965 77.7133 12.1424 77.7133 11.9521C77.7133 11.7617 77.5592 11.6076 77.3688 11.6076C77.1784 11.6076 77.0243 11.7617 77.0243 11.9521C77.0243 12.0064 77.0379 12.0608 77.0606 12.1062L76.2312 12.9356V10.7872L76.6164 10.4065C76.6753 10.4518 76.7478 10.479 76.8294 10.479C77.0198 10.479 77.1739 10.3249 77.1739 10.1345C77.1739 9.94419 77.0198 9.79008 76.8294 9.79008C76.6391 9.79008 76.485 9.94419 76.485 10.1345C76.485 10.2025 76.5076 10.266 76.5394 10.3204L76.2266 10.6331V9.98951L76.775 9.27338L76.5666 8.36689L76.2221 8.6615V8.12668C76.4125 8.12668 76.562 7.97257 76.562 7.78221C76.562 7.59185 76.4079 7.43774 76.2176 7.43774C76.136 7.43774 76.0589 7.46947 76 7.51933L73.9015 5.42081H75.0527C75.0618 5.6021 75.2114 5.74714 75.3926 5.74714C75.4561 5.74714 75.5105 5.72901 75.5604 5.70182L75.8414 6.30463C75.7552 6.36809 75.7009 6.4678 75.7009 6.58111C75.7009 6.77148 75.855 6.92558 76.0453 6.92558C76.2357 6.92558 76.3898 6.77148 76.3898 6.58111C76.3898 6.39075 76.2357 6.23665 76.0453 6.23665C76.0091 6.23665 75.9728 6.24571 75.9411 6.25478L75.6465 5.6293C75.6963 5.57038 75.7326 5.49333 75.7326 5.40721C75.7326 5.21685 75.5785 5.06274 75.3881 5.06274C75.234 5.06274 75.1026 5.16699 75.0618 5.3075H73.625L75.9229 7.60544C75.8912 7.65983 75.8731 7.71876 75.8731 7.78674H75.8912ZM76.2357 8.81107L76.5122 8.57539L76.6663 9.25072L76.2357 9.80821V8.81107Z" fill="white"/>
<path d="M85.2647 11.4852V11.866H86.0442C86.0714 12.0291 86.2119 12.1515 86.3796 12.1515C86.57 12.1515 86.7241 11.9974 86.7241 11.807C86.7241 11.7209 86.6924 11.6439 86.638 11.5849L87.9841 10.2388V8.67965L87.4674 8.16296L88.0566 7.57374V5.70184C88.2198 5.67464 88.3422 5.53414 88.3422 5.36644C88.3422 5.17608 88.1881 5.02197 87.9977 5.02197C87.8074 5.02197 87.6533 5.17608 87.6533 5.36644C87.6533 5.53867 87.7756 5.67464 87.9388 5.70184V7.52841L87.3813 8.0859L86.9598 7.66439L87.2725 7.35165V5.70637C87.4448 5.68824 87.5807 5.5432 87.5807 5.36644C87.5807 5.17608 87.4266 5.02197 87.2363 5.02197C87.0459 5.02197 86.8918 5.17608 86.8918 5.36644C86.8918 5.52961 87.0051 5.66558 87.1547 5.69731V7.30179L86.8782 7.57827L86.5881 7.28819L86.3162 8.20828L86.9009 8.77484C86.8646 8.82923 86.8465 8.89268 86.8465 8.96067C86.8465 9.15103 87.0006 9.30513 87.191 9.30513C87.3813 9.30513 87.5354 9.15103 87.5354 8.96067C87.5354 8.7703 87.3813 8.6162 87.191 8.6162C87.1139 8.6162 87.0414 8.64339 86.9825 8.68872L86.4476 8.17202L86.6471 7.49669L87.8663 8.71591V10.1799L86.5428 11.5034C86.493 11.4716 86.434 11.4535 86.3706 11.4535C86.1983 11.4535 86.0624 11.5759 86.0352 11.7391H85.3689V11.5215C85.3961 11.5306 85.4233 11.5351 85.455 11.5351C85.6454 11.5351 85.7995 11.381 85.7995 11.1906C85.7995 11.1226 85.7768 11.0592 85.7451 11.0048L86.3389 10.411L85.9219 9.99406L86.0714 9.04225L86.5972 9.56801C86.5745 9.61334 86.5564 9.66773 86.5564 9.72665C86.5564 9.91701 86.7105 10.0711 86.9009 10.0711C87.0912 10.0711 87.2453 9.91701 87.2453 9.72665C87.2453 9.53629 87.0912 9.38218 86.9009 9.38218C86.8102 9.38218 86.7286 9.41844 86.6652 9.47736L85.9944 8.80656L85.804 10.0349L86.1847 10.4156L85.6726 10.9277C85.6137 10.8824 85.5411 10.8552 85.4641 10.8552C85.2737 10.8552 85.1196 11.0093 85.1196 11.1997C85.1196 11.3175 85.1785 11.4172 85.2647 11.4807V11.4852Z" fill="white"/>
<path d="M100.498 14.3317C100.684 14.3317 100.838 14.2048 100.865 14.0416H102.664L103.979 15.2563V19.3853C103.802 19.4125 103.666 19.553 103.666 19.7253C103.666 19.9156 103.834 20.0697 104.038 20.0697C104.242 20.0697 104.409 19.9156 104.409 19.7253C104.409 19.553 104.273 19.4125 104.097 19.3853V15.2563L105.452 14.0008L105.461 14.0099H107.949C107.963 14.1866 108.121 14.3271 108.321 14.3271C108.525 14.3271 108.692 14.173 108.692 13.9827C108.692 13.7923 108.525 13.6382 108.321 13.6382C108.149 13.6382 108.003 13.747 107.963 13.892H105.506L104.849 13.2847H103.353L102.664 13.9237H100.865C100.833 13.7606 100.684 13.6382 100.498 13.6382C100.294 13.6382 100.126 13.7923 100.126 13.9827C100.126 14.173 100.294 14.3271 100.498 14.3271V14.3317ZM103.399 13.4025H104.804L105.366 13.9237L104.038 15.152L102.773 13.9827L103.399 13.4025Z" fill="white"/>
<path d="M101.576 12.292C101.78 12.292 101.948 12.1379 101.948 11.9476C101.948 11.8886 101.93 11.8342 101.903 11.7889L102.32 11.4037H105.737L106.48 12.0926H108.556L109.884 11.313H107.332C107.296 11.1589 107.147 11.0411 106.97 11.0411C106.866 11.0411 106.775 11.0819 106.707 11.1408L106.208 10.6785H101.884L101.2 11.3085H100.389L100.33 12.0654H101.227C101.277 12.1968 101.418 12.292 101.576 12.292ZM100.457 11.9476L100.497 11.4263H101.25L101.934 10.7963H106.168L106.643 11.236C106.621 11.2813 106.603 11.3311 106.603 11.3855C106.603 11.5759 106.77 11.73 106.974 11.73C107.165 11.73 107.319 11.5986 107.341 11.4263H109.458L108.529 11.9702H106.53L105.787 11.2813H102.279L101.835 11.6937C101.767 11.6348 101.68 11.5986 101.581 11.5986C101.377 11.5986 101.209 11.7527 101.209 11.943H100.461L100.457 11.9476Z" fill="white"/>
<path d="M102.81 12.999C102.86 13.0216 102.914 13.0352 102.968 13.0352C103.15 13.0352 103.304 12.9129 103.336 12.7542H105.167L105.81 13.3525H108.208V12.5503H106.177L105.833 12.2285C105.874 12.1741 105.901 12.1061 105.901 12.029C105.901 11.8387 105.733 11.6846 105.529 11.6846C105.348 11.6846 105.198 11.8024 105.162 11.961H102.57L101.885 12.5956L100.222 12.5775V13.416H102.361L102.814 12.999H102.81ZM100.335 13.2981V12.6908L101.926 12.7089L102.61 12.0744H105.153C105.176 12.2421 105.334 12.3735 105.52 12.3735C105.602 12.3735 105.679 12.3463 105.738 12.3055L106.123 12.6636H108.081V13.2301H105.847L105.203 12.6319H103.331C103.304 12.4642 103.15 12.3372 102.964 12.3372C102.76 12.3372 102.592 12.4913 102.592 12.6817C102.592 12.7769 102.633 12.863 102.706 12.9265L102.311 13.2936H100.335V13.2981Z" fill="white"/>
<path d="M112.658 19.9337L113.374 19.2674V18.1842L109.458 14.6081L109.44 14.5945H106.046L104.677 15.859V19.8295C104.559 19.8929 104.301 20.0379 104.282 20.1603C104.278 20.1966 104.291 20.2328 104.319 20.2555C104.437 20.3643 105.411 20.89 105.52 20.949L105.556 20.9671L105.937 20.6181H111.29V19.7932H105.891L105.592 19.5167V17.9077H106.15V19.2674H111.516L111.806 19.5348V20.8674L111.516 21.1393H106.857C106.825 20.9762 106.676 20.8538 106.49 20.8538C106.286 20.8538 106.118 21.0079 106.118 21.1983C106.118 21.3886 106.286 21.5427 106.49 21.5427C106.676 21.5427 106.825 21.4203 106.857 21.2572H108.307V21.4974C108.13 21.5246 107.994 21.6651 107.994 21.8373C107.994 22.0277 108.162 22.1818 108.366 22.1818C108.57 22.1818 108.738 22.0277 108.738 21.8373C108.738 21.6651 108.602 21.5246 108.425 21.4974V21.2572H109.014V22.4537L109.934 22.8345L110.546 22.2679C110.596 22.2906 110.655 22.3042 110.714 22.3042C110.918 22.3042 111.086 22.1501 111.086 21.9597C111.086 21.7693 110.918 21.6152 110.714 21.6152C110.51 21.6152 110.342 21.7693 110.342 21.9597C110.342 22.0549 110.383 22.1365 110.447 22.1999L109.907 22.6985L109.128 22.3767V21.2572H111.562L111.924 20.9218V19.485L111.562 19.1496H106.268V17.7899H105.479V19.5666L105.846 19.9065H111.172V20.4957H105.891L105.542 20.8221C105.112 20.5909 104.477 20.2374 104.4 20.1694C104.405 20.1241 104.577 20.0017 104.763 19.9065L104.795 19.8884V15.8953L106.091 14.6942H109.395L111.843 16.9287V18.2068L111.512 18.5105H109.123V16.6658H110.401L111.135 17.3457V17.8442H109.912C110.061 17.7989 110.166 17.672 110.166 17.5179C110.166 17.3275 109.998 17.1734 109.794 17.1734C109.59 17.1734 109.422 17.3275 109.422 17.5179C109.422 17.672 109.536 17.8035 109.69 17.8488V17.9621H111.258V17.2958L110.451 16.548H109.01V18.5105H107.655V17.0919C107.831 17.0647 107.967 16.9242 107.967 16.7519C107.967 16.5616 107.8 16.4075 107.596 16.4075C107.392 16.4075 107.224 16.5616 107.224 16.7519C107.224 16.9242 107.36 17.0647 107.537 17.0919V18.5105H106.984V17.1598H105.511V16.2488L106.476 15.3559H108.765C108.765 15.3559 108.765 15.3605 108.765 15.365C108.765 15.5554 108.933 15.7095 109.137 15.7095C109.218 15.7095 109.295 15.6823 109.359 15.6415L109.585 15.85H106.952L106.521 16.2488C106.472 16.2262 106.413 16.208 106.354 16.208C106.15 16.208 105.982 16.3621 105.982 16.5525C105.982 16.7429 106.15 16.897 106.354 16.897C106.558 16.897 106.725 16.7429 106.725 16.5525C106.725 16.4618 106.685 16.3757 106.621 16.3123L106.997 15.9633H108.285V17.4726C108.108 17.4998 107.972 17.6403 107.972 17.8125C107.972 18.0029 108.14 18.157 108.343 18.157C108.547 18.157 108.715 18.0029 108.715 17.8125C108.715 17.6403 108.579 17.4998 108.402 17.4726V15.9633H109.885L109.445 15.5554C109.486 15.501 109.508 15.433 109.508 15.3605C109.508 15.1701 109.341 15.016 109.137 15.016C108.978 15.016 108.842 15.1066 108.788 15.2381H106.431L105.393 16.199V17.2822H106.866V18.6329H111.557L111.956 18.2612V17.0375L113.252 18.2204V19.1994L112.536 19.8657V21.2164L110.891 22.6894C110.836 22.6622 110.773 22.6441 110.709 22.6441C110.505 22.6441 110.338 22.7982 110.338 22.9886C110.338 23.1789 110.505 23.333 110.709 23.333C110.913 23.333 111.081 23.1789 111.081 22.9886C111.081 22.9024 111.045 22.8209 110.986 22.7619L112.654 21.2662V19.9156L112.658 19.9337Z" fill="white"/>
<path d="M115.727 12.3645C115.931 12.3645 116.098 12.2104 116.098 12.0201C116.098 11.8297 115.931 11.6756 115.727 11.6756C115.659 11.6756 115.595 11.6937 115.536 11.7255L112.749 9.14651V7.39246L113.751 6.46331H113.982L118.578 10.7147C118.532 10.7737 118.505 10.8416 118.505 10.9187C118.505 11.1091 118.673 11.2632 118.877 11.2632C119.081 11.2632 119.248 11.1091 119.248 10.9187C119.248 10.7283 119.081 10.5742 118.877 10.5742C118.8 10.5742 118.727 10.5969 118.664 10.6332L114.045 6.35906L114.027 6.34546H113.705L112.631 7.33807V10.6921C112.631 10.6921 112.622 10.6921 112.618 10.6921C112.414 10.6921 112.246 10.8462 112.246 11.0365C112.246 11.1 112.269 11.1635 112.3 11.2133H111.548L112.033 10.7646V7.13411L112.504 6.69899C112.563 6.73072 112.627 6.75338 112.699 6.75338C112.903 6.75338 113.071 6.59928 113.071 6.40892C113.071 6.21856 112.903 6.06445 112.699 6.06445C112.495 6.06445 112.327 6.21856 112.327 6.40892C112.327 6.4905 112.359 6.56755 112.414 6.62648L111.915 7.08425V10.7147L111.244 11.3357H112.423C112.482 11.3674 112.545 11.3855 112.618 11.3855C112.821 11.3855 112.989 11.2314 112.989 11.0411C112.989 10.8915 112.889 10.7691 112.749 10.7193V9.30515L115.446 11.798C115.391 11.8569 115.355 11.934 115.355 12.0201C115.355 12.2104 115.523 12.3645 115.727 12.3645Z" fill="white"/>
<path d="M114.168 8.14505C113.964 8.14505 113.796 8.29916 113.796 8.48952C113.796 8.67988 113.964 8.83399 114.168 8.83399C114.254 8.83399 114.331 8.80679 114.39 8.76147L118.383 12.4418L118.741 11.6849L113.801 7.15698L113.284 7.71447V8.75693L117.753 12.8905C117.703 12.9494 117.672 13.022 117.672 13.1035C117.672 13.2939 117.839 13.448 118.043 13.448C118.247 13.448 118.415 13.2939 118.415 13.1035C118.415 12.9132 118.247 12.7591 118.043 12.7591C117.966 12.7591 117.898 12.7817 117.839 12.818L113.402 8.71161V7.76886L113.81 7.32922L118.601 11.7212L118.347 12.256L114.476 8.68895C114.517 8.63456 114.54 8.56657 114.54 8.49405C114.54 8.30369 114.372 8.14959 114.168 8.14959V8.14505Z" fill="white"/>
<path d="M79.8755 20.5453V23.9039L79.2137 24.5656V24.8647C79.2137 24.8647 79.2047 24.8647 79.1956 24.8647C79.0053 24.8647 78.8512 25.0188 78.8512 25.2092C78.8512 25.2998 78.8874 25.3814 78.9463 25.4449L78.2483 26.1429H77.5549L76.4897 27.208V27.6069H77.3011L77.9175 26.9904H78.5928L79.9752 25.6081V24.9055L80.578 24.3027V22.3266L81.1491 24.348V25.1276L78.8194 27.4573H78.2665L77.6501 28.0737C77.5957 28.042 77.5367 28.0193 77.4688 28.0193C77.2784 28.0193 77.1243 28.1734 77.1243 28.3638C77.1243 28.5541 77.2784 28.7082 77.4688 28.7082C77.6591 28.7082 77.8132 28.5541 77.8132 28.3638C77.8132 28.2822 77.7815 28.2097 77.7362 28.1508L78.3163 27.5706H78.8693L81.2624 25.1775V24.3435L80.4647 21.5243V24.2574L79.8619 24.8602V25.5627L78.5429 26.8817H77.8676L77.2512 27.4981H76.5985V27.2579L77.5957 26.2607H78.2891L79.0279 25.5219C79.0732 25.5446 79.1276 25.5627 79.1866 25.5627C79.3769 25.5627 79.531 25.4086 79.531 25.2183C79.531 25.0732 79.4404 24.9508 79.318 24.901V24.6245L79.9797 23.9628V20.5589C80.1474 20.5362 80.2743 20.3957 80.2743 20.219C80.2743 20.0286 80.1202 19.8745 79.9299 19.8745C79.7395 19.8745 79.5854 20.0286 79.5854 20.219C79.5854 20.3867 79.7032 20.5227 79.8619 20.5544L79.8755 20.5453Z" fill="white"/>
<path d="M81.5841 25.9073C81.5841 25.9934 81.6159 26.075 81.6702 26.1339L79.6669 28.1373H78.5973L78.4477 28.2868C78.4024 28.2642 78.348 28.246 78.289 28.246C78.0987 28.246 77.9446 28.4001 77.9446 28.5905C77.9446 28.7809 78.0987 28.935 78.289 28.935C78.4794 28.935 78.6335 28.7809 78.6335 28.5905C78.6335 28.4998 78.5973 28.4137 78.5383 28.3548L78.6426 28.2506H79.7122L81.7564 26.2064C81.8062 26.2336 81.8606 26.2518 81.9241 26.2518C82.1144 26.2518 82.2685 26.0977 82.2685 25.9073C82.2685 25.7441 82.1552 25.6081 82.0011 25.5719V24.0898C82.1552 24.0535 82.2685 23.9175 82.2685 23.7544C82.2685 23.564 82.1144 23.4099 81.9241 23.4099C81.7337 23.4099 81.5796 23.564 81.5796 23.7544C81.5796 23.9311 81.7156 24.0762 81.8878 24.0943V25.5674C81.7156 25.5855 81.5796 25.7305 81.5796 25.9073H81.5841Z" fill="white"/>
<path d="M88.2199 6.17781C88.2199 6.35004 88.3423 6.48602 88.5055 6.51321V10.044L90.4952 8.05424C90.536 8.07237 90.5813 8.08144 90.6267 8.08144C90.817 8.08144 90.9711 7.92733 90.9711 7.73697C90.9711 7.69164 90.9621 7.64632 90.9439 7.60553L91.4833 7.06617C91.5332 7.0979 91.5921 7.11602 91.6601 7.11602C91.8504 7.11602 92.0045 6.96192 92.0045 6.77156C92.0045 6.5812 91.8504 6.42709 91.6601 6.42709C91.4697 6.42709 91.3156 6.5812 91.3156 6.77156C91.3156 6.85768 91.3473 6.93473 91.3972 6.99365L91.2975 7.09336L90.6357 6.43163V5.73363C90.8216 5.73363 90.9711 5.57953 90.9711 5.3937C90.9711 5.20787 90.817 5.04923 90.6267 5.04923C90.4363 5.04923 90.2822 5.20333 90.2822 5.3937C90.2822 5.5478 90.3819 5.67471 90.5179 5.72003V6.48148L91.2159 7.17948L90.8805 7.51488C90.817 7.44689 90.7264 7.40157 90.6267 7.40157C90.527 7.40157 90.4318 7.44689 90.3683 7.51941L89.9876 7.13869V6.51774C90.1644 6.50415 90.3049 6.35911 90.3049 6.17781C90.3049 5.99651 90.1508 5.83334 89.9604 5.83334C89.77 5.83334 89.6159 5.98745 89.6159 6.17781C89.6159 6.33644 89.7247 6.46789 89.8698 6.50868V7.18854L90.3003 7.61913C90.2822 7.65992 90.2731 7.70071 90.2731 7.74603C90.2731 7.84575 90.3185 7.9364 90.3864 7.99985L89.7791 8.6072L89.3123 8.14036V5.68377C89.4754 5.65658 89.5978 5.51607 89.5978 5.34837C89.5978 5.15801 89.4437 5.00391 89.2533 5.00391C89.063 5.00391 88.9089 5.15801 88.9089 5.34837C88.9089 5.5206 89.0312 5.65658 89.1944 5.68377V8.18568L89.693 8.68425L88.5961 9.7811V6.51774C88.7593 6.49055 88.8817 6.35004 88.8817 6.18234C88.8817 5.99198 88.7276 5.83788 88.5372 5.83788C88.3468 5.83788 88.1927 5.99198 88.1927 6.18234L88.2199 6.17781Z" fill="white"/>
<path d="M77.3506 13.0715C77.3506 13.1441 77.3732 13.2075 77.4095 13.2619L77.1829 13.4885L78.1437 14.4494C78.0939 14.5083 78.0622 14.5854 78.0622 14.667C78.0622 14.8573 78.2163 15.0114 78.4066 15.0114C78.597 15.0114 78.7511 14.8573 78.7511 14.667C78.7511 14.4766 78.597 14.3225 78.4066 14.3225C78.3386 14.3225 78.2797 14.3406 78.2253 14.3724L77.337 13.484L77.4865 13.3344C77.5455 13.3798 77.6134 13.4069 77.695 13.4069C77.8854 13.4069 78.0395 13.2528 78.0395 13.0625C78.0395 12.8721 77.8854 12.718 77.695 12.718C77.5047 12.718 77.3506 12.8721 77.3506 13.0625V13.0715Z" fill="white"/>
<path d="M87.3441 13.4025C87.5345 13.4025 87.6886 13.2484 87.6886 13.058C87.6886 12.9583 87.6478 12.8722 87.5798 12.8088L93.7892 6.59931C93.8482 6.64916 93.9252 6.67636 94.0068 6.67636C94.17 6.67636 94.3105 6.55851 94.3422 6.40441H97.2067V5.72454C97.3699 5.69735 97.4923 5.55684 97.4923 5.38914C97.4923 5.19878 97.3381 5.04468 97.1478 5.04468C96.9891 5.04468 96.8532 5.15346 96.8169 5.30303H93.6487C93.6125 5.15346 93.4765 5.04468 93.3179 5.04468C93.1275 5.04468 92.9734 5.19878 92.9734 5.38914C92.9734 5.57951 93.1275 5.73361 93.3179 5.73361C93.5082 5.73361 93.6442 5.5931 93.6578 5.42087H96.8078C96.8214 5.57951 96.9393 5.70641 97.0934 5.72908V6.29563H94.3422C94.3241 6.1234 94.179 5.99196 94.0023 5.99196C93.8119 5.99196 93.6578 6.14606 93.6578 6.33642C93.6578 6.40441 93.6759 6.46333 93.7122 6.51772L87.4846 12.7453C87.4438 12.7272 87.394 12.7136 87.3441 12.7136C87.19 12.7136 87.0631 12.8178 87.0178 12.9583H84.9963L85.1278 12.4779H86.7322L88.3322 10.8779H88.6676L92.7785 6.76701L91.455 5.44353H92.3389L92.842 5.94663C92.774 6.01009 92.7332 6.0962 92.7332 6.19592C92.7332 6.38628 92.8873 6.54038 93.0777 6.54038C93.268 6.54038 93.4221 6.38628 93.4221 6.19592C93.4221 6.00556 93.268 5.85145 93.0777 5.85145C93.0278 5.85145 92.9825 5.86052 92.9417 5.87865L92.3933 5.33022H91.1922L92.6289 6.76701L88.6313 10.7646H88.2959L86.696 12.3646H85.0552L84.8649 13.0671H87.0178C87.0223 13.2529 87.1719 13.398 87.3577 13.398L87.3441 13.4025Z" fill="white"/>
<path d="M111.262 10.3431L110.823 10.7465C110.764 10.7102 110.696 10.6921 110.623 10.6921C110.419 10.6921 110.251 10.8462 110.251 11.0365C110.251 11.2269 110.419 11.381 110.623 11.381C110.827 11.381 110.995 11.2269 110.995 11.0365C110.995 10.9549 110.963 10.8824 110.913 10.8235L111.38 10.3929V6.73524L112.663 5.54774H113.846C113.846 5.54774 113.846 5.5704 113.846 5.57947C113.846 5.76983 114.013 5.92393 114.217 5.92393C114.299 5.92393 114.376 5.89674 114.439 5.85595L119.208 10.3023L119.661 9.50909L118.568 8.50289L119.434 8.71592C119.43 8.73858 119.425 8.76577 119.425 8.79297C119.425 8.98333 119.593 9.13743 119.797 9.13743C120.001 9.13743 120.168 8.98333 120.168 8.79297C120.168 8.60261 120.001 8.4485 119.797 8.4485C119.665 8.4485 119.548 8.51196 119.484 8.60714L118.387 8.33519L115.758 5.91487C115.758 5.91487 115.772 5.89221 115.781 5.87861L117.621 6.34545C117.621 6.34545 117.612 6.39077 117.612 6.41344C117.612 6.6038 117.78 6.7579 117.984 6.7579C118.079 6.7579 118.165 6.72617 118.229 6.67179L120.168 8.42131L120.554 7.37885C120.59 7.39244 120.631 7.39698 120.672 7.39698C120.876 7.39698 121.043 7.24287 121.043 7.05251C121.043 6.86215 120.876 6.70805 120.672 6.70805C120.468 6.70805 120.3 6.86215 120.3 7.05251C120.3 7.16582 120.359 7.26554 120.449 7.32446L120.119 8.21735L119.285 7.46496L119.43 7.14316C119.461 7.15222 119.493 7.15676 119.525 7.15676C119.729 7.15676 119.897 7.00265 119.897 6.81229C119.897 6.62193 119.729 6.46783 119.525 6.46783C119.321 6.46783 119.153 6.62193 119.153 6.81229C119.153 6.93467 119.221 7.03891 119.321 7.09784L119.194 7.37885L118.306 6.5766C118.337 6.52675 118.355 6.46783 118.355 6.4089C118.355 6.21854 118.188 6.06444 117.984 6.06444C117.848 6.06444 117.73 6.13242 117.667 6.23214L115.808 5.76076C115.808 5.76076 115.808 5.74263 115.808 5.73357C115.808 5.54321 115.641 5.3891 115.437 5.3891C115.233 5.3891 115.065 5.54321 115.065 5.73357C115.065 5.92393 115.233 6.07804 115.437 6.07804C115.527 6.07804 115.609 6.04631 115.677 5.99645L119.511 9.52269L119.176 10.1074L114.521 5.76983C114.562 5.71544 114.589 5.64745 114.589 5.57493C114.589 5.38457 114.421 5.23047 114.217 5.23047C114.072 5.23047 113.945 5.31205 113.882 5.42536H112.617L111.262 6.67632V10.334V10.3431Z" fill="white"/>
<path d="M95.353 29.1568L96.0057 28.5042V27.2351L96.8215 26.4193C96.8804 26.5235 96.9892 26.5915 97.1161 26.5915C97.3065 26.5915 97.4606 26.4374 97.4606 26.247C97.4606 26.0567 97.311 25.9071 97.1207 25.9026V25.4402H96.5858L95.1717 26.8544V27.8515C95.0493 27.9014 94.9587 28.0237 94.9587 28.1688C94.9587 28.3591 95.1128 28.5132 95.3032 28.5132C95.4935 28.5132 95.6476 28.3591 95.6476 28.1688C95.6476 27.9784 95.4935 27.8243 95.3032 27.8243C95.2986 27.8243 95.2896 27.8243 95.285 27.8243V26.8997L96.6312 25.5536H97.0074V25.9252C96.8714 25.9705 96.7717 26.0974 96.7717 26.247C96.7717 26.2651 96.7717 26.2833 96.7762 26.3014L95.8878 27.1898V28.4588L95.2352 29.1115V31.9216L96.2051 32.8916H95.7111C95.6703 32.7465 95.5388 32.6423 95.3847 32.6423C95.3122 32.6423 95.2442 32.665 95.1853 32.7058L94.7185 32.2389V26.5688L96.3955 24.8918H97.1433V24.502C97.3156 24.4839 97.4515 24.3389 97.4515 24.1621C97.4515 23.9717 97.2974 23.8176 97.1071 23.8176C96.9167 23.8176 96.7626 23.9717 96.7626 24.1621C96.7626 24.3253 96.8759 24.4567 97.0255 24.493V24.7785H96.3456L94.6052 26.519V32.2389L93.9616 32.8825H92.7741L94.0431 31.6134V31.0333C94.2063 31.0061 94.3287 30.8656 94.3287 30.6979C94.3287 30.5075 94.1746 30.3534 93.9842 30.3534C93.7939 30.3534 93.6398 30.5075 93.6398 30.6979C93.6398 30.8701 93.7621 31.0061 93.9253 31.0333V31.5681L92.6109 32.8825H91.7815L93.4041 31.2599V29.8775L93.6805 29.601C93.7395 29.6509 93.8165 29.6826 93.8981 29.6826C94.0885 29.6826 94.2426 29.5285 94.2426 29.3381C94.2426 29.1478 94.0885 28.9937 93.8981 28.9937C93.7077 28.9937 93.5536 29.1478 93.5536 29.3381C93.5536 29.4016 93.5718 29.4605 93.6035 29.5149L93.2908 29.8276V31.21L91.514 32.9868H94.0069L94.6641 32.3296L95.1083 32.7737C95.0675 32.8281 95.0403 32.9006 95.0403 32.9732C95.0403 33.1635 95.1944 33.3176 95.3847 33.3176C95.5751 33.3176 95.7156 33.1726 95.7247 32.9958H96.4771L95.3485 31.8672V29.1478L95.353 29.1568Z" fill="white"/>
<path d="M97.5025 31.061C97.5025 30.8707 97.3484 30.7166 97.158 30.7166C96.9677 30.7166 96.8136 30.8707 96.8136 31.061C96.8136 31.2378 96.9495 31.3828 97.1218 31.401V32.6428C97.0764 32.6474 97.0311 32.661 96.9903 32.6836L96.0612 31.7545V30.7573L96.102 30.7981L96.9495 29.9506C96.9948 29.9687 97.0402 29.9823 97.09 29.9823C97.2804 29.9823 97.4345 29.8282 97.4345 29.6378C97.4345 29.4656 97.3121 29.3296 97.1489 29.3024V27.8385C97.3212 27.8203 97.4572 27.6753 97.4572 27.4985C97.4572 27.3082 97.303 27.1541 97.1127 27.1541C96.9223 27.1541 96.7682 27.3082 96.7682 27.4985C96.7682 27.6617 96.8815 27.7931 97.0311 27.8294V29.3024C96.8679 29.3296 96.7456 29.4701 96.7456 29.6378C96.7456 29.7375 96.7864 29.8237 96.8543 29.8871L96.0612 30.6803V29.9732C96.2243 29.946 96.3467 29.8055 96.3467 29.6378C96.3467 29.4475 96.1926 29.2934 96.0022 29.2934C95.8119 29.2934 95.6578 29.4475 95.6578 29.6378C95.6578 29.8101 95.7801 29.946 95.9433 29.9732V31.7953L96.8951 32.7471C96.8407 32.806 96.809 32.8876 96.809 32.9737C96.809 33.1641 96.9631 33.3182 97.1535 33.3182C97.3438 33.3182 97.4979 33.1641 97.4979 32.9737C97.4979 32.8105 97.3846 32.6746 97.2305 32.6383V31.3828C97.3846 31.3466 97.4979 31.2106 97.4979 31.0474L97.5025 31.061Z" fill="white"/>
<path d="M97.1482 13.8694C97.1482 13.8694 97.1663 13.8694 97.1754 13.8694C97.3657 13.8694 97.5198 13.7153 97.5198 13.525C97.5198 13.3346 97.3657 13.1805 97.1754 13.1805C97.0303 13.1805 96.9034 13.2712 96.8581 13.4026H94.3834V12.1381L96.0241 10.4973H97.2026V9.69507H95.6072L93.7896 11.5126C93.7488 11.4944 93.7035 11.4854 93.6537 11.4854C93.4633 11.4854 93.3092 11.6395 93.3092 11.8298C93.3092 11.9885 93.4135 12.1199 93.5585 12.1607V15.1929L95.2491 16.8835H96.0377L96.6813 17.5271V18.2523L97.1935 18.7645L97.1573 16.879L96.355 16.0767H95.5845L94.3743 14.8666V13.5114H96.8264C96.8264 13.5114 96.8264 13.5159 96.8264 13.5205C96.8264 13.661 96.908 13.7788 97.0303 13.8332V14.3997H94.8684L95.9924 15.5238H96.8354C96.8626 15.687 97.0031 15.8093 97.1708 15.8093C97.3612 15.8093 97.5153 15.6552 97.5153 15.4649C97.5153 15.2745 97.3612 15.1204 97.1708 15.1204C96.9986 15.1204 96.8626 15.2428 96.8354 15.4059H96.0423L95.1403 14.504H97.1437V13.8513L97.1482 13.8694ZM94.2701 12.0973V14.921L95.5482 16.1991H96.3187L97.0575 16.9379L97.0893 18.5016L96.8037 18.2161V17.4909L96.0921 16.7793H95.3035L93.6763 15.1521V12.1788C93.8576 12.1698 93.9981 12.0202 93.9981 11.8389C93.9981 11.7392 93.9528 11.6486 93.8848 11.5851L95.6525 9.81744H97.0893V10.3931H95.9743L94.2701 12.0973Z" fill="white"/>
<path d="M92.7341 30.9068V29.5198L94.0213 28.2326V27.1494C94.1799 27.1222 94.3023 26.9817 94.3023 26.814C94.3023 26.6236 94.1482 26.4695 93.9578 26.4695C93.7675 26.4695 93.6134 26.6236 93.6134 26.814C93.6134 26.9091 93.6542 26.9953 93.7131 27.0587L92.6162 28.1556V29.4745L91.465 30.6257V29.9278C91.6463 29.9187 91.7913 29.7691 91.7913 29.5878C91.7913 29.4065 91.6372 29.2434 91.4469 29.2434C91.2565 29.2434 91.1024 29.3975 91.1024 29.5878C91.1024 29.7419 91.2067 29.8734 91.3517 29.9142V30.7391L90.282 31.8087V29.266L90.7353 28.8128V29.8144C90.5721 29.8416 90.4497 29.9821 90.4497 30.1498C90.4497 30.3402 90.6038 30.4943 90.7942 30.4943C90.9846 30.4943 91.1387 30.3402 91.1387 30.1498C91.1387 29.9776 91.0163 29.8416 90.8531 29.8144V28.7312H90.8259L91.9681 27.589V28.6451C91.8185 28.6813 91.7097 28.8173 91.7097 28.9759C91.7097 29.1663 91.8639 29.3204 92.0542 29.3204C92.2446 29.3204 92.3987 29.1663 92.3987 28.9759C92.3987 28.7856 92.2582 28.6496 92.0814 28.636V27.4757L96.0337 23.5234H97.1532V22.7982H96.0564C96.0156 22.6577 95.8841 22.5535 95.73 22.5535C95.5397 22.5535 95.3856 22.7076 95.3856 22.8979C95.3856 22.9569 95.3992 23.0112 95.4263 23.0566L90.6356 27.8474C90.5902 27.8292 90.5449 27.8156 90.4905 27.8156C90.3002 27.8156 90.1461 27.9697 90.1461 28.1601C90.1461 28.3505 90.3002 28.5046 90.4905 28.5046C90.6809 28.5046 90.835 28.3505 90.835 28.1601C90.835 28.0649 90.7942 27.9743 90.7307 27.9153L95.4989 23.1472C95.5623 23.2061 95.6439 23.2379 95.73 23.2379C95.9159 23.2379 96.0654 23.0928 96.07 22.907H97.0399V23.4101H95.9884L90.1778 29.2207V32.0807L92.6208 29.6377V30.866L90.8395 32.6472C90.7897 32.62 90.7398 32.6064 90.6809 32.6064C90.4905 32.6064 90.3364 32.7605 90.3364 32.9509C90.3364 33.1413 90.4905 33.2954 90.6809 33.2954C90.8713 33.2954 91.0254 33.1413 91.0254 32.9509C91.0254 32.8602 90.9891 32.7787 90.9302 32.7152L92.7341 30.9113V30.9068ZM92.7341 28.2054L93.8128 27.1267C93.8445 27.1403 93.8763 27.1494 93.908 27.1584V28.1918L92.7341 29.3657V28.2054Z" fill="white"/>
<path d="M70.5067 32.6471C70.4478 32.6471 70.3888 32.6653 70.339 32.6925L69.1923 31.5458H68.0818L69.4461 32.91H68.5668L66.5091 30.8523H65.6252V31.5684C65.4621 31.5911 65.3306 31.7361 65.3306 31.9038C65.3306 32.0942 65.4847 32.2483 65.6751 32.2483C65.8473 32.2483 65.9924 32.1168 66.015 31.9491H66.4229L67.4065 32.9327H66.015C65.9878 32.7695 65.8473 32.6471 65.6796 32.6471C65.4893 32.6471 65.3352 32.8012 65.3352 32.9916C65.3352 33.182 65.4893 33.3361 65.6796 33.3361C65.8519 33.3361 65.9878 33.2137 66.015 33.0505H67.6739L66.4683 31.8449H66.015C65.9878 31.7089 65.8791 31.6001 65.7431 31.573V30.9656H66.4683L68.526 33.0233H69.7226L68.3583 31.6591H69.1515L70.2574 32.765C70.203 32.8239 70.1667 32.9055 70.1667 32.9916C70.1667 33.182 70.3208 33.3361 70.5112 33.3361C70.7016 33.3361 70.8557 33.182 70.8557 32.9916C70.8557 32.8012 70.7016 32.6471 70.5112 32.6471H70.5067Z" fill="white"/>
<path d="M96.7544 22.2816C96.777 22.4493 96.9175 22.5808 97.0943 22.5808C97.2847 22.5808 97.4388 22.4267 97.4388 22.2363C97.4388 22.0641 97.3164 21.9281 97.1532 21.9009V21.493H95.0003C94.9459 21.3751 94.8281 21.2981 94.6921 21.2981C94.5017 21.2981 94.3476 21.4522 94.3476 21.6426C94.3476 21.6607 94.3476 21.6743 94.3522 21.6924L90.6265 25.4181C90.5857 25.4 90.5404 25.3909 90.4905 25.3909C90.3002 25.3909 90.1461 25.545 90.1461 25.7354C90.1461 25.9257 90.3002 26.0798 90.4905 26.0798C90.6809 26.0798 90.835 25.9257 90.835 25.7354C90.835 25.6356 90.7897 25.545 90.7217 25.4861L94.393 21.8148C94.4519 21.919 94.5607 21.9916 94.6921 21.9916C94.8825 21.9916 95.0366 21.8375 95.0366 21.6471C95.0366 21.6335 95.0366 21.6244 95.0366 21.6108H97.049V21.91C96.9085 21.9326 96.7951 22.0414 96.768 22.1819H95.2632L90.6718 26.7733C90.622 26.7461 90.563 26.728 90.5041 26.728C90.3138 26.728 90.1597 26.8821 90.1597 27.0724C90.1597 27.2628 90.3138 27.4169 90.5041 27.4169C90.6945 27.4169 90.8486 27.2628 90.8486 27.0724C90.8486 26.9863 90.8169 26.9093 90.7625 26.8458L95.313 22.2952H96.7725L96.7544 22.2816Z" fill="white"/>
<path d="M97.1758 12.1377C97.0172 12.1377 96.8812 12.2465 96.845 12.3961H95.1226L95.6892 11.8295V11.8612H97.203V11.0862H96.2784L94.8552 12.5094H96.8359C96.8495 12.6861 96.9945 12.8221 97.1758 12.8221C97.3662 12.8221 97.5203 12.668 97.5203 12.4776C97.5203 12.2873 97.3662 12.1332 97.1758 12.1332V12.1377ZM96.3237 11.195H97.0897V11.7479H95.7708L96.3237 11.195Z" fill="white"/>
<path d="M97.2029 7.49219V7.10693H94.2568L87.6259 13.7379H85.1919C85.1557 13.5883 85.0197 13.4795 84.8611 13.4795C84.6707 13.4795 84.5166 13.6337 84.5166 13.824C84.5166 14.0144 84.6707 14.1685 84.8611 14.1685C85.0514 14.1685 85.1874 14.028 85.201 13.8512H87.6712L94.3021 7.22024H97.0896V7.50126C96.94 7.53752 96.8312 7.67349 96.8312 7.83212C96.8312 7.88651 96.8448 7.93637 96.8675 7.9817L96.4279 8.42134H94.9639L92.5662 10.819C92.5118 10.7873 92.4529 10.7646 92.3849 10.7646C92.1946 10.7646 92.0405 10.9187 92.0405 11.1091C92.0405 11.2858 92.1719 11.4264 92.3396 11.449V14.5265L90.5538 16.3123V15.3061L91.3334 14.5265C91.3923 14.5764 91.4694 14.6081 91.551 14.6081C91.7413 14.6081 91.8954 14.454 91.8954 14.2637C91.8954 14.0733 91.7413 13.9192 91.551 13.9192C91.3606 13.9192 91.2065 14.0733 91.2065 14.2637C91.2065 14.3271 91.2246 14.3906 91.2563 14.4404L90.436 15.2608V16.5843L92.4438 14.5764V11.449C92.5979 11.4173 92.7158 11.2768 92.7158 11.1136C92.7158 11.032 92.6841 10.9595 92.6387 10.9006L95.0001 8.53919H96.4641L96.9219 8.08141C96.9853 8.14486 97.0715 8.18112 97.1667 8.18112C97.357 8.18112 97.5111 8.02702 97.5111 7.83666C97.5111 7.64629 97.3706 7.51032 97.1938 7.49672L97.2029 7.49219Z" fill="white"/>
<path d="M119.584 27.784C119.421 27.784 119.285 27.8792 119.235 28.0106H117.902L116.919 27.0996V22.2454L118.315 20.9536V19.8885C118.482 19.8568 118.614 19.7163 118.614 19.5486C118.614 19.3582 118.446 19.2041 118.242 19.2041C118.038 19.2041 117.87 19.3582 117.87 19.5486C117.87 19.6302 117.902 19.7027 117.948 19.7571L116.339 21.2528C116.284 21.2256 116.225 21.2074 116.157 21.2074C115.953 21.2074 115.786 21.3615 115.786 21.5519C115.786 21.7105 115.903 21.8465 116.062 21.8828V23.5462L115.4 24.1581V25.2323C115.224 25.2594 115.083 25.4 115.083 25.5722C115.083 25.6402 115.106 25.7036 115.142 25.758L114 26.8186V26.8458C114.022 28.7948 114.041 31.7136 114.009 32.04L114 32.0672C113.986 32.108 113.977 32.1352 114.408 32.4842L114.448 32.5159L114.825 32.1669V29.742L116.221 28.4503V26.7597L116.805 26.2067V28.0877V28.0968V28.8537L115.459 30.1001V31.4734C115.278 31.4961 115.142 31.6411 115.142 31.8134C115.142 32.0037 115.31 32.1578 115.514 32.1578C115.718 32.1578 115.885 32.0037 115.885 31.8134C115.885 31.6411 115.749 31.5006 115.577 31.4734V30.15L116.923 28.9035V28.2055L117.603 28.831H119.28L118.84 29.4384H117.195L116.103 30.4491V31.759L116.919 31.3511V30.7754L117.58 30.1636H118.025C118.052 30.3313 118.206 30.4582 118.392 30.4582C118.596 30.4582 118.763 30.3041 118.763 30.1137C118.763 29.9233 118.596 29.7692 118.392 29.7692C118.21 29.7692 118.061 29.8916 118.025 30.0502H117.535L116.801 30.7301V31.2831L116.221 31.5731V30.5035L117.24 29.5562H118.899L119.511 28.7132H117.648L116.923 28.0424V27.2583L117.861 28.124H119.217C119.217 28.3143 119.384 28.4684 119.588 28.4684C119.792 28.4684 119.96 28.3143 119.96 28.124C119.96 27.9336 119.792 27.7795 119.588 27.7795L119.584 27.784ZM116.805 22.1955V23.732L116.044 24.4391V25.8169L114.657 27.0996V28.5455C114.48 28.5727 114.344 28.7132 114.344 28.8854C114.344 29.0758 114.512 29.2299 114.716 29.2299C114.92 29.2299 115.088 29.0758 115.088 28.8854C115.088 28.7132 114.952 28.5727 114.775 28.5455V27.154L115.418 26.5603V27.8656C115.26 27.9064 115.142 28.0378 115.142 28.1965C115.142 28.3868 115.31 28.5409 115.514 28.5409C115.718 28.5409 115.885 28.3868 115.885 28.1965C115.885 28.0061 115.727 27.8611 115.532 27.852V26.4515L116.157 25.8713V24.4935L116.805 23.8952V26.0481L116.107 26.7144V28.405L114.711 29.6967V32.1216L114.444 32.3663C114.303 32.253 114.158 32.1261 114.118 32.0808C114.14 31.9085 114.163 31.0882 114.118 26.873L115.228 25.8487C115.292 25.894 115.373 25.9257 115.459 25.9257C115.663 25.9257 115.831 25.7716 115.831 25.5813C115.831 25.409 115.695 25.2685 115.518 25.2413V24.217L116.18 23.6051V21.9009C116.375 21.8918 116.533 21.7423 116.533 21.5564C116.533 21.4703 116.497 21.3887 116.438 21.3253L118.038 19.8341C118.088 19.8658 118.142 19.8794 118.201 19.8885V20.8992L116.805 22.191V22.1955Z" fill="white"/>
<path d="M113.379 32.3207V26.4965L114.779 25.2003V23.8859L115.21 23.487C115.278 23.5414 115.364 23.5777 115.459 23.5777C115.663 23.5777 115.831 23.4235 115.831 23.2332C115.831 23.0564 115.686 22.9114 115.496 22.8933V21.18L117.594 19.2401L117.612 19.222V18.6464L116.842 17.9302L116.805 19.8067L116.175 20.3868V18.3925C116.37 18.3835 116.529 18.2339 116.529 18.0481C116.529 17.8622 116.361 17.7036 116.157 17.7036C115.953 17.7036 115.786 17.8577 115.786 18.0481C115.786 18.2067 115.903 18.3427 116.062 18.3789V20.4956L115.382 21.1256V22.8933C115.215 22.925 115.088 23.0655 115.088 23.2287C115.088 23.2876 115.106 23.3465 115.137 23.3964L114.666 23.836V25.1504L113.266 26.4467V32.3343C113.111 32.3751 112.998 32.5066 112.998 32.6652C112.998 32.6833 112.998 32.706 113.003 32.7241L112.69 32.7966V26.5509H112.699C112.903 26.5509 113.071 26.3968 113.071 26.2065C113.071 26.1158 113.03 26.0297 112.966 25.9662L113.873 25.1277C113.932 25.164 114 25.1821 114.072 25.1821C114.276 25.1821 114.444 25.028 114.444 24.8377C114.444 24.6654 114.308 24.5204 114.127 24.4977V23.6003L114.893 22.8933V21.257C115.065 21.2253 115.192 21.0848 115.192 20.9171C115.192 20.8491 115.169 20.7857 115.133 20.7313L115.541 20.3506V17.4453L115.174 17.2141C115.183 17.1824 115.192 17.1506 115.192 17.1189C115.192 16.9286 115.024 16.7745 114.82 16.7745C114.616 16.7745 114.449 16.9286 114.449 17.1189C114.449 17.273 114.557 17.3999 114.707 17.4453V19.9018L114.013 20.5409V22.1953C113.814 22.2043 113.66 22.3539 113.66 22.5397C113.66 22.6394 113.705 22.7256 113.773 22.789L113.279 23.2422V24.5068L112.581 25.1549V23.8677C112.772 23.8496 112.917 23.7046 112.917 23.5278C112.917 23.3374 112.749 23.1833 112.545 23.1833C112.341 23.1833 112.173 23.3374 112.173 23.5278C112.173 23.5641 112.182 23.5958 112.191 23.6275L111.856 23.8496L111.43 23.4553L113.42 21.6106L113.438 21.5924V20.5908C113.624 20.5681 113.764 20.4276 113.764 20.2508C113.764 20.1647 113.728 20.0877 113.673 20.0287L114.054 19.6797V17.8985L112.078 16.0674C112.132 16.0085 112.164 15.9314 112.164 15.8498C112.164 15.6595 111.996 15.5054 111.793 15.5054C111.589 15.5054 111.421 15.6595 111.421 15.8498C111.421 16.0402 111.589 16.1943 111.793 16.1943C111.865 16.1943 111.933 16.1762 111.987 16.1399L113.941 17.9484V19.6299L113.587 19.9562C113.533 19.9245 113.465 19.9064 113.397 19.9064C113.193 19.9064 113.025 20.0605 113.025 20.2508C113.025 20.4185 113.157 20.559 113.329 20.5908V21.5426L111.262 23.4553L111.851 23.9992L112.255 23.7318C112.309 23.7997 112.382 23.8451 112.472 23.8632V25.4269L113.406 24.5657V23.3012L113.882 22.8615C113.932 22.8842 113.982 22.8933 114.036 22.8933C114.24 22.8933 114.408 22.7391 114.408 22.5488C114.408 22.3902 114.29 22.2587 114.136 22.2179V20.5998L114.829 19.9608V17.4725C114.952 17.4725 115.065 17.4135 115.128 17.3274L115.432 17.5178V20.3098L115.056 20.6542C114.992 20.6044 114.911 20.5772 114.825 20.5772C114.621 20.5772 114.453 20.7313 114.453 20.9216C114.453 21.0984 114.598 21.2434 114.784 21.2616V22.8434L114.018 23.5505V24.4977C113.841 24.5249 113.705 24.6654 113.705 24.8377C113.705 24.9193 113.737 24.9918 113.787 25.0507L112.871 25.8983C112.821 25.8756 112.762 25.8575 112.704 25.8575C112.5 25.8575 112.332 26.0116 112.332 26.2019C112.332 26.3515 112.436 26.4784 112.577 26.5237V32.9417L113.048 32.8329C113.111 32.9371 113.234 33.0097 113.37 33.0097C113.574 33.0097 113.741 32.8556 113.741 32.6652C113.741 32.4748 113.578 32.3253 113.379 32.3207ZM116.955 18.1931L117.499 18.6962V19.1676L116.928 19.6933L116.955 18.1931Z" fill="white"/>
<path d="M120.894 25.2683C120.69 25.2683 120.523 25.4224 120.523 25.6128C120.523 25.7261 120.581 25.8258 120.672 25.8893L120.473 26.5782C120.473 26.5782 120.455 26.5782 120.446 26.5782C120.242 26.5782 120.074 26.7323 120.074 26.9227C120.074 27.113 120.242 27.2671 120.446 27.2671C120.649 27.2671 120.817 27.113 120.817 26.9227C120.817 26.7776 120.722 26.6552 120.586 26.6054L120.776 25.9482C120.813 25.9572 120.853 25.9663 120.894 25.9663C121.098 25.9663 121.266 25.8122 121.266 25.6218C121.266 25.4315 121.098 25.2774 120.894 25.2774V25.2683Z" fill="white"/>
<path d="M111.956 32.6109V26.5601L111.467 26.7595C111.403 26.7187 111.331 26.6915 111.249 26.6915C111.045 26.6915 110.878 26.8456 110.878 27.036C110.878 27.2037 111.004 27.3396 111.172 27.3714V29.42C110.687 29.8869 109.912 30.6257 109.803 30.6936H109.79L109.772 30.7118C109.754 30.7344 109.704 30.7843 109.758 32.0942H108.725V29.2886L108.344 28.9351C108.389 28.8761 108.421 28.8036 108.421 28.7266C108.421 28.5362 108.253 28.3821 108.049 28.3821C107.845 28.3821 107.678 28.5362 107.678 28.7266C107.678 28.8172 107.718 28.8988 107.782 28.9623L107.229 29.4744V32.7061L106.866 33.0415H106.005L106.622 32.4704V29.6059L105.788 30.3809V32.0987L105.389 32.4658C105.325 32.425 105.253 32.3978 105.167 32.3978C104.963 32.3978 104.795 32.5519 104.795 32.7423C104.795 32.9327 104.963 33.0868 105.167 33.0868C105.371 33.0868 105.538 32.9327 105.538 32.7423C105.538 32.6698 105.516 32.6018 105.47 32.5474L105.901 32.1486V30.4308L106.504 29.8733V32.416L105.706 33.1548H106.912L107.347 32.7559V29.5243L107.882 29.0302C107.931 29.0574 107.99 29.071 108.054 29.071C108.131 29.071 108.203 29.0484 108.262 29.0121L108.616 29.3384V32.2075H109.89V32.1486C109.862 31.5593 109.849 30.8976 109.876 30.7843C109.967 30.7254 110.252 30.4761 111.285 29.479L111.304 29.4608V27.3668C111.489 27.3487 111.639 27.2037 111.639 27.0269C111.639 26.9589 111.616 26.8909 111.576 26.8365L111.852 26.7232V29.8506L110.896 30.739C110.837 30.6982 110.76 30.6755 110.678 30.6755C110.474 30.6755 110.306 30.8296 110.306 31.02C110.306 31.2103 110.474 31.3644 110.678 31.3644C110.882 31.3644 111.05 31.2103 111.05 31.02C111.05 30.9429 111.023 30.8749 110.977 30.8206L111.848 30.0138V30.8115L110.819 31.7678C110.773 31.7497 110.723 31.7406 110.674 31.7406C110.47 31.7406 110.302 31.8947 110.302 32.0851C110.302 32.2755 110.47 32.4296 110.674 32.4296C110.878 32.4296 111.045 32.2755 111.045 32.0851C111.045 31.9854 110.995 31.8947 110.923 31.8313L111.848 30.9747V32.6018C111.684 32.6245 111.562 32.7468 111.539 32.8964L109.046 33.0505C108.983 32.9372 108.861 32.8602 108.716 32.8602C108.679 32.8602 108.643 32.8647 108.611 32.8738L108.018 32.3253V30.3854C108.203 30.3628 108.344 30.2223 108.344 30.0455C108.344 29.8551 108.176 29.701 107.972 29.701C107.768 29.701 107.601 29.8551 107.601 30.0455C107.601 30.2132 107.732 30.3537 107.904 30.3854V32.3752L108.498 32.9281C108.407 32.9916 108.344 33.0913 108.344 33.2046C108.344 33.395 108.512 33.5491 108.716 33.5491C108.92 33.5491 109.087 33.395 109.087 33.2046C109.087 33.191 109.087 33.1774 109.087 33.1638L111.548 33.0097C111.585 33.1684 111.734 33.2862 111.916 33.2862C112.119 33.2862 112.287 33.1321 112.287 32.9417C112.287 32.7695 112.151 32.629 111.974 32.6018L111.956 32.6109ZM109.822 30.8115C109.822 30.8115 109.835 30.8115 109.853 30.7979C109.844 30.807 109.835 30.8115 109.822 30.8115Z" fill="white"/>
<path d="M91.3692 12.4732C91.4326 12.5457 91.5233 12.591 91.6275 12.591C91.8179 12.591 91.972 12.4369 91.972 12.2466C91.972 12.0562 91.8179 11.9021 91.6275 11.9021C91.4372 11.9021 91.283 12.0562 91.283 12.2466C91.283 12.2919 91.2921 12.3327 91.3057 12.3735L90.4174 13.2618V14.3859L91.3329 13.4703C91.3918 13.5202 91.4689 13.5519 91.555 13.5519C91.7454 13.5519 91.8995 13.3978 91.8995 13.2074C91.8995 13.0171 91.7454 12.863 91.555 12.863C91.3646 12.863 91.2105 13.0171 91.2105 13.2074C91.2105 13.2709 91.2287 13.3298 91.2604 13.3797L90.5307 14.1094V13.2981L91.3692 12.4596V12.4732Z" fill="white"/>
<path d="M105.161 30.3993C105.365 30.3993 105.533 30.2452 105.533 30.0548C105.533 29.9778 105.506 29.9098 105.46 29.8554L108.248 27.2764H108.728C108.755 27.4169 108.869 27.5257 109.018 27.5574V29.171L109.771 29.869L110.559 29.1393V27.1631H109.68V28.5954C109.517 28.6316 109.399 28.7676 109.399 28.9308C109.399 29.1211 109.567 29.2752 109.771 29.2752C109.975 29.2752 110.142 29.1211 110.142 28.9308C110.142 28.7404 109.988 28.5999 109.798 28.5863V27.2764H110.441V29.0849L109.771 29.7058L109.136 29.1166V27.5574C109.322 27.5393 109.471 27.3943 109.471 27.2175C109.471 27.0271 109.304 26.873 109.1 26.873C108.914 26.873 108.764 26.9954 108.733 27.1586H108.207L105.379 29.7738C105.32 29.733 105.243 29.7104 105.161 29.7104C104.957 29.7104 104.789 29.8645 104.789 30.0548C104.789 30.2089 104.898 30.3358 105.048 30.3812V31.7454L104.4 32.3437H103.693L103.094 31.7907V26.4968L102.65 26.0889H100.592L100.212 25.7354V25.3637C100.334 25.3637 100.443 25.3093 100.511 25.2232L100.928 25.4453C100.914 25.4816 100.91 25.5133 100.91 25.5541C100.91 25.7445 101.077 25.8986 101.281 25.8986C101.485 25.8986 101.653 25.7445 101.653 25.5541C101.653 25.3637 101.485 25.2096 101.281 25.2096C101.159 25.2096 101.055 25.264 100.987 25.3456L100.57 25.1235C100.583 25.0918 100.588 25.0555 100.588 25.0193C100.588 24.8289 100.42 24.6748 100.216 24.6748C100.012 24.6748 99.8446 24.8289 99.8446 25.0193C99.8446 25.1734 99.9534 25.3003 100.098 25.3456V25.7898L100.434 26.1025L99.9715 26.5286V26.9002H102.265V30.7936L102.002 31.0384L101.689 30.7483V27.4215H100.579C100.547 27.2583 100.398 27.1359 100.212 27.1359C100.008 27.1359 99.8401 27.29 99.8401 27.4804C99.8401 27.6708 100.008 27.8249 100.212 27.8249C100.398 27.8249 100.547 27.7025 100.579 27.5393H101.571V30.8027L102.002 31.2015L102.383 30.848V26.7869H100.089V26.583L100.52 26.1841V26.2113H102.605L102.977 26.5558V31.8225L102.614 32.1579C102.555 32.1261 102.487 32.1035 102.414 32.1035C102.274 32.1035 102.156 32.176 102.093 32.2802L100.973 31.8678V28.3416H100.479L100.094 28.6996V31.0746C99.9171 31.1018 99.7811 31.2423 99.7811 31.4145C99.7811 31.6049 99.9488 31.759 100.153 31.759C100.357 31.759 100.524 31.6049 100.524 31.4145C100.524 31.2423 100.388 31.1018 100.212 31.0746V28.7495L100.524 28.4594H100.855V31.9494L102.047 32.389C102.047 32.389 102.043 32.4298 102.043 32.4525C102.043 32.6428 102.211 32.7969 102.414 32.7969C102.618 32.7969 102.786 32.6428 102.786 32.4525C102.786 32.3709 102.754 32.2938 102.7 32.2349L103.04 31.9176L103.638 32.4706H104.436L105.152 31.8043V30.4083L105.161 30.3993Z" fill="white"/>
<path d="M97.1753 8.67958C97.003 8.67958 96.8671 8.80196 96.8399 8.96513H95.6977C95.6705 8.80196 95.53 8.67958 95.3623 8.67958C95.1719 8.67958 95.0178 8.83368 95.0178 9.02405C95.0178 9.09203 95.036 9.15096 95.0722 9.20534L92.9012 11.3764V15.1791L90.576 17.5042C90.5171 17.4499 90.4355 17.4136 90.3449 17.4136C90.1545 17.4136 90.0004 17.5677 90.0004 17.7581C90.0004 17.9303 90.1228 18.0663 90.286 18.0935V18.9546L93.3091 15.9315L94.9317 17.5541H95.6841L96.0195 17.8895V18.6646L96.8308 19.4759C96.8127 19.5167 96.8036 19.562 96.8036 19.6118C96.8036 19.8022 96.9577 19.9563 97.1481 19.9563C97.3384 19.9563 97.4926 19.8022 97.4926 19.6118C97.4926 19.4215 97.3384 19.2674 97.1481 19.2674C97.0484 19.2674 96.9577 19.3127 96.8943 19.3807L96.1283 18.6147V17.8396L95.7294 17.4408H94.977L93.3091 15.7729L90.3993 18.6827V18.0889C90.5624 18.0617 90.6848 17.9212 90.6848 17.7535C90.6848 17.6946 90.6667 17.6402 90.644 17.5904L93.01 15.2244V11.4217L95.1447 9.28693C95.2037 9.33679 95.2762 9.36398 95.3578 9.36398C95.53 9.36398 95.666 9.2416 95.6932 9.07844H96.8353C96.8625 9.2416 97.003 9.36398 97.1707 9.36398C97.3611 9.36398 97.5152 9.20988 97.5152 9.01951C97.5152 8.82915 97.3611 8.67505 97.1707 8.67505L97.1753 8.67958Z" fill="white"/>
<path d="M90.2227 22.6485L90.9751 21.8961V19.1494L93.2911 16.8333L94.2702 17.8123V18.9409L94.5784 19.2491H95.3262L96.21 20.133H93.9529C93.894 20.0332 93.7852 19.9698 93.6628 19.9698C93.4724 19.9698 93.3183 20.1239 93.3183 20.3143C93.3183 20.355 93.3274 20.3958 93.341 20.4366L91.7139 22.0638V21.3703L92.4798 20.6043V19.9109L93.7988 18.5919V17.8123H93.205L91.6005 19.4168V22.1544H91.6187L90.6714 23.1017C90.617 23.0654 90.5536 23.0473 90.4856 23.0473C90.2952 23.0473 90.1411 23.2014 90.1411 23.3918C90.1411 23.5821 90.2952 23.7362 90.4856 23.7362C90.6759 23.7362 90.83 23.5821 90.83 23.3918C90.83 23.3102 90.8028 23.2377 90.753 23.1788L93.3954 20.5363C93.4588 20.6089 93.5495 20.6587 93.6583 20.6587C93.8486 20.6587 94.0027 20.5046 94.0027 20.3143C94.0027 20.2916 94.0027 20.2689 93.9982 20.2463H97.0893V20.8128H94.3336L90.7122 24.4342C90.6533 24.3799 90.5762 24.3481 90.4901 24.3481C90.2997 24.3481 90.1456 24.5022 90.1456 24.6926C90.1456 24.883 90.2997 25.0371 90.4901 25.0371C90.6805 25.0371 90.8346 24.883 90.8346 24.6926C90.8346 24.6291 90.8164 24.5702 90.7892 24.5204L94.388 20.9216H97.2072V20.1284H96.3143L96.346 20.0967L95.3851 19.1358H94.6373L94.3925 18.8911V17.7625L93.3002 16.6702L90.8708 19.0996V21.8462L90.3405 22.3765V20.2599C90.3405 20.2599 90.3451 20.2599 90.3496 20.2599C90.54 20.2599 90.6941 20.1058 90.6941 19.9154C90.6941 19.725 90.54 19.5709 90.3496 19.5709C90.1592 19.5709 90.0051 19.725 90.0051 19.9154C90.0051 20.0604 90.0958 20.1873 90.2272 20.2372V22.6439L90.2227 22.6485ZM91.7139 19.4576L93.2504 17.9211H93.6855V18.5421L92.3665 19.861V20.5545L91.7139 21.2071V19.4576Z" fill="white"/>
<path d="M72.9584 15.2744V11.5124L74.1867 10.2841V16.5162L74.572 16.9015L74.93 16.5434V8.81563C75.1068 8.80203 75.2428 8.65699 75.2428 8.4757C75.2428 8.28533 75.0887 8.13123 74.8983 8.13123C74.8122 8.13123 74.7351 8.16296 74.6762 8.21281L71.9069 5.44349H69.1557L67.1705 7.4287H66.5224V6.32732L65.9331 5.7381C66.0011 5.68824 66.0465 5.61119 66.0601 5.52508H66.3819L67.175 6.31825L67.8141 5.67918C67.8776 5.76076 67.9727 5.81515 68.0861 5.81515C68.2764 5.81515 68.4305 5.66105 68.4305 5.47069C68.4305 5.28032 68.2764 5.12622 68.0861 5.12622C67.8957 5.12622 67.7416 5.28032 67.7416 5.47069C67.7416 5.50695 67.7507 5.54321 67.7597 5.57493L67.175 6.15962L66.4272 5.41176H66.0601C66.0329 5.2486 65.8924 5.12622 65.7247 5.12622C65.5343 5.12622 65.3802 5.28032 65.3802 5.47069C65.3802 5.66105 65.5343 5.81515 65.7247 5.81515C65.7609 5.81515 65.7972 5.80609 65.8334 5.79702L66.4136 6.37717V7.54201H67.2204L69.2056 5.5568H71.8616L74.6082 8.30346C74.5765 8.35332 74.5584 8.41224 74.5584 8.4757C74.5584 8.63886 74.6717 8.7703 74.8213 8.80656V16.4936L74.572 16.7429L74.3 16.4709V10.0167L72.8497 11.4671V15.2789C72.6955 15.3152 72.5822 15.4511 72.5822 15.6143C72.5822 15.8047 72.7363 15.9588 72.9267 15.9588C73.1171 15.9588 73.2712 15.8047 73.2712 15.6143C73.2712 15.4375 73.1352 15.2925 72.9675 15.2744H72.9584Z" fill="white"/>
<path d="M76.5035 26.6644C76.5035 26.5783 76.4718 26.5013 76.4219 26.4423L77.1743 25.6582H77.9947L78.6337 25.0191V22.1818L79.2547 21.5609V17.8851C79.4269 17.867 79.5674 17.7219 79.5674 17.5451C79.5674 17.3548 79.4133 17.2007 79.223 17.2007C79.0326 17.2007 78.8785 17.3548 78.8785 17.5451C78.8785 17.7083 78.9918 17.8398 79.1414 17.876V21.5156L78.5204 22.1365V24.9738L77.9493 25.5449H77.129L76.3358 26.3698C76.2859 26.3381 76.227 26.32 76.1636 26.32C75.9732 26.32 75.8191 26.4741 75.8191 26.6644C75.8191 26.8548 75.9732 27.0089 76.1636 27.0089C76.3539 27.0089 76.508 26.8548 76.508 26.6644H76.5035Z" fill="white"/>
<path d="M77.6447 24.8876L77.6855 24.8468C77.7353 24.874 77.7897 24.8876 77.8487 24.8876C78.039 24.8876 78.1931 24.7335 78.1931 24.5432C78.1931 24.3981 78.107 24.2757 77.9801 24.2259V22.1546L73.91 18.0844C73.9508 18.03 73.9734 17.962 73.9734 17.885C73.9734 17.6946 73.8193 17.5405 73.6289 17.5405C73.4386 17.5405 73.2845 17.6946 73.2845 17.885C73.2845 18.0754 73.4386 18.2295 73.6289 18.2295C73.7015 18.2295 73.774 18.2068 73.8284 18.166L77.8668 22.2044V24.2078C77.8668 24.2078 77.8532 24.2078 77.8487 24.2078C77.6583 24.2078 77.5042 24.3619 77.5042 24.5522C77.5042 24.6383 77.5404 24.7199 77.5948 24.7788H76.5161L75.6821 25.6128L75.5416 24.9647L76.2124 24.3075H77.3138V22.431L74.0777 19.1949C74.1003 19.1495 74.1094 19.0997 74.1094 19.0498C74.1094 18.8595 73.9553 18.7054 73.7649 18.7054C73.5746 18.7054 73.4205 18.8595 73.4205 19.0498C73.4205 19.2402 73.5746 19.3943 73.7649 19.3943C73.8057 19.3943 73.842 19.3852 73.8737 19.3762L74.0505 20.4685L76.4753 22.8933V23.5143H75.8498L75.2969 24.0672L75.1564 23.7681C75.2516 23.7092 75.3195 23.6004 75.3195 23.478C75.3195 23.3828 75.2788 23.2967 75.2198 23.2333L75.6096 22.8435L75.0612 22.2951C75.0975 22.2407 75.1156 22.1772 75.1156 22.1092C75.1156 21.9189 74.9615 21.7648 74.7711 21.7648C74.5808 21.7648 74.4267 21.9189 74.4267 22.1092C74.4267 22.2996 74.5808 22.4537 74.7711 22.4537C74.8482 22.4537 74.9207 22.4265 74.9796 22.3812L75.4465 22.848L75.1201 23.1744C75.0748 23.1517 75.0249 23.1381 74.9706 23.1381C74.7802 23.1381 74.6261 23.2922 74.6261 23.4826C74.6261 23.6729 74.7802 23.827 74.9706 23.827C74.9977 23.827 75.0249 23.827 75.0476 23.818L75.2561 24.2621L75.8906 23.6276H76.5841V22.848L74.1502 20.4141L73.9734 19.3218C73.9734 19.3218 73.9961 19.3036 74.0051 19.2946L77.196 22.4854V24.2032H76.1581L75.4102 24.9375L75.6096 25.844L76.5569 24.8967H77.6447V24.8876Z" fill="white"/>
<path d="M72.3651 17.7536C72.1747 17.7536 72.0206 17.9077 72.0206 18.0981C72.0206 18.148 72.0342 18.1978 72.0523 18.2431L69.7816 20.532C69.7272 20.4912 69.6592 20.4686 69.5821 20.4686C69.4099 20.4686 69.2739 20.5909 69.2467 20.7541H68.6439L72.2246 17.1735V11.8796C72.2246 11.8796 72.2427 11.8796 72.2472 11.8796C72.4376 11.8796 72.5917 11.7255 72.5917 11.5351C72.5917 11.3448 72.4376 11.1907 72.2472 11.1907C72.152 11.1907 72.0705 11.2269 72.007 11.2904L70.8286 10.1119L69.5096 11.4309V15.1384L69.1878 15.4602L69.1606 15.433L68.8524 15.1248V11.4399L67.529 10.1165H66.1194L65.6933 9.69042V8.75221L66.0922 9.15106H67.5471L69.1833 10.7873L70.8467 9.12387L72.5509 10.8281L74.2007 9.17826V8.74768L72.1838 6.73074H69.8133L69.1878 7.35622H68.5216V7.0752L69.4099 6.18685H71.1141C71.1277 6.36361 71.2727 6.50412 71.454 6.50412C71.6353 6.50412 71.7985 6.35001 71.7985 6.15965C71.7985 5.96929 71.6444 5.81519 71.454 5.81519C71.2954 5.81519 71.164 5.92396 71.1232 6.069H69.3646L68.4082 7.02535V7.46499H69.1788L69.5142 8.00436H69.5096V8.01342L69.1561 8.36695H66.3279L65.725 7.76414V7.06161C65.9109 7.05707 66.0559 6.9075 66.0559 6.72167C66.0559 6.53584 65.9018 6.37721 65.7114 6.37721C65.5211 6.37721 65.367 6.53131 65.367 6.72167C65.367 6.87578 65.4712 7.00269 65.6072 7.04801V7.81399L66.2735 8.48026H69.1924L69.5731 8.09954L69.9991 8.56638H71.2138L72.5464 9.89892L72.9815 9.4638C73.0359 9.50006 73.1039 9.52272 73.1718 9.52272C73.3622 9.52272 73.5163 9.36862 73.5163 9.17826C73.5163 8.9879 73.3622 8.83379 73.1718 8.83379C73.122 8.83379 73.0721 8.84739 73.0313 8.86552L71.59 7.4242H70.117L69.5821 7.9273L69.2649 7.41967L69.845 6.83952H72.1203L74.0693 8.78847V9.1284L72.5282 10.6694L70.824 8.96523L69.2196 10.5697V9.69949L69.4779 9.44114C69.5414 9.51819 69.632 9.56352 69.7408 9.56352C69.9311 9.56352 70.0853 9.40941 70.0853 9.21905C70.0853 9.02869 69.9311 8.87458 69.7408 8.87458C69.5504 8.87458 69.3963 9.02869 69.3963 9.21905C69.3963 9.25984 69.4054 9.30063 69.419 9.33689L69.1606 9.59524L68.9612 9.40941C68.9975 9.35502 69.0201 9.29157 69.0201 9.21905C69.0201 9.02869 68.866 8.87458 68.6757 8.87458C68.4853 8.87458 68.3312 9.02869 68.3312 9.21905C68.3312 9.40941 68.4853 9.56352 68.6757 9.56352C68.7527 9.56352 68.8252 9.53632 68.8841 9.491L69.1062 9.69949V10.5697L67.5743 9.03775H66.1194L65.5619 8.48026V9.73122L66.0559 10.2253H67.4655L68.721 11.4807V15.1656L69.0655 15.5101L68.5261 16.0494L68.2315 15.7548V11.6892L67.2434 10.7012H66.0378C66.0106 10.538 65.8701 10.4156 65.7024 10.4156C65.512 10.4156 65.3579 10.5697 65.3579 10.7601C65.3579 10.9504 65.512 11.1045 65.7024 11.1045C65.8746 11.1045 66.0106 10.9822 66.0378 10.819H67.1981L68.1182 11.7391V15.8047L68.4445 16.1356L68.0819 16.5027L68.6077 17.0556L65.6571 20.0063V21.366C65.4939 21.3932 65.3715 21.5337 65.3715 21.7014C65.3715 21.8918 65.5256 22.0459 65.716 22.0459C65.9063 22.0459 66.0604 21.8918 66.0604 21.7014C66.0604 21.6334 66.0423 21.57 66.0061 21.5201L70.0127 17.5134L69.6184 17.1191L69.5414 17.1961L69.8541 17.5089L65.929 21.434C65.8837 21.3977 65.8293 21.3705 65.7704 21.3615V20.0471L68.6847 17.1327L69.1289 17.5995L70.1396 16.5888L70.4886 16.9378L70.8875 16.5389V12.564C71.0688 12.5549 71.2138 12.4054 71.2138 12.2241C71.2138 12.0428 71.0597 11.8796 70.8694 11.8796C70.679 11.8796 70.5249 12.0337 70.5249 12.2241C70.5249 12.3827 70.6291 12.5096 70.7742 12.5504V16.4936L70.4886 16.7792L70.2167 16.5072L69.2467 15.5373L69.6003 15.1837V11.4762L70.8059 10.2706L71.9164 11.381C71.8937 11.4264 71.8801 11.4807 71.8801 11.5351C71.8801 11.6756 71.9662 11.798 72.0886 11.8479V17.1236L68.3493 20.8629H69.2196C69.2467 21.0261 69.3873 21.1484 69.555 21.1484C69.7453 21.1484 69.8994 20.9943 69.8994 20.804C69.8994 20.7315 69.8768 20.6589 69.836 20.6045L72.0931 18.3293C72.1566 18.3927 72.2427 18.4335 72.3379 18.4335C72.5282 18.4335 72.6823 18.2794 72.6823 18.089C72.6823 17.8987 72.5282 17.7446 72.3379 17.7446L72.3651 17.7536ZM70.185 7.53751H71.5674L72.9588 8.92897C72.8954 8.99243 72.85 9.07854 72.85 9.17826C72.85 9.25531 72.8772 9.32783 72.918 9.38222L72.5645 9.73575L71.2773 8.44853H70.0626L69.6683 8.01342L70.1804 7.53298L70.185 7.53751ZM70.0853 16.5072L69.1516 17.4364L68.2587 16.4982L69.1652 15.5917L69.1924 15.6189L70.0807 16.5072H70.0853Z" fill="white"/>
<path d="M72.3559 32.647C72.2789 32.647 72.2063 32.6742 72.1474 32.7195L70.6336 31.2057V28.8533L71.2092 28.2777V24.6472L72.1021 23.7543C72.152 23.7815 72.2109 23.7996 72.2698 23.7996C72.4602 23.7996 72.6143 23.6455 72.6143 23.4552C72.6143 23.3056 72.5191 23.1832 72.3876 23.1334V21.9595L70.7968 23.5504V23.496H69.7679L68.4263 24.8376V24.8104H65.9969C65.9788 24.6381 65.8337 24.5067 65.657 24.5067C65.4666 24.5067 65.3125 24.6608 65.3125 24.8512C65.3125 25.0415 65.4666 25.1956 65.657 25.1956C65.8201 25.1956 65.9561 25.0823 65.9924 24.9282H66.2416L65.6751 25.4948V26.3831H66.2824L67.5107 24.9282H68.3447L66.4819 26.7911H65.9742C65.9198 26.6687 65.802 26.5826 65.6615 26.5826C65.4711 26.5826 65.317 26.7367 65.317 26.927C65.317 27.1038 65.453 27.2488 65.6207 27.267V28.0828L67.76 30.2221H70.5203V30.8521H67.9096C67.8733 30.698 67.7374 30.5847 67.5742 30.5847C67.4926 30.5847 67.4201 30.6119 67.3612 30.6572L66.8853 30.1813H65.7295V29.4017C65.8927 29.3745 66.015 29.234 66.015 29.0663C66.015 28.876 65.8609 28.7219 65.6706 28.7219C65.4802 28.7219 65.3261 28.876 65.3261 29.0663C65.3261 29.2386 65.4485 29.3745 65.6116 29.4017V30.2946H66.8354L67.2841 30.7433C67.2478 30.7977 67.2297 30.8612 67.2297 30.9292C67.2297 31.1195 67.3838 31.2736 67.5742 31.2736C67.7509 31.2736 67.896 31.1377 67.9141 30.9654H70.5203V31.2555L72.0704 32.8056C72.0341 32.86 72.0115 32.9235 72.0115 32.996C72.0115 33.1863 72.1656 33.3404 72.3559 33.3404C72.5463 33.3404 72.7004 33.1863 72.7004 32.996C72.7004 32.8056 72.5463 32.6515 72.3559 32.6515V32.647ZM66.228 26.2698H65.7839V25.5401L66.4003 24.9237H67.3657L66.228 26.2653V26.2698ZM70.5248 28.8533H67.5878V27.9786L68.4444 27.1219V27.5706C68.313 27.616 68.2133 27.7429 68.2133 27.8924C68.2133 28.0828 68.3674 28.2369 68.5577 28.2369C68.7481 28.2369 68.9022 28.0828 68.9022 27.8924C68.9022 27.7021 68.7481 27.548 68.5577 27.548V27.0086L69.1062 26.4602V26.782C68.9611 26.8228 68.8569 26.9542 68.8569 27.1129C68.8569 27.3032 69.011 27.4573 69.2013 27.4573C69.3917 27.4573 69.5458 27.3032 69.5458 27.1129C69.5458 26.9225 69.4008 26.782 69.224 26.7729V26.3514L69.7905 25.7849V27.557C69.6274 27.5842 69.505 27.7247 69.505 27.8924C69.505 28.0828 69.6591 28.2369 69.8495 28.2369C70.0398 28.2369 70.1939 28.0828 70.1939 27.8924C70.1939 27.7202 70.0716 27.5842 69.9084 27.557V25.6761L70.5021 25.0823V26.782C70.348 26.8137 70.2302 26.9542 70.2302 27.1174C70.2302 27.3078 70.3843 27.4619 70.5747 27.4619C70.765 27.4619 70.9191 27.3078 70.9191 27.1174C70.9191 26.9406 70.7877 26.8001 70.62 26.7775V24.8104L67.4971 27.9332V28.9666H70.5475V29.4879H68.6257C68.5985 29.3247 68.458 29.2023 68.2903 29.2023C68.0999 29.2023 67.9458 29.3564 67.9458 29.5468C67.9458 29.7371 68.0999 29.8912 68.2903 29.8912C68.4625 29.8912 68.5985 29.7689 68.6257 29.6057H70.5475V30.1133H67.8325L65.7567 28.0375V27.2624C65.9108 27.2262 66.0241 27.0902 66.0241 26.927C66.0241 26.918 66.0241 26.9089 66.0241 26.9044H66.5499L69.8359 23.6183H70.7605L66.8263 27.5525V27.9015C66.6722 27.9332 66.5544 28.0737 66.5544 28.2369C66.5544 28.4273 66.7085 28.5814 66.8989 28.5814C67.0892 28.5814 67.2433 28.4273 67.2433 28.2369C67.2433 28.0601 67.1119 27.9196 66.9396 27.897V27.5978L72.3015 22.236V23.1152C72.3015 23.1152 72.3015 23.1152 72.297 23.1152C72.1066 23.1152 71.9525 23.2693 71.9525 23.4597C71.9525 23.5458 71.9843 23.6229 72.0386 23.6863L71.1231 24.6019V28.2324L70.5475 28.808V28.8533H70.5248Z" fill="white"/>
<path d="M70.3932 21.9461C70.3343 21.8962 70.2572 21.8645 70.1711 21.8645C69.9944 21.8645 69.8493 22.0005 69.8312 22.1727H66.1327L65.6205 22.6849V24.2304H68.204L69.4958 22.9387H70.5745L72.0566 21.3705C72.1155 21.4203 72.1881 21.4475 72.2696 21.4475C72.46 21.4475 72.6141 21.2934 72.6141 21.1031C72.6141 20.9127 72.46 20.7586 72.2696 20.7586C72.0793 20.7586 71.9252 20.9127 71.9252 21.1031C71.9252 21.171 71.9433 21.23 71.9796 21.2843L70.5246 22.8208H69.4505L68.1587 24.1126H67.0075L67.846 23.2741C67.9049 23.3239 67.9774 23.3511 68.0635 23.3511C68.2539 23.3511 68.408 23.197 68.408 23.0067C68.408 22.8163 68.2539 22.6622 68.0635 22.6622C67.8732 22.6622 67.7191 22.8163 67.7191 23.0067C67.7191 23.0747 67.7372 23.1336 67.7735 23.188L66.8534 24.1081H65.7339V22.7211L66.1826 22.2724H67.3655L66.808 22.8299C66.7491 22.7891 66.6811 22.7619 66.6086 22.7619C66.4183 22.7619 66.2642 22.916 66.2642 23.1064C66.2642 23.2968 66.4183 23.4509 66.6086 23.4509C66.799 23.4509 66.9531 23.2968 66.9531 23.1064C66.9531 23.0339 66.9304 22.9659 66.8896 22.9115L67.5242 22.277H69.8402C69.8765 22.4265 70.0125 22.5398 70.1711 22.5398C70.3615 22.5398 70.5156 22.3857 70.5156 22.1954C70.5156 22.1319 70.4975 22.073 70.4657 22.0186L72.3059 20.1784V18.9003L69.8085 21.3977H66.8942L71.4855 16.8063V11.7436L70.8147 11.0728L70.1031 11.7843V15.4239L69.659 15.8681L69.736 15.9451L70.2119 15.4692V11.8297L70.8102 11.2314L71.3722 11.7934V16.7655L66.6222 21.5155H69.8538L72.1926 19.1768V20.1422L70.3887 21.9461H70.3932Z" fill="white"/>
<path d="M72.3965 31.4825V24.2759L71.8391 24.8334V28.5817L71.4719 28.9488C71.4175 28.9171 71.3586 28.8944 71.2906 28.8944C71.1003 28.8944 70.9462 29.0485 70.9462 29.2389C70.9462 29.4111 71.0685 29.5471 71.2317 29.5743V30.934L72.0566 31.6592C72.0294 31.7091 72.0158 31.7635 72.0158 31.8224C72.0158 32.0128 72.1699 32.1669 72.3603 32.1669C72.5506 32.1669 72.7048 32.0128 72.7048 31.8224C72.7048 31.6456 72.5733 31.5006 72.4011 31.4825H72.3965ZM72.2832 31.487C72.2243 31.5006 72.1699 31.5278 72.1246 31.5686L71.345 30.8796V29.5698C71.5082 29.5426 71.6306 29.4021 71.6306 29.2344C71.6306 29.1528 71.5988 29.0803 71.5535 29.0213L71.9478 28.627V24.8787L72.2832 24.5433V31.487Z" fill="white"/>
<path d="M88.8084 18.5149C88.6543 18.5149 88.5229 18.6192 88.4821 18.7597H87.2402L86.8323 19.1676V21.1845L83.3786 24.67V18.3291L82.5219 21.1891V26.2745L79.9112 28.8806H79.2812L78.6195 29.5424H77.2824C77.2507 29.3837 77.1147 29.2659 76.947 29.2659C76.9198 29.2659 76.8972 29.2659 76.87 29.275L76.6751 28.7447C76.7567 28.6812 76.8156 28.5815 76.8156 28.4727C76.8156 28.2823 76.6615 28.1282 76.4711 28.1282C76.2807 28.1282 76.1266 28.2823 76.1266 28.4727C76.1266 28.6631 76.2807 28.8172 76.4711 28.8172C76.5074 28.8172 76.5436 28.8081 76.5754 28.799L76.7703 29.3248C76.6751 29.3837 76.6071 29.4925 76.6071 29.6149C76.6071 29.8052 76.7612 29.9593 76.9515 29.9593C77.1238 29.9593 77.2688 29.8279 77.2915 29.6602H78.5152L78.5515 30.2177H76.8972L77.5453 32.4023L83.0386 26.909C83.1021 26.9725 83.1882 27.0087 83.2834 27.0087C83.4737 27.0087 83.6278 26.8546 83.6278 26.6643C83.6278 26.5147 83.5281 26.3833 83.3922 26.3425V24.8332L86.9411 21.2525L86.9592 21.2344V19.222L87.2991 18.8821H88.4821C88.4911 19.0634 88.6407 19.2084 88.822 19.2084C89.0033 19.2084 89.1665 19.0543 89.1665 18.8639C89.1665 18.6736 89.0124 18.5195 88.822 18.5195L88.8084 18.5149ZM83.2652 26.3198C83.0794 26.3198 82.9298 26.4739 82.9298 26.6597C82.9298 26.7141 82.9434 26.764 82.9661 26.8093L77.5906 32.1848L77.0377 30.3219H78.6603L78.6195 29.6511H78.6648L79.3266 28.9894H79.9566L82.6307 26.3153V21.2072L83.2652 19.0906V26.3198Z" fill="white"/>
<path d="M89.7059 15.7683C89.5156 15.7683 89.3615 15.9224 89.3615 16.1128C89.3615 16.1626 89.3705 16.208 89.3932 16.2533L89.2482 16.3711L88.8856 16.004L89.9144 14.9751V13.6607L88.2329 15.3423L87.9836 15.093H85.5451L83.9815 16.6567L84.2081 15.7683C84.3803 15.7502 84.5163 15.6052 84.5163 15.4284C84.5163 15.3649 84.4982 15.306 84.4664 15.2562L85.1916 14.531H87.6527C87.6799 14.6941 87.8204 14.821 87.9881 14.821C88.1785 14.821 88.3326 14.6669 88.3326 14.4766C88.3326 14.4177 88.319 14.3678 88.2918 14.3179L94.7007 7.90907H95.2536C95.2899 8.06317 95.4259 8.17648 95.589 8.17648C95.7794 8.17648 95.9335 8.02238 95.9335 7.83201C95.9335 7.64165 95.7794 7.48755 95.589 7.48755C95.4123 7.48755 95.2672 7.62352 95.2491 7.79576H94.6554L88.2238 14.2273C88.1604 14.1684 88.0788 14.1321 87.9881 14.1321C87.8204 14.1321 87.6799 14.2545 87.6527 14.4177H85.1463L84.3939 15.17C84.335 15.1202 84.2579 15.0885 84.1718 15.0885C83.9815 15.0885 83.8273 15.2426 83.8273 15.4329C83.8273 15.5961 83.9407 15.7321 84.0902 15.7638L83.7684 17.0238L85.5859 15.2063H87.9337L89.2346 16.5207L89.4521 16.3485C89.5156 16.4165 89.6017 16.4573 89.7014 16.4573C89.8918 16.4573 90.0459 16.3032 90.0459 16.1128C90.0459 15.9224 89.8918 15.7683 89.7014 15.7683H89.7059ZM88.3099 15.4193L89.8011 13.9281V14.9253L88.804 15.9224L88.3054 15.4193H88.3099Z" fill="white"/>
<path d="M88.6228 19.4668C88.4325 19.4668 88.2784 19.6209 88.2784 19.8113C88.2784 19.9246 88.3328 20.0198 88.4143 20.0832L88.1152 20.9942V20.8673L87.7118 20.4639V20.1512C87.8886 20.1376 88.0291 19.9926 88.0291 19.8113C88.0291 19.63 87.875 19.4668 87.6846 19.4668C87.4942 19.4668 87.3401 19.6209 87.3401 19.8113C87.3401 19.9699 87.4489 20.1013 87.594 20.1421V20.5138L87.9973 20.9172V21.3206L83.8728 25.4451V27.8881L82.5765 29.1844V32.9871H82.0145V29.7328L78.9007 32.8466H78.2073C78.1982 32.7967 78.1755 32.7514 78.1438 32.7106L82.6536 28.2008C82.7171 28.2824 82.8122 28.3368 82.9255 28.3368C83.1159 28.3368 83.27 28.1827 83.27 27.9923C83.27 27.802 83.1159 27.6479 82.9255 27.6479C82.7352 27.6479 82.5811 27.802 82.5811 27.9923C82.5811 28.0286 82.5901 28.0648 82.5992 28.0966L78.0622 32.6335C78.0078 32.5973 77.9444 32.5746 77.8719 32.5746C77.6815 32.5746 77.5274 32.7287 77.5274 32.9191C77.5274 33.1094 77.6815 33.2636 77.8719 33.2636C78.0486 33.2636 78.1891 33.1321 78.2118 32.9599H78.9506L81.9057 30.0047V33.1004H82.6944V29.2342L83.9907 27.9379V25.4949L88.1152 21.3704V21.3568L88.5186 20.1421C88.5503 20.1512 88.5866 20.1603 88.6228 20.1603C88.8132 20.1603 88.9673 20.0062 88.9673 19.8158C88.9673 19.6254 88.8132 19.4713 88.6228 19.4713V19.4668Z" fill="white"/>
<path d="M81.3433 32.5744V31.4685L80.2101 32.6016C80.1648 32.579 80.1195 32.5699 80.0651 32.5699C79.8747 32.5699 79.7206 32.724 79.7206 32.9144C79.7206 33.1047 79.8747 33.2588 80.0651 33.2588C80.2555 33.2588 80.4096 33.1047 80.4096 32.9144C80.4096 32.8192 80.3688 32.7331 80.3053 32.6696L81.2345 31.7405V32.588C81.0894 32.6288 80.9807 32.7603 80.9807 32.9189C80.9807 33.1092 81.1348 33.2634 81.3251 33.2634C81.5155 33.2634 81.6696 33.1092 81.6696 32.9189C81.6696 32.7285 81.5291 32.588 81.3478 32.579L81.3433 32.5744Z" fill="white"/>
<path d="M88.9946 17.4771C88.8042 17.4771 88.6501 17.6312 88.6501 17.8216C88.6501 17.8986 88.6773 17.9666 88.7181 18.0255L88.641 18.1026H86.9232L86.2252 18.8006V19.4714L85.704 18.9502V18.5241L86.2207 18.0074C86.2842 18.0663 86.3657 18.1026 86.4564 18.1026C86.6468 18.1026 86.8009 17.9485 86.8009 17.7581C86.8009 17.5678 86.6468 17.4137 86.4564 17.4137C86.266 17.4137 86.1119 17.5678 86.1119 17.7581C86.1119 17.8125 86.1255 17.8669 86.1482 17.9122L85.5862 18.4742V18.9955L86.1618 19.5711L86.2207 19.5122V20.5592L85.6315 21.1257V20.192L84.9698 19.5303V18.1479L86.2887 16.829H87.2405L87.4127 17.0012C87.3629 17.0601 87.3312 17.1372 87.3312 17.2188C87.3312 17.4091 87.4853 17.5632 87.6756 17.5632C87.866 17.5632 88.0201 17.4091 88.0201 17.2188C88.0201 17.0284 87.866 16.8743 87.6756 16.8743C87.6122 16.8743 87.5487 16.8924 87.4989 16.9241L87.2858 16.7111H86.2388L84.8564 18.0935V19.5711L85.5182 20.2328V21.171H85.5771L84.6661 22.0413V20.7858L84.0451 20.1648V18.1524C84.1947 18.1162 84.308 17.9802 84.308 17.8216C84.308 17.7536 84.2899 17.6947 84.2536 17.6403L85.9261 15.9678H87.5804L87.9385 16.3259C87.8977 16.3803 87.8705 16.4528 87.8705 16.5253C87.8705 16.7157 88.0246 16.8698 88.215 16.8698C88.4053 16.8698 88.5594 16.7157 88.5594 16.5253C88.5594 16.3349 88.4053 16.1808 88.215 16.1808C88.1425 16.1808 88.0745 16.2035 88.0201 16.2443L87.6303 15.8545H85.8853L84.1811 17.5587C84.1222 17.5088 84.0497 17.4816 83.9681 17.4816C83.7777 17.4816 83.6236 17.6357 83.6236 17.8261C83.6236 18.0029 83.7596 18.1479 83.9364 18.166V20.2192L84.5573 20.8402V22.1138H84.6026L84.163 22.5353C84.1041 22.4855 84.027 22.4537 83.9454 22.4537C83.7551 22.4537 83.601 22.6078 83.601 22.7982C83.601 22.9886 83.7551 23.1427 83.9454 23.1427C84.1358 23.1427 84.2899 22.9886 84.2899 22.7982C84.2899 22.7302 84.2718 22.6713 84.24 22.6214L86.334 20.6136V18.855L86.964 18.225H88.6818L88.7906 18.1162C88.845 18.157 88.913 18.1796 88.9855 18.1796C89.1759 18.1796 89.33 18.0255 89.33 17.8352C89.33 17.6448 89.1759 17.4907 88.9855 17.4907L88.9946 17.4771Z" fill="white"/>
<path d="M87.558 22.6983C87.3676 22.6983 87.2135 22.8524 87.2135 23.0427C87.2135 23.079 87.2226 23.1153 87.2317 23.147L84.5575 25.8211V27.2896L86.9642 24.8829C86.9642 24.8829 86.9642 24.8829 86.9688 24.8874L86.715 26.0931L83.293 29.5151V31.9852L84.0091 32.7014C83.9638 32.7603 83.9366 32.8328 83.9366 32.9099C83.9366 33.1002 84.0907 33.2543 84.281 33.2543C84.4714 33.2543 84.6255 33.1002 84.6255 32.9099C84.6255 32.7195 84.4714 32.5654 84.281 32.5654C84.2131 32.5654 84.1451 32.5881 84.0907 32.6243L83.4017 31.9354V29.5559L86.8011 26.1565L86.8147 26.1429L87.073 24.9282C87.1002 24.9373 87.1319 24.9418 87.1591 24.9418C87.3495 24.9418 87.5036 24.7877 87.5036 24.5974C87.5036 24.407 87.3495 24.2529 87.1591 24.2529C86.9688 24.2529 86.8147 24.407 86.8147 24.5974C86.8147 24.6699 86.8373 24.7379 86.8781 24.7968L84.6618 27.0132V25.8619L87.2815 23.2422C87.345 23.3237 87.4402 23.3781 87.5535 23.3781C87.7438 23.3781 87.8979 23.224 87.8979 23.0337C87.8979 22.8433 87.7438 22.6892 87.5535 22.6892L87.558 22.6983Z" fill="white"/>
<path d="M86.2481 27.3214C86.0577 27.3214 85.9036 27.4755 85.9036 27.6659C85.9036 27.7112 85.9127 27.7565 85.9308 27.7973L83.9275 29.8007V31.6454L84.9881 32.715L85.1558 31.7723L84.6346 31.2511V30.2675L85.881 28.9531L85.4051 30.5213C85.2238 30.5304 85.0787 30.68 85.0787 30.8613C85.0787 31.0426 85.2328 31.2057 85.4232 31.2057C85.6136 31.2057 85.7677 31.0516 85.7677 30.8613C85.7677 30.7072 85.6634 30.5757 85.5229 30.5349L86.1257 28.5361L84.5212 30.2222V31.2964L85.0334 31.8085L84.9156 32.4793L84.0363 31.5955V29.8415L85.9898 27.888C86.0532 27.9605 86.1439 28.0058 86.2436 28.0058C86.4339 28.0058 86.588 27.8517 86.588 27.6614C86.588 27.471 86.4339 27.3169 86.2436 27.3169L86.2481 27.3214Z" fill="white"/>
<path d="M130.099 35.8833H127.779V38H130.099V35.8833Z" fill="white"/>
<path d="M135.552 26.7732L131.246 38.0001H134.663L135.588 35.6115H138.969L139.912 38.0001H143.33L139.024 26.7732H135.556H135.552ZM136.023 33.2591L137.279 29.964L138.534 33.2591H136.023Z" fill="white"/>
<path d="M143.392 32.1261H144.593V38.0002H147.87V29.7375H143.669L143.392 32.1261Z" fill="white"/>
<path d="M147.871 26.27H144.331V28.6405H147.871V26.27Z" fill="white"/>
<path d="M120.69 0H4.45086C1.98974 0 0 1.98974 0 4.45086V33.5537C0 36.0103 1.98974 38.0045 4.45086 38.0045H120.694C123.16 38.0045 125.159 36.0057 125.159 33.5401V4.46446C125.159 1.99881 123.16 0 120.694 0H120.69ZM30.3402 32.9509H22.1954V22.5534H12.5775V32.9509H4.43726V5.05367H12.5821V15.4511H22.1999V5.05367H30.3447V32.9509H30.3402ZM58.0198 31.9991C56.7779 32.4342 55.4635 32.765 54.0766 32.9962C52.7168 33.2545 51.1758 33.386 49.4399 33.386C44.3862 33.386 40.5291 32.1441 37.8731 29.6603C35.2171 27.1765 33.8891 23.6684 33.8891 19.1314C33.8891 14.5945 35.1899 10.8733 37.787 8.38955C40.3841 5.87858 44.2548 4.61856 49.3946 4.61856C51.126 4.61856 52.6715 4.75 54.0312 5.00835C55.391 5.2667 56.6873 5.62929 57.9291 6.0916V13.1939C55.4454 12.0971 52.7894 11.5487 49.9566 11.5487C47.3278 11.5487 45.3788 12.156 44.1097 13.3662C42.8406 14.5491 42.2016 16.4709 42.2016 19.1269C42.2016 21.7829 42.8678 23.605 44.1959 24.7562C45.5556 25.8848 47.5045 26.4468 50.0427 26.4468C51.4296 26.4468 52.7712 26.3154 54.072 26.057C55.4 25.7987 56.7145 25.3907 58.0153 24.8423V31.99L58.0198 31.9991ZM124.261 18.2114V33.5401C124.261 35.5117 122.661 37.1116 120.69 37.1116H61.8633V0.892891H120.69C122.661 0.892891 124.261 2.49284 124.261 4.46446V18.2068V18.2114Z" fill="white"/>
</g>
<defs>
<clipPath id="clip0_132_1909">
<rect width="147.871" height="38" fill="white"/>
</clipPath>
</defs>
</svg>
